<svg xmlns="http://www.w3.org/2000/svg" xmlns:xlink="http://www.w3.org/1999/xlink" width="360" zoomAndPan="magnify" viewBox="0 0 270 570" height="760" preserveAspectRatio="xMidYMid meet" version="1.0"><rect x="-27" width="324" fill="#ffffff" y="-57" height="684" fill-opacity="1"/><rect x="-27" width="324" fill="#dfe4f4" y="-57" height="684" fill-opacity="1"/><rect x="-27" width="324" fill="#ffffff" y="-57" height="684" fill-opacity="1"/><rect x="-27" width="324" fill="#dfe4f4" y="-57" height="684" fill-opacity="1"/><path fill="#f4f4f4" d="M 292.691406 469.066406 C 300.648438 461.851562 304.863281 450.859375 302.859375 439.5 C 300.859375 428.140625 293.132812 419.25 283.1875 415.195312 C 288.199219 405.691406 288.398438 393.921875 282.628906 383.929688 C 278.523438 376.824219 272.117188 371.898438 264.902344 369.480469 C 265.792969 367.078125 266.304688 364.492188 266.304688 361.78125 C 266.304688 353.613281 261.871094 346.496094 255.289062 342.652344 C 259.015625 338.691406 261.308594 333.371094 261.308594 327.5 C 261.308594 315.269531 251.386719 305.351562 239.152344 305.351562 C 238.75 305.351562 238.355469 305.390625 237.960938 305.40625 C 238.640625 303.257812 239.007812 300.964844 239.007812 298.585938 C 239.007812 286.046875 228.839844 275.878906 216.292969 275.878906 C 210.378906 275.878906 205.011719 278.160156 200.96875 281.863281 C 197.761719 272.582031 188.964844 265.90625 178.589844 265.90625 C 171.988281 265.90625 166.023438 268.609375 161.726562 272.964844 C 156.011719 264.832031 146.574219 259.5 135.875 259.5 C 124.371094 259.5 114.335938 265.667969 108.808594 274.859375 C 103.425781 269.34375 95.910156 265.90625 87.589844 265.90625 C 76.453125 265.90625 66.765625 272.046875 61.6875 281.117188 C 58.984375 279.910156 55.996094 279.226562 52.847656 279.226562 C 40.847656 279.226562 31.121094 288.949219 31.121094 300.945312 C 31.121094 302.460938 31.28125 303.941406 31.574219 305.371094 C 31.425781 305.367188 31.273438 305.351562 31.121094 305.351562 C 18.882812 305.351562 8.960938 315.269531 8.960938 327.5 C 8.960938 333.425781 11.296875 338.792969 15.085938 342.765625 C 8.605469 346.632812 4.25 353.6875 4.25 361.78125 C 4.25 364.460938 4.75 367.007812 5.617188 369.386719 C -1.714844 371.765625 -8.238281 376.730469 -12.394531 383.929688 C -18.164062 393.921875 -17.96875 405.691406 -12.960938 415.195312 C -22.90625 419.25 -30.628906 428.140625 -32.628906 439.5 C -34.632812 450.859375 -30.417969 461.851562 -22.460938 469.066406 C -30.417969 476.28125 -34.632812 487.273438 -32.628906 498.632812 C -30.628906 509.992188 -22.90625 518.882812 -12.960938 522.941406 C -17.96875 532.441406 -18.164062 544.214844 -12.394531 554.203125 C -6.628906 564.1875 3.667969 569.902344 14.402344 570.320312 C 12.945312 580.957031 16.789062 592.085938 25.628906 599.5 C 34.464844 606.914062 46.097656 608.765625 56.328125 605.480469 C 58.597656 615.980469 66.019531 625.121094 76.855469 629.066406 C 87.699219 633.011719 99.261719 630.777344 107.753906 624.191406 C 113.476562 633.277344 123.578125 639.335938 135.113281 639.335938 C 146.65625 639.335938 156.75 633.277344 162.476562 624.191406 C 170.964844 630.777344 182.53125 633.011719 193.375 629.066406 C 204.210938 625.121094 211.632812 615.980469 213.90625 605.480469 C 224.132812 608.765625 235.761719 606.914062 244.605469 599.5 C 253.441406 592.085938 257.28125 580.957031 255.828125 570.320312 C 266.5625 569.902344 276.859375 564.1875 282.628906 554.203125 C 288.394531 544.214844 288.199219 532.441406 283.1875 522.941406 C 293.132812 518.882812 300.859375 509.992188 302.859375 498.632812 C 304.863281 487.273438 300.648438 476.28125 292.691406 469.066406 " fill-opacity="1" fill-rule="nonzero"/><path fill="#bdbcbc" d="M 292.691406 469.066406 C 300.648438 461.851562 304.863281 450.859375 302.859375 439.5 C 301.269531 430.488281 296.054688 423.078125 289.011719 418.355469 C 289.25 419.257812 289.515625 420.148438 289.675781 421.089844 C 291.683594 432.445312 287.472656 443.4375 279.515625 450.65625 C 287.472656 457.871094 291.683594 468.867188 289.675781 480.226562 C 287.675781 491.582031 279.957031 500.46875 270.007812 504.53125 C 275.019531 514.03125 275.21875 525.800781 269.449219 535.789062 C 263.675781 545.78125 253.382812 551.492188 242.644531 551.90625 C 244.105469 562.546875 240.261719 573.675781 231.421875 581.089844 C 222.585938 588.503906 210.957031 590.351562 200.722656 587.074219 C 198.453125 597.566406 191.035156 606.714844 180.191406 610.65625 C 169.347656 614.601562 157.789062 612.363281 149.296875 605.78125 C 143.570312 614.871094 133.472656 620.925781 121.933594 620.925781 C 110.398438 620.925781 100.296875 614.871094 94.570312 605.78125 C 86.082031 612.363281 74.519531 614.601562 63.679688 610.65625 C 61.183594 609.753906 58.902344 608.542969 56.792969 607.132812 C 59.457031 616.921875 66.597656 625.335938 76.855469 629.066406 C 87.699219 633.011719 99.261719 630.777344 107.753906 624.191406 C 113.476562 633.277344 123.578125 639.335938 135.113281 639.335938 C 146.65625 639.335938 156.75 633.277344 162.476562 624.191406 C 170.964844 630.777344 182.53125 633.011719 193.375 629.066406 C 204.210938 625.121094 211.632812 615.980469 213.90625 605.480469 C 224.132812 608.765625 235.761719 606.914062 244.605469 599.5 C 253.441406 592.085938 257.28125 580.957031 255.828125 570.320312 C 266.5625 569.902344 276.859375 564.1875 282.628906 554.203125 C 288.394531 544.214844 288.199219 532.441406 283.1875 522.941406 C 293.132812 518.882812 300.859375 509.992188 302.859375 498.632812 C 304.863281 487.273438 300.648438 476.28125 292.691406 469.066406 " fill-opacity="1" fill-rule="nonzero"/><path fill="#2e2a2b" d="M 107.753906 621.695312 C 107.898438 621.695312 108.039062 621.707031 108.1875 621.734375 C 108.882812 621.859375 109.488281 622.269531 109.867188 622.859375 C 115.378906 631.617188 124.820312 636.839844 135.113281 636.839844 C 145.410156 636.839844 154.847656 631.617188 160.367188 622.859375 C 160.742188 622.269531 161.351562 621.859375 162.046875 621.734375 C 162.738281 621.605469 163.453125 621.789062 164.007812 622.222656 C 172.011719 628.421875 182.988281 630.195312 192.519531 626.722656 C 202.191406 623.203125 209.273438 615.0625 211.460938 604.957031 C 211.609375 604.269531 212.042969 603.671875 212.65625 603.320312 C 213.261719 602.96875 213.996094 602.890625 214.667969 603.105469 C 224.300781 606.195312 235.253906 604.089844 243 597.589844 C 250.882812 590.972656 254.753906 580.90625 253.351562 570.65625 C 253.253906 569.960938 253.460938 569.253906 253.917969 568.714844 C 254.367188 568.171875 255.027344 567.847656 255.730469 567.824219 C 266.070312 567.425781 275.3125 561.867188 280.460938 552.953125 C 285.609375 544.046875 285.804688 533.257812 280.980469 524.101562 C 280.652344 523.480469 280.601562 522.75 280.84375 522.085938 C 281.085938 521.425781 281.59375 520.894531 282.246094 520.628906 C 291.824219 516.71875 298.613281 508.335938 300.402344 498.199219 C 302.191406 488.066406 298.679688 477.863281 291.015625 470.917969 C 290.492188 470.441406 290.195312 469.773438 290.195312 469.066406 C 290.195312 468.363281 290.492188 467.691406 291.015625 467.21875 C 298.679688 460.269531 302.191406 450.066406 300.402344 439.933594 C 298.613281 429.796875 291.824219 421.414062 282.246094 417.503906 C 281.59375 417.238281 281.085938 416.710938 280.84375 416.042969 C 280.601562 415.382812 280.652344 414.652344 280.980469 414.03125 C 285.804688 404.875 285.609375 394.085938 280.460938 385.179688 C 276.835938 378.902344 271.03125 374.171875 264.105469 371.847656 C 263.464844 371.632812 262.9375 371.164062 262.648438 370.554688 C 262.355469 369.941406 262.324219 369.238281 262.558594 368.605469 C 263.386719 366.386719 263.808594 364.089844 263.808594 361.78125 C 263.808594 354.832031 260.058594 348.328125 254.027344 344.8125 C 253.371094 344.425781 252.921875 343.765625 252.8125 343.011719 C 252.707031 342.257812 252.945312 341.5 253.46875 340.945312 C 256.914062 337.277344 258.8125 332.503906 258.8125 327.503906 C 258.8125 316.667969 249.992188 307.847656 239.152344 307.847656 C 238.929688 307.847656 238.707031 307.863281 238.488281 307.878906 L 238.097656 307.902344 C 237.292969 307.964844 236.492188 307.589844 235.988281 306.945312 C 235.484375 306.292969 235.332031 305.441406 235.574219 304.660156 C 236.199219 302.691406 236.515625 300.648438 236.515625 298.585938 C 236.515625 287.445312 227.441406 278.378906 216.292969 278.378906 C 211.25 278.378906 206.40625 280.269531 202.65625 283.707031 C 202.035156 284.273438 201.171875 284.488281 200.355469 284.289062 C 199.542969 284.078125 198.882812 283.476562 198.613281 282.683594 C 195.65625 274.140625 187.609375 268.402344 178.589844 268.402344 C 172.878906 268.402344 167.523438 270.648438 163.507812 274.71875 C 162.988281 275.246094 162.25 275.53125 161.519531 275.453125 C 160.78125 275.394531 160.105469 275.007812 159.683594 274.398438 C 154.226562 266.636719 145.332031 261.996094 135.875 261.996094 C 125.59375 261.996094 116.273438 267.285156 110.953125 276.140625 C 110.554688 276.804688 109.871094 277.25 109.101562 277.339844 C 108.332031 277.433594 107.566406 277.160156 107.027344 276.605469 C 101.859375 271.316406 94.957031 268.402344 87.589844 268.402344 C 77.769531 268.402344 68.675781 273.742188 63.867188 282.332031 C 63.234375 283.460938 61.847656 283.914062 60.667969 283.394531 C 58.183594 282.285156 55.550781 281.722656 52.847656 281.722656 C 42.246094 281.722656 33.621094 290.34375 33.621094 300.945312 C 33.621094 302.257812 33.753906 303.574219 34.023438 304.867188 C 34.175781 305.609375 33.980469 306.378906 33.5 306.960938 C 33.015625 307.546875 32.304688 307.851562 31.535156 307.867188 C 31.488281 307.867188 31.214844 307.851562 31.183594 307.851562 C 20.273438 307.851562 11.457031 316.667969 11.457031 327.503906 C 11.457031 332.554688 13.386719 337.363281 16.894531 341.042969 C 17.417969 341.59375 17.664062 342.347656 17.558594 343.101562 C 17.460938 343.855469 17.015625 344.519531 16.363281 344.910156 C 10.34375 348.5 6.746094 354.808594 6.746094 361.78125 C 6.746094 364.054688 7.160156 366.324219 7.964844 368.527344 C 8.199219 369.164062 8.160156 369.867188 7.863281 370.476562 C 7.570312 371.089844 7.039062 371.550781 6.390625 371.761719 C -0.65625 374.046875 -6.558594 378.816406 -10.234375 385.179688 C -15.382812 394.09375 -15.574219 404.878906 -10.75 414.03125 C -10.421875 414.652344 -10.371094 415.382812 -10.613281 416.042969 C -10.855469 416.710938 -11.359375 417.238281 -12.015625 417.503906 C -21.597656 421.414062 -28.382812 429.800781 -30.171875 439.933594 C -31.957031 450.066406 -28.449219 460.269531 -20.785156 467.21875 C -20.261719 467.691406 -19.964844 468.363281 -19.964844 469.066406 C -19.964844 469.773438 -20.261719 470.441406 -20.785156 470.917969 C -28.449219 477.863281 -31.957031 488.066406 -30.171875 498.199219 C -28.382812 508.335938 -21.597656 516.71875 -12.015625 520.628906 C -11.359375 520.894531 -10.855469 521.425781 -10.613281 522.085938 C -10.371094 522.75 -10.421875 523.480469 -10.75 524.101562 C -15.574219 533.257812 -15.382812 544.042969 -10.234375 552.953125 C -5.089844 561.867188 4.160156 567.425781 14.5 567.824219 C 15.203125 567.847656 15.863281 568.171875 16.316406 568.714844 C 16.769531 569.253906 16.972656 569.960938 16.878906 570.65625 C 15.476562 580.90625 19.34375 590.972656 27.234375 597.589844 C 34.980469 604.089844 45.9375 606.1875 55.5625 603.105469 C 56.234375 602.890625 56.964844 602.96875 57.574219 603.320312 C 58.1875 603.671875 58.621094 604.269531 58.769531 604.953125 C 60.957031 615.0625 68.039062 623.203125 77.710938 626.722656 C 87.25 630.195312 98.222656 628.417969 106.222656 622.222656 C 106.660156 621.878906 107.203125 621.695312 107.753906 621.695312 Z M 135.113281 641.832031 C 123.976562 641.832031 113.699219 636.601562 107.132812 627.707031 C 98.042969 633.707031 86.289062 635.160156 76 631.410156 C 65.535156 627.605469 57.671875 619.171875 54.539062 608.574219 C 51.863281 609.21875 49.121094 609.539062 46.355469 609.539062 C 38.203125 609.539062 30.269531 606.652344 24.023438 601.414062 C 15.492188 594.253906 10.980469 583.644531 11.664062 572.609375 C 0.683594 571.371094 -8.992188 565.089844 -14.5625 555.449219 C -20.128906 545.808594 -20.734375 534.296875 -16.320312 524.160156 C -26.214844 519.242188 -33.152344 510.03125 -35.089844 499.066406 C -37.023438 488.105469 -33.652344 477.078125 -26.035156 469.066406 C -33.648438 461.054688 -37.023438 450.027344 -35.089844 439.066406 C -33.15625 428.101562 -26.214844 418.890625 -16.316406 413.96875 C -20.734375 403.839844 -20.128906 392.324219 -14.5625 382.679688 C -10.679688 375.957031 -4.667969 370.761719 2.527344 367.851562 C 2.015625 365.851562 1.753906 363.820312 1.753906 361.78125 C 1.753906 354.136719 5.382812 346.898438 11.390625 342.261719 C 8.195312 338.011719 6.460938 332.867188 6.460938 327.503906 C 6.460938 314.722656 16.238281 304.1875 28.707031 302.96875 C 28.652344 302.296875 28.621094 301.621094 28.621094 300.945312 C 28.621094 287.589844 39.488281 276.726562 52.847656 276.726562 C 55.519531 276.726562 58.132812 277.164062 60.644531 278.023438 C 66.558594 268.960938 76.695312 263.410156 87.589844 263.410156 C 95.285156 263.410156 102.554688 266.09375 108.355469 271.023438 C 114.765625 262.191406 124.847656 257.003906 135.875 257.003906 C 146.015625 257.003906 155.605469 261.550781 162.054688 269.292969 C 166.71875 265.484375 172.488281 263.410156 178.589844 263.410156 C 188.578125 263.410156 197.59375 269.097656 201.988281 277.863281 C 206.179688 274.957031 211.152344 273.382812 216.292969 273.382812 C 230.199219 273.382812 241.507812 284.6875 241.507812 298.585938 C 241.507812 300.046875 241.382812 301.5 241.128906 302.929688 C 253.804688 303.941406 263.808594 314.578125 263.808594 327.503906 C 263.808594 332.800781 262.109375 337.898438 258.980469 342.121094 C 265.101562 346.746094 268.800781 354.039062 268.800781 361.78125 C 268.800781 363.863281 268.53125 365.9375 267.996094 367.972656 C 275.058594 370.90625 280.964844 376.058594 284.792969 382.679688 C 290.359375 392.320312 290.964844 403.835938 286.542969 413.96875 C 296.445312 418.890625 303.386719 428.101562 305.316406 439.066406 C 307.257812 450.027344 303.882812 461.054688 296.265625 469.066406 C 303.882812 477.078125 307.257812 488.105469 305.316406 499.066406 C 303.386719 510.03125 296.445312 519.242188 286.542969 524.160156 C 290.964844 534.296875 290.359375 545.8125 284.792969 555.449219 C 279.21875 565.089844 269.550781 571.371094 258.566406 572.609375 C 259.246094 583.648438 254.738281 594.253906 246.207031 601.414062 C 239.960938 606.652344 232.03125 609.539062 223.875 609.539062 C 221.113281 609.539062 218.367188 609.21875 215.691406 608.574219 C 212.558594 619.171875 204.695312 627.605469 194.226562 631.410156 C 183.941406 635.160156 172.1875 633.707031 163.101562 627.707031 C 156.53125 636.601562 146.253906 641.832031 135.113281 641.832031 " fill-opacity="1" fill-rule="nonzero"/><path fill="#7b7979" d="M 64.441406 365.394531 C 60.230469 362.238281 41.628906 353.996094 30.21875 366.273438 C 18.8125 378.550781 11.96875 379.074219 4.25 377.324219 C 13.199219 393.109375 47.59375 406.792969 60.402344 389.777344 C 71.984375 374.394531 64.441406 365.394531 64.441406 365.394531 " fill-opacity="1" fill-rule="nonzero"/><path fill="#4f4c4c" d="M 55.667969 383.113281 C 62.113281 374.546875 62.628906 367.96875 61.824219 363.8125 C 62.941406 364.394531 63.839844 364.949219 64.441406 365.394531 C 64.441406 365.394531 71.984375 374.394531 60.402344 389.777344 C 47.59375 406.792969 13.199219 393.109375 4.25 377.324219 C 4.53125 377.386719 4.804688 377.441406 5.082031 377.496094 C 18.269531 389.847656 44.769531 397.582031 55.667969 383.113281 " fill-opacity="1" fill-rule="nonzero"/><path fill="#bdbcbc" d="M 207.234375 376.148438 C 196.03125 376.148438 186.6875 368.210938 184.515625 357.660156 C 180.480469 364.480469 173.066406 369.070312 164.5625 369.070312 C 154.867188 369.070312 146.574219 363.121094 143.109375 354.679688 C 139.640625 363.121094 131.351562 369.070312 121.652344 369.070312 C 113.820312 369.070312 106.914062 365.179688 102.714844 359.238281 C 99.976562 368.992188 91.035156 376.148438 80.402344 376.148438 C 74.34375 376.148438 68.847656 373.808594 64.71875 370.003906 C 63.863281 372.535156 63.398438 375.160156 63.398438 377.855469 C 63.398438 398.109375 68.179688 438.414062 74.023438 467.425781 C 79.859375 496.4375 110.128906 520.167969 141.28125 520.167969 L 144.933594 520.167969 C 176.089844 520.167969 206.355469 496.4375 212.195312 467.425781 C 218.035156 438.414062 222.816406 398.109375 222.816406 377.855469 C 222.816406 375.507812 222.460938 373.214844 221.804688 370.988281 C 217.824219 374.210938 212.753906 376.148438 207.234375 376.148438 " fill-opacity="1" fill-rule="nonzero"/><path fill="#2e2a2b" d="M 45.894531 361.152344 C 39.921875 361.152344 34.992188 363.199219 31.246094 367.226562 C 23.28125 375.808594 16.929688 379.46875 10.015625 379.46875 C 9.128906 379.46875 8.210938 379.40625 7.238281 379.285156 C 14.335938 388.566406 29.90625 396.21875 42.566406 396.21875 C 47.6875 396.21875 54.746094 394.957031 59.28125 388.933594 C 69.425781 375.460938 64.25 367.488281 63.453125 366.414062 C 60.964844 364.625 53.707031 361.152344 45.894531 361.152344 Z M 3.027344 378.015625 L 1.460938 375.25 L 4.5625 375.953125 C 6.679688 376.4375 8.414062 376.660156 10.015625 376.660156 C 14.289062 376.660156 19.90625 375.3125 29.191406 365.316406 C 33.488281 360.691406 39.109375 358.347656 45.894531 358.347656 C 54.257812 358.347656 62.222656 361.980469 65.28125 364.273438 L 65.515625 364.496094 C 65.851562 364.894531 73.640625 374.527344 61.527344 390.621094 C 57.386719 396.117188 50.828125 399.027344 42.566406 399.027344 C 27.589844 399.027344 9.484375 389.40625 3.027344 378.015625 " fill-opacity="1" fill-rule="nonzero"/><path fill="#d3d2d2" d="M 46.429688 363.8125 C 46.429688 363.8125 46.136719 363.898438 45.617188 364.050781 C 45.109375 364.226562 44.382812 364.398438 43.539062 364.714844 C 43.113281 364.867188 42.652344 365.007812 42.175781 365.1875 C 41.699219 365.382812 41.203125 365.59375 40.6875 365.785156 C 40.152344 365.953125 39.660156 366.265625 39.125 366.488281 C 38.605469 366.746094 38.042969 366.933594 37.542969 367.257812 C 37.023438 367.539062 36.507812 367.824219 35.996094 368.105469 C 35.480469 368.371094 34.988281 368.664062 34.535156 368.988281 C 34.074219 369.300781 33.617188 369.582031 33.179688 369.851562 C 32.734375 370.113281 32.332031 370.382812 31.984375 370.667969 C 30.558594 371.753906 29.496094 372.410156 29.496094 372.410156 C 29.496094 372.410156 30.214844 371.429688 31.460938 370.054688 C 31.617188 369.882812 31.78125 369.703125 31.949219 369.519531 C 32.140625 369.359375 32.335938 369.191406 32.539062 369.023438 C 32.949219 368.6875 33.375 368.324219 33.835938 367.96875 C 34.289062 367.605469 34.753906 367.222656 35.300781 366.945312 C 35.828125 366.636719 36.363281 366.324219 36.898438 366.011719 C 37.429688 365.691406 38.03125 365.503906 38.585938 365.246094 C 39.152344 365.019531 39.699219 364.769531 40.265625 364.625 C 40.824219 364.460938 41.367188 364.320312 41.882812 364.1875 C 42.394531 364.058594 42.902344 364.007812 43.355469 363.929688 C 44.265625 363.769531 45.058594 363.792969 45.585938 363.773438 C 46.121094 363.796875 46.429688 363.8125 46.429688 363.8125 " fill-opacity="1" fill-rule="nonzero"/><path fill="#7b7979" d="M 210.121094 366.277344 C 214.332031 363.121094 232.933594 354.875 244.339844 367.152344 C 255.746094 379.429688 262.589844 379.957031 270.308594 378.203125 C 261.359375 393.992188 226.96875 407.671875 214.15625 390.65625 C 202.574219 375.273438 210.121094 366.277344 210.121094 366.277344 " fill-opacity="1" fill-rule="nonzero"/><path fill="#4f4c4c" d="M 218.894531 383.992188 C 212.449219 375.429688 211.929688 368.847656 212.734375 364.695312 C 211.617188 365.273438 210.722656 365.828125 210.121094 366.277344 C 210.121094 366.277344 202.574219 375.273438 214.15625 390.65625 C 226.96875 407.671875 261.359375 393.992188 270.308594 378.203125 C 270.03125 378.269531 269.757812 378.320312 269.476562 378.378906 C 256.292969 390.726562 229.792969 398.464844 218.894531 383.992188 " fill-opacity="1" fill-rule="nonzero"/><path fill="#2e2a2b" d="M 211.109375 367.292969 C 210.3125 368.367188 205.136719 376.339844 215.28125 389.8125 C 219.8125 395.835938 226.871094 397.101562 231.996094 397.101562 C 244.652344 397.101562 260.226562 389.449219 267.324219 380.167969 C 266.347656 380.289062 265.433594 380.347656 264.546875 380.347656 C 257.632812 380.347656 251.28125 376.6875 243.3125 368.109375 C 239.566406 364.078125 234.636719 362.03125 228.664062 362.03125 C 220.855469 362.03125 213.59375 365.507812 211.109375 367.292969 Z M 231.996094 399.90625 C 223.730469 399.90625 217.175781 397 213.035156 391.5 C 200.921875 375.414062 208.707031 365.777344 209.042969 365.375 L 209.277344 365.152344 C 212.335938 362.859375 220.300781 359.226562 228.664062 359.226562 C 235.449219 359.226562 241.074219 361.570312 245.371094 366.199219 C 254.652344 376.195312 260.273438 377.539062 264.546875 377.539062 C 266.148438 377.539062 267.882812 377.316406 270 376.835938 L 273.101562 376.132812 L 271.53125 378.894531 C 265.074219 390.285156 246.972656 399.90625 231.996094 399.90625 " fill-opacity="1" fill-rule="nonzero"/><path fill="#7b7979" d="M 114.214844 330.613281 C 83.0625 330.613281 57.570312 347.1875 57.570312 367.445312 C 57.570312 387.699219 62.347656 428.007812 68.191406 457.015625 C 74.03125 486.023438 104.300781 509.757812 135.453125 509.757812 L 139.105469 509.757812 C 170.261719 509.757812 200.527344 486.023438 206.367188 457.015625 C 212.210938 428.007812 216.988281 387.699219 216.988281 367.445312 C 216.988281 347.1875 191.5 330.613281 160.347656 330.613281 L 114.214844 330.613281 " fill-opacity="1" fill-rule="nonzero"/><path fill="#2e2a2b" d="M 114.214844 332.488281 C 84.011719 332.488281 59.445312 348.167969 59.445312 367.445312 C 59.445312 387.648438 64.191406 427.667969 70.03125 456.644531 C 75.71875 484.902344 105.066406 507.886719 135.453125 507.886719 L 139.105469 507.886719 C 169.492188 507.886719 198.84375 484.902344 204.53125 456.644531 C 210.371094 427.667969 215.117188 387.648438 215.117188 367.445312 C 215.117188 348.167969 190.546875 332.488281 160.347656 332.488281 Z M 139.105469 511.632812 L 135.453125 511.632812 C 103.375 511.632812 72.378906 487.296875 66.355469 457.386719 C 60.480469 428.203125 55.699219 387.855469 55.699219 367.445312 C 55.699219 346.105469 81.949219 328.742188 114.214844 328.742188 L 160.347656 328.742188 C 192.613281 328.742188 218.863281 346.105469 218.863281 367.445312 C 218.863281 387.855469 214.082031 428.203125 208.203125 457.386719 C 202.183594 487.296875 171.183594 511.632812 139.105469 511.632812 " fill-opacity="1" fill-rule="nonzero"/><path fill="#f4f4f4" d="M 201.402344 319.375 C 192.902344 319.375 185.488281 323.960938 181.449219 330.785156 C 179.28125 320.230469 169.933594 312.296875 158.734375 312.296875 C 149.039062 312.296875 140.75 318.242188 137.28125 326.6875 C 133.8125 318.242188 125.519531 312.296875 115.824219 312.296875 C 105.195312 312.296875 96.257812 319.453125 93.515625 329.203125 C 89.320312 323.261719 82.40625 319.375 74.574219 319.375 C 61.765625 319.375 51.386719 329.753906 51.386719 342.554688 C 51.386719 355.359375 61.765625 365.738281 74.574219 365.738281 C 85.207031 365.738281 94.148438 358.582031 96.886719 348.828125 C 101.085938 354.769531 107.992188 358.660156 115.824219 358.660156 C 125.519531 358.660156 133.8125 352.710938 137.28125 344.269531 C 140.75 352.710938 149.039062 358.660156 158.734375 358.660156 C 167.238281 358.660156 174.652344 354.074219 178.691406 347.25 C 180.859375 357.804688 190.203125 365.738281 201.402344 365.738281 C 214.214844 365.738281 224.597656 355.359375 224.597656 342.554688 C 224.597656 329.753906 214.214844 319.375 201.402344 319.375 " fill-opacity="1" fill-rule="nonzero"/><path fill="#7b7979" d="M 201.402344 365.738281 C 190.203125 365.738281 180.859375 357.804688 178.691406 347.25 C 174.652344 354.074219 167.238281 358.660156 158.734375 358.660156 C 149.039062 358.660156 140.75 352.710938 137.28125 344.269531 C 133.8125 352.710938 125.519531 358.660156 115.824219 358.660156 C 107.992188 358.660156 101.085938 354.769531 96.886719 348.828125 C 94.148438 358.582031 85.207031 365.738281 74.574219 365.738281 C 68.519531 365.738281 63.019531 363.398438 58.890625 359.597656 C 58.035156 362.128906 57.570312 364.75 57.570312 367.445312 C 57.570312 387.699219 62.347656 428.007812 68.191406 457.015625 C 74.03125 486.023438 104.300781 509.757812 135.453125 509.757812 L 139.105469 509.757812 C 170.261719 509.757812 200.527344 486.023438 206.367188 457.015625 C 212.210938 428.007812 216.988281 387.699219 216.988281 367.445312 C 216.988281 365.097656 216.632812 362.804688 215.976562 360.578125 C 211.992188 363.796875 206.929688 365.738281 201.402344 365.738281 " fill-opacity="1" fill-rule="nonzero"/><path fill="#4f4c4c" d="M 215.976562 360.578125 C 211.992188 363.796875 206.929688 365.738281 201.402344 365.738281 C 200.402344 365.738281 199.421875 365.65625 198.460938 365.53125 C 198.5 366.167969 198.566406 366.800781 198.566406 367.445312 C 198.566406 387.699219 194.894531 428.007812 190.402344 457.015625 C 185.910156 486.023438 162.636719 509.757812 138.6875 509.757812 L 139.105469 509.757812 C 170.261719 509.757812 200.527344 486.023438 206.367188 457.015625 C 212.210938 428.007812 216.988281 387.699219 216.988281 367.445312 C 216.988281 365.097656 216.632812 362.804688 215.976562 360.578125 " fill-opacity="1" fill-rule="nonzero"/><path fill="#2e2a2b" d="M 59.933594 362.863281 C 59.609375 364.386719 59.445312 365.921875 59.445312 367.445312 C 59.445312 387.648438 64.191406 427.667969 70.03125 456.644531 C 75.71875 484.902344 105.066406 507.886719 135.453125 507.886719 L 139.105469 507.886719 C 169.492188 507.886719 198.839844 484.902344 204.53125 456.644531 C 210.371094 427.667969 215.117188 387.648438 215.117188 367.445312 C 215.117188 366.214844 215.007812 364.972656 214.792969 363.730469 C 210.804688 366.246094 206.144531 367.609375 201.40625 367.609375 C 190.921875 367.609375 181.632812 361.027344 177.980469 351.488281 C 173.257812 357.144531 166.1875 360.535156 158.734375 360.535156 C 149.832031 360.535156 141.769531 355.890625 137.28125 348.429688 C 132.789062 355.890625 124.730469 360.535156 115.824219 360.535156 C 108.863281 360.535156 102.242188 357.609375 97.53125 352.578125 C 93.589844 361.574219 84.589844 367.609375 74.574219 367.609375 C 69.285156 367.609375 64.1875 365.941406 59.933594 362.863281 Z M 139.105469 511.632812 L 135.453125 511.632812 C 103.375 511.632812 72.378906 487.296875 66.355469 457.386719 C 60.480469 428.203125 55.699219 387.855469 55.699219 367.445312 C 55.699219 364.617188 56.175781 361.777344 57.113281 358.996094 L 58.039062 356.265625 L 60.15625 358.21875 C 64.117188 361.859375 69.238281 363.863281 74.574219 363.863281 C 84.078125 363.863281 92.511719 357.472656 95.082031 348.320312 L 96.144531 344.539062 L 98.417969 347.75 C 102.417969 353.410156 108.925781 356.789062 115.824219 356.789062 C 124.507812 356.789062 132.246094 351.59375 135.546875 343.558594 L 137.28125 339.339844 L 139.011719 343.558594 C 142.3125 351.59375 150.054688 356.789062 158.734375 356.789062 C 166.21875 356.789062 173.246094 352.769531 177.078125 346.296875 L 179.546875 342.125 L 180.523438 346.871094 C 182.550781 356.71875 191.332031 363.863281 201.40625 363.863281 C 206.335938 363.863281 210.964844 362.222656 214.800781 359.121094 L 216.984375 357.355469 L 217.777344 360.050781 C 218.496094 362.503906 218.863281 364.992188 218.863281 367.445312 C 218.863281 387.855469 214.082031 428.203125 208.203125 457.386719 C 202.183594 487.296875 171.183594 511.632812 139.105469 511.632812 " fill-opacity="1" fill-rule="nonzero"/><path fill="#2e2a2b" d="M 104.289062 396.15625 C 104.289062 403.050781 99.070312 408.640625 92.632812 408.640625 C 86.199219 408.640625 80.976562 403.050781 80.976562 396.15625 C 80.976562 389.261719 86.199219 383.671875 92.632812 383.671875 C 99.070312 383.671875 104.289062 389.261719 104.289062 396.15625 " fill-opacity="1" fill-rule="nonzero"/><path fill="#f4f4f4" d="M 101.375 392.449219 C 101.375 395.34375 99.183594 397.6875 96.484375 397.6875 C 93.78125 397.6875 91.59375 395.34375 91.59375 392.449219 C 91.59375 389.554688 93.78125 387.210938 96.484375 387.210938 C 99.183594 387.210938 101.375 389.554688 101.375 392.449219 " fill-opacity="1" fill-rule="nonzero"/><path fill="#2e2a2b" d="M 193.582031 396.15625 C 193.582031 403.050781 188.363281 408.640625 181.925781 408.640625 C 175.488281 408.640625 170.269531 403.050781 170.269531 396.15625 C 170.269531 389.261719 175.488281 383.671875 181.925781 383.671875 C 188.363281 383.671875 193.582031 389.261719 193.582031 396.15625 " fill-opacity="1" fill-rule="nonzero"/><path fill="#f4f4f4" d="M 190.667969 392.449219 C 190.667969 395.34375 188.476562 397.6875 185.777344 397.6875 C 183.078125 397.6875 180.886719 395.34375 180.886719 392.449219 C 180.886719 389.554688 183.078125 387.210938 185.777344 387.210938 C 188.476562 387.210938 190.667969 389.554688 190.667969 392.449219 " fill-opacity="1" fill-rule="nonzero"/></svg>