<svg xmlns="http://www.w3.org/2000/svg" xmlns:xlink="http://www.w3.org/1999/xlink" width="360" zoomAndPan="magnify" viewBox="0 0 270 570" height="760" preserveAspectRatio="xMidYMid meet" version="1.0"><defs><clipPath id="id1"><path d="M 14.332031 104 L 255.832031 104 L 255.832031 254.261719 L 14.332031 254.261719 Z M 14.332031 104 " clip-rule="nonzero"/></clipPath><clipPath id="id2"><path d="M 75 54.761719 L 100 54.761719 L 100 85 L 75 85 Z M 75 54.761719 " clip-rule="nonzero"/></clipPath><clipPath id="id3"><path d="M 22 237.1875 L 37 237.1875 L 37 251 L 22 251 Z M 22 237.1875 " clip-rule="nonzero"/></clipPath></defs><rect x="-27" width="324" fill="#ffffff" y="-57" height="684" fill-opacity="1"/><rect x="-27" width="324" fill="#c0bddd" y="-57" height="684" fill-opacity="1"/><rect x="-27" width="324" fill="#ffffff" y="-57" height="684" fill-opacity="1"/><rect x="-27" width="324" fill="#c0bddd" y="-57" height="684" fill-opacity="1"/><path fill="#ffffff" d="M 90.417969 223.054688 C 89.46875 222.628906 88.648438 221.894531 88.117188 220.902344 C 79.871094 205.390625 78.011719 191.691406 82.585938 180.207031 C 88.664062 164.949219 103.867188 159.707031 104.503906 159.496094 C 107.050781 158.636719 109.792969 160.019531 110.644531 162.550781 C 111.492188 165.089844 110.140625 167.828125 107.601562 168.6875 C 107.371094 168.773438 95.894531 172.894531 91.558594 183.898438 C 88.144531 192.59375 89.867188 203.511719 96.683594 216.34375 C 97.9375 218.707031 97.042969 221.648438 94.671875 222.90625 C 93.3125 223.640625 91.746094 223.640625 90.417969 223.054688 " fill-opacity="1" fill-rule="nonzero"/><path stroke-linecap="round" transform="matrix(0.0884787, 0, 0, -0.0885486, -52.98001, 341.923103)" fill="none" stroke-linejoin="round" d="M 1620.706629 1342.408765 C 1609.978409 1347.217212 1600.707107 1355.510681 1594.702836 1366.715686 C 1501.50418 1541.893147 1480.48923 1696.601623 1532.187774 1826.297351 C 1600.883703 1998.607391 1772.711826 2057.808638 1779.908122 2060.190804 C 1808.693306 2069.895927 1839.685943 2054.279502 1849.310437 2025.693505 C 1858.890782 1997.01928 1843.615209 1966.09523 1814.918323 1956.390108 C 1812.313529 1955.419595 1682.603605 1908.879121 1633.598153 1784.609439 C 1595.011879 1686.411245 1614.481612 1563.112074 1691.521714 1418.196949 C 1705.69356 1391.507862 1695.583427 1358.289875 1668.78495 1344.085105 C 1653.421079 1335.791636 1635.717308 1335.791636 1620.706629 1342.408765 Z M 1620.706629 1342.408765 " stroke="#2e2f53" stroke-width="40" stroke-opacity="1" stroke-miterlimit="10"/><path fill="#ffffff" d="M 135.125 196.117188 C 79.472656 196.117188 32.800781 157.679688 20.15625 105.878906 C 17.949219 114.929688 16.765625 124.375 16.765625 134.097656 C 16.765625 199.519531 69.757812 252.550781 135.125 252.550781 C 200.492188 252.550781 253.480469 199.519531 253.480469 134.097656 C 253.480469 124.375 252.304688 114.929688 250.09375 105.878906 C 237.449219 157.679688 190.777344 196.117188 135.125 196.117188 " fill-opacity="1" fill-rule="nonzero"/><g clip-path="url(#id1)"><path stroke-linecap="round" transform="matrix(0.0884787, 0, 0, -0.0885486, -52.98001, 341.923103)" fill="none" stroke-linejoin="round" d="M 2125.992566 1646.620242 C 1497.000977 1646.620242 969.508065 2080.703904 826.597573 2665.702222 C 801.653357 2563.489636 788.276193 2456.821516 788.276193 2347.021289 C 788.276193 1608.19678 1387.202276 1009.302492 2125.992566 1009.302492 C 2864.782856 1009.302492 3463.66479 1608.19678 3463.66479 2347.021289 C 3463.66479 2456.821516 3450.375924 2563.489636 3425.387559 2665.702222 C 3282.477067 2080.703904 2754.984155 1646.620242 2125.992566 1646.620242 Z M 2125.992566 1646.620242 " stroke="#2e2f53" stroke-width="40" stroke-opacity="1" stroke-miterlimit="10"/></g><path fill="#ffffff" d="M 216.96875 235.027344 C 215.914062 235.445312 214.722656 235.503906 213.5625 235.152344 C 195.378906 229.632812 183.480469 220.601562 178.171875 208.320312 C 171.136719 192.011719 178.710938 176.355469 179.046875 175.691406 C 180.328125 173.097656 183.480469 172.035156 186.070312 173.328125 C 188.664062 174.609375 189.726562 177.746094 188.453125 180.339844 C 188.335938 180.585938 182.726562 192.53125 187.851562 204.257812 C 191.902344 213.527344 201.574219 220.539062 216.605469 225.101562 C 219.375 225.949219 220.949219 228.882812 220.101562 231.652344 C 219.613281 233.265625 218.417969 234.46875 216.96875 235.027344 " fill-opacity="1" fill-rule="nonzero"/><path stroke-linecap="round" transform="matrix(0.0884787, 0, 0, -0.0885486, -52.98001, 341.923103)" fill="none" stroke-linejoin="round" d="M 3051.003571 1207.198763 C 3039.083326 1202.478544 3025.617864 1201.816831 3012.505594 1205.787109 C 2806.991742 1268.120464 2672.51372 1370.112479 2612.515154 1508.807502 C 2533.002706 1692.984259 2618.607724 1869.793946 2622.404543 1877.293359 C 2636.885433 1906.585183 2672.51372 1918.584244 2701.784544 1903.982446 C 2731.099517 1889.51299 2743.10806 1854.089293 2728.715468 1824.797469 C 2727.390996 1822.018275 2663.992953 1687.117072 2721.916513 1554.686263 C 2767.699083 1450.003283 2877.012144 1370.818306 3046.897708 1319.292928 C 3078.199389 1309.720148 3095.991458 1276.590389 3086.411113 1245.313426 C 3080.892481 1227.094264 3067.38287 1213.507092 3051.003571 1207.198763 Z M 3051.003571 1207.198763 " stroke="#2e2f53" stroke-width="40" stroke-opacity="1" stroke-miterlimit="10"/><path fill="#2e2f53" d="M 224.984375 162.460938 C 225.082031 143.59375 212.652344 128.28125 196.8125 127.140625 C 192.8125 113.855469 181.976562 104.4375 169.199219 104.578125 C 166.96875 104.613281 164.800781 104.921875 162.722656 105.488281 C 159.359375 94.570312 150.40625 86.839844 139.859375 86.957031 C 126.871094 87.105469 116.183594 99.078125 115.332031 114.050781 C 113.679688 113.53125 111.925781 113.253906 110.113281 113.273438 C 99.476562 113.386719 90.816406 123.570312 90.753906 136.003906 C 90.746094 136.878906 90.789062 137.746094 90.867188 138.605469 L 90.734375 138.605469 C 80.101562 138.722656 71.4375 148.894531 71.375 161.335938 C 71.316406 173.769531 79.878906 183.757812 90.515625 183.640625 C 93.769531 183.605469 96.832031 182.625 99.53125 180.933594 C 103.707031 191.878906 113.128906 199.429688 124.101562 199.308594 C 130.585938 199.234375 136.542969 196.5 141.222656 192.011719 C 144.707031 196.347656 149.679688 199.023438 155.21875 198.960938 C 162.378906 198.882812 168.648438 194.242188 171.996094 187.414062 C 177.542969 194.347656 185.460938 198.625 194.273438 198.527344 C 211.136719 198.339844 224.894531 182.191406 224.984375 162.460938 " fill-opacity="1" fill-rule="nonzero"/><path fill="#ffffff" d="M 69.472656 148.816406 C 69.472656 148.816406 24.417969 178.242188 39.753906 195.152344 C 55.085938 212.066406 100.195312 194.171875 100.257812 169.996094 C 100.316406 145.816406 77.101562 143.316406 69.472656 148.816406 " fill-opacity="1" fill-rule="nonzero"/><path stroke-linecap="round" transform="matrix(0.0884787, 0, 0, -0.0885486, -52.98001, 341.923103)" fill="none" stroke-linejoin="round" d="M 1383.979395 2180.799009 C 1383.979395 2180.799009 874.764193 1848.486791 1048.093383 1657.516448 C 1221.378425 1466.501991 1731.211714 1668.58911 1731.918099 1941.611853 C 1732.580335 2214.678709 1470.2025 2242.911793 1383.979395 2180.799009 Z M 1383.979395 2180.799009 " stroke="#2e2f53" stroke-width="40" stroke-opacity="1" stroke-miterlimit="10"/><path fill="#ffffff" d="M 56.085938 191.007812 C 55.917969 192.90625 52.320312 195.164062 51.433594 195.101562 C 50.417969 195.039062 47.40625 192.125 47.585938 190.230469 C 47.761719 188.335938 49.644531 188.714844 51.992188 188.929688 C 54.34375 189.140625 56.265625 189.113281 56.085938 191.007812 " fill-opacity="1" fill-rule="nonzero"/><path stroke-linecap="round" transform="matrix(0.0884787, 0, 0, -0.0885486, -52.98001, 341.923103)" fill="none" stroke-linejoin="round" d="M 1232.680583 1704.321607 C 1230.782174 1682.882109 1190.120894 1657.384105 1180.099058 1658.089932 C 1168.620304 1658.79576 1134.581382 1691.704948 1136.612239 1713.100331 C 1138.598946 1734.495715 1159.878791 1730.216638 1186.412373 1727.790358 C 1212.990104 1725.408191 1234.71144 1725.716991 1232.680583 1704.321607 Z M 1232.680583 1704.321607 " stroke="#2e2f53" stroke-width="40" stroke-opacity="1" stroke-miterlimit="10"/><path fill="#2e2f53" d="M 79.765625 173.839844 C 80.296875 173.363281 80.816406 172.503906 81.171875 170.972656 C 79.871094 173.015625 78.90625 173.371094 78.347656 173.34375 C 79.09375 172.363281 79.828125 171.175781 80.527344 169.695312 C 73.144531 179.808594 63.890625 173.027344 63.890625 173.027344 C 63.890625 173.027344 70.679688 180.683594 76.878906 174.980469 C 77.5625 175.453125 80.019531 176.601562 83.234375 172.121094 C 81.746094 173.160156 80.613281 173.644531 79.765625 173.839844 " fill-opacity="1" fill-rule="nonzero"/><path fill="#2e2f53" d="M 49.054688 171.46875 C 48.621094 171.078125 48.1875 170.367188 47.902344 169.113281 C 48.964844 170.785156 49.761719 171.085938 50.222656 171.058594 C 49.601562 170.261719 49.007812 169.28125 48.433594 168.066406 C 54.496094 176.363281 62.085938 170.804688 62.085938 170.804688 C 62.085938 170.804688 56.519531 177.089844 51.425781 172.40625 C 50.859375 172.785156 48.839844 173.734375 46.214844 170.058594 C 47.433594 170.910156 48.363281 171.308594 49.054688 171.46875 " fill-opacity="1" fill-rule="nonzero"/><path fill="#2e2f53" d="M 108.21875 152.207031 C 108.253906 145.222656 103.652344 139.554688 97.796875 139.136719 C 96.308594 134.222656 92.300781 130.734375 87.578125 130.789062 C 86.753906 130.796875 85.949219 130.910156 85.179688 131.125 C 83.941406 127.078125 80.621094 124.226562 76.722656 124.269531 C 71.917969 124.324219 67.960938 128.75 67.652344 134.292969 C 67.03125 134.097656 66.386719 133.992188 65.714844 134.003906 C 61.777344 134.046875 58.574219 137.820312 58.554688 142.414062 C 58.546875 142.742188 58.566406 143.0625 58.601562 143.378906 L 58.546875 143.378906 C 54.609375 143.421875 51.40625 147.1875 51.378906 151.792969 C 51.363281 156.394531 54.53125 160.089844 58.46875 160.042969 C 59.671875 160.027344 60.804688 159.664062 61.804688 159.035156 C 63.351562 163.089844 66.828125 165.878906 70.890625 165.835938 C 73.289062 165.808594 75.492188 164.800781 77.226562 163.132812 C 78.515625 164.746094 80.355469 165.730469 82.410156 165.710938 C 85.054688 165.675781 87.375 163.96875 88.613281 161.441406 C 90.664062 164.003906 93.59375 165.585938 96.859375 165.550781 C 103.097656 165.480469 108.183594 159.503906 108.21875 152.207031 " fill-opacity="1" fill-rule="nonzero"/><path fill="#ffffff" d="M 99.328125 165.765625 C 99.328125 165.765625 114.871094 189.097656 111.960938 191.816406 C 105.113281 202.203125 82.480469 207.53125 99.328125 165.765625 " fill-opacity="1" fill-rule="nonzero"/><path stroke-linecap="round" transform="matrix(0.0884787, 0, 0, -0.0885486, -52.98001, 341.923103)" fill="none" stroke-linejoin="round" d="M 1721.410624 1989.387524 C 1721.410624 1989.387524 1897.079715 1725.893448 1864.188669 1695.189969 C 1786.795375 1577.890329 1530.995749 1517.718569 1721.410624 1989.387524 Z M 1721.410624 1989.387524 " stroke="#2e2f53" stroke-width="40" stroke-opacity="1" stroke-miterlimit="10"/><path fill="#ffffff" d="M 135.167969 238.871094 C 134.132812 238.824219 133.097656 238.4375 132.25 237.703125 C 118.953125 226.226562 112.261719 214.136719 112.378906 201.769531 C 112.519531 185.351562 124.78125 174.957031 125.304688 174.511719 C 127.375 172.804688 130.425781 173.085938 132.144531 175.152344 C 133.851562 177.203125 133.570312 180.25 131.523438 181.96875 C 131.339844 182.136719 122.121094 190.125 122.066406 201.964844 C 122.03125 211.304688 127.578125 220.859375 138.578125 230.351562 C 140.609375 232.097656 140.832031 235.160156 139.082031 237.195312 C 138.070312 238.375 136.613281 238.941406 135.167969 238.871094 " fill-opacity="1" fill-rule="nonzero"/><path stroke-linecap="round" transform="matrix(0.0884787, 0, 0, -0.0885486, -52.98001, 341.923103)" fill="none" stroke-linejoin="round" d="M 2126.478206 1163.790397 C 2114.778706 1164.319767 2103.079206 1168.687072 2093.498861 1176.98054 C 1943.215477 1306.58804 1867.588146 1443.121468 1868.912618 1582.787004 C 1870.501984 1768.198959 2009.085868 1885.586827 2015.001841 1890.615845 C 2038.40084 1909.893748 2072.881253 1906.717526 2092.306837 1883.381118 C 2111.599974 1860.221166 2108.421242 1825.812095 2085.287137 1806.40185 C 2083.212132 1804.50494 1979.020361 1714.291415 1978.402274 1580.581295 C 1978.004933 1475.104259 2040.696591 1367.200942 2165.020331 1260.003452 C 2188.021989 1240.284408 2190.494336 1205.69888 2170.715559 1182.715385 C 2159.280954 1169.392899 2142.813356 1162.996341 2126.478206 1163.790397 Z M 2126.478206 1163.790397 " stroke="#2e2f53" stroke-width="40" stroke-opacity="1" stroke-miterlimit="10"/><path fill="#2e2f53" d="M 57.371094 125.722656 C 57.371094 125.722656 56.46875 127.554688 53.414062 126.140625 C 52.292969 125.414062 50.984375 125.246094 49.742188 125.402344 L 55.433594 112.945312 C 55.503906 112.820312 55.558594 112.707031 55.601562 112.582031 L 55.609375 112.566406 C 55.707031 112.261719 55.714844 111.980469 55.601562 111.714844 C 54.34375 114.363281 51.59375 113.796875 47.214844 113.097656 C 42.84375 112.386719 43.207031 115.238281 43.207031 115.238281 C 43.207031 115.238281 44.109375 113.40625 47.152344 114.824219 C 48.691406 115.8125 50.566406 115.769531 52.167969 115.246094 L 46.132812 126.917969 C 45.1875 127.671875 44.683594 128.554688 44.964844 129.246094 C 46.222656 126.589844 48.984375 127.15625 53.363281 127.867188 C 57.722656 128.574219 57.371094 125.722656 57.371094 125.722656 " fill-opacity="1" fill-rule="nonzero"/><path fill="#2e2f53" d="M 70.988281 97.34375 C 70.988281 97.34375 69.785156 99.957031 65.441406 98.085938 C 63.8125 97.105469 61.960938 96.910156 60.21875 97.191406 L 67.75 79.402344 C 67.847656 79.234375 67.917969 79.058594 67.96875 78.890625 L 67.980469 78.855469 C 68.113281 78.4375 68.113281 78.03125 67.945312 77.667969 C 66.28125 81.449219 62.359375 80.765625 56.167969 79.941406 C 49.984375 79.109375 50.601562 83.121094 50.601562 83.121094 C 50.601562 83.121094 51.804688 80.5 56.148438 82.378906 C 58.371094 83.714844 61.007812 83.582031 63.246094 82.777344 L 55.195312 99.46875 C 53.894531 100.566406 53.210938 101.839844 53.636719 102.789062 C 55.308594 99.015625 59.21875 99.699219 65.414062 100.523438 C 71.605469 101.34375 70.988281 97.34375 70.988281 97.34375 " fill-opacity="1" fill-rule="nonzero"/><g clip-path="url(#id2)"><path fill="#2e2f53" d="M 99.539062 77.816406 C 99.539062 77.816406 98.113281 80.863281 93.046875 78.632812 C 91.160156 77.472656 89.011719 77.226562 86.957031 77.542969 L 95.929688 56.8125 C 96.042969 56.609375 96.132812 56.414062 96.195312 56.210938 L 96.210938 56.175781 L 96.203125 56.175781 C 96.363281 55.691406 96.363281 55.210938 96.175781 54.785156 C 94.1875 59.195312 89.621094 58.355469 82.390625 57.328125 C 75.15625 56.308594 75.855469 60.992188 75.855469 60.992188 C 75.855469 60.992188 77.277344 57.949219 82.347656 60.179688 C 84.921875 61.773438 88.011719 61.632812 90.628906 60.710938 L 81.066406 80.15625 C 79.535156 81.429688 78.71875 82.902344 79.214844 84.023438 C 81.199219 79.617188 85.773438 80.457031 92.992188 81.484375 C 100.230469 82.503906 99.539062 77.816406 99.539062 77.816406 " fill-opacity="1" fill-rule="nonzero"/></g><path fill="#fcf6f0" d="M 71.152344 550.800781 C 71.304688 550.835938 71.371094 550.933594 71.425781 551.113281 C 71.605469 551.648438 71.445312 552.378906 71.164062 552.941406 C 71.003906 553.261719 70.867188 553.4375 70.613281 553.660156 C 70.492188 553.753906 70.417969 553.753906 70.210938 553.691406 C 69.933594 553.601562 69.464844 552.976562 69.324219 552.644531 C 69.070312 552.046875 69.316406 551.460938 69.742188 551.046875 C 69.855469 551.058594 69.980469 551.042969 70.117188 550.988281 C 70.453125 550.863281 70.882812 550.742188 71.152344 550.800781 Z M 69.417969 549.085938 C 67.015625 550.1875 66.949219 553.191406 68.773438 554.847656 C 69.949219 555.921875 71.453125 555.585938 72.367188 554.390625 C 73.152344 553.371094 73.5 551.882812 73.164062 550.632812 C 72.785156 549.230469 71.46875 548.84375 70.21875 549.097656 C 69.988281 548.984375 69.710938 548.949219 69.417969 549.085938 " fill-opacity="1" fill-rule="nonzero"/><path fill="#fcf6f0" d="M 58.058594 520.988281 C 57.898438 521.304688 57.769531 521.476562 57.507812 521.695312 C 57.398438 521.792969 57.320312 521.792969 57.117188 521.730469 C 56.835938 521.640625 56.367188 521.019531 56.230469 520.6875 C 55.976562 520.089844 56.21875 519.503906 56.636719 519.09375 C 56.753906 519.105469 56.878906 519.085938 57.015625 519.039062 C 57.359375 518.914062 57.777344 518.785156 58.058594 518.851562 C 58.203125 518.886719 58.265625 518.976562 58.320312 519.160156 C 58.496094 519.691406 58.339844 520.425781 58.058594 520.988281 Z M 57.113281 517.148438 C 56.882812 517.039062 56.609375 517.007812 56.320312 517.140625 C 53.929688 518.238281 53.851562 521.230469 55.675781 522.882812 C 56.84375 523.953125 58.351562 523.621094 59.261719 522.425781 C 60.039062 521.410156 60.394531 519.925781 60.058594 518.683594 C 59.679688 517.285156 58.363281 516.898438 57.113281 517.148438 " fill-opacity="1" fill-rule="nonzero"/><path fill="#fcf6f0" d="M 45.039062 489.101562 C 44.859375 489.449219 44.710938 489.636719 44.433594 489.875 C 44.308594 489.984375 44.226562 489.984375 44.003906 489.917969 C 43.691406 489.820312 43.179688 489.136719 43.023438 488.769531 C 42.75 488.117188 43.019531 487.476562 43.480469 487.023438 C 43.605469 487.03125 43.742188 487.011719 43.886719 486.957031 C 44.261719 486.824219 44.730469 486.683594 45.027344 486.753906 C 45.1875 486.792969 45.261719 486.894531 45.328125 487.09375 C 45.515625 487.679688 45.34375 488.480469 45.039062 489.101562 Z M 46.363281 490.683594 C 47.214844 489.566406 47.597656 487.933594 47.222656 486.570312 C 46.816406 485.035156 45.378906 484.613281 44.015625 484.882812 C 43.761719 484.757812 43.457031 484.726562 43.132812 484.875 C 40.5 486.082031 40.425781 489.371094 42.414062 491.179688 C 43.710938 492.359375 45.355469 491.992188 46.363281 490.683594 " fill-opacity="1" fill-rule="nonzero"/><path fill="#fcf6f0" d="M 31.949219 457.15625 C 31.769531 457.511719 31.621094 457.707031 31.335938 457.953125 C 31.214844 458.058594 31.128906 458.058594 30.898438 457.988281 C 30.585938 457.894531 30.0625 457.191406 29.902344 456.824219 C 29.625 456.160156 29.894531 455.507812 30.367188 455.046875 C 30.492188 455.058594 30.632812 455.039062 30.785156 454.980469 C 31.167969 454.84375 31.644531 454.699219 31.949219 454.773438 C 32.109375 454.8125 32.183594 454.914062 32.25 455.121094 C 32.445312 455.710938 32.269531 456.523438 31.949219 457.15625 Z M 30.917969 452.867188 C 30.660156 452.738281 30.347656 452.707031 30.015625 452.855469 C 27.335938 454.09375 27.261719 457.429688 29.289062 459.277344 C 30.597656 460.472656 32.277344 460.101562 33.296875 458.769531 C 34.164062 457.632812 34.554688 455.972656 34.183594 454.582031 C 33.765625 453.027344 32.308594 452.597656 30.917969 452.867188 " fill-opacity="1" fill-rule="nonzero"/><path fill="#fcf6f0" d="M 14.941406 427.074219 C 14.78125 427.390625 14.640625 427.566406 14.390625 427.789062 C 14.269531 427.886719 14.195312 427.886719 13.988281 427.820312 C 13.707031 427.730469 13.230469 427.105469 13.09375 426.773438 C 12.847656 426.171875 13.089844 425.578125 13.515625 425.164062 C 13.632812 425.175781 13.757812 425.15625 13.894531 425.109375 C 14.230469 424.984375 14.660156 424.855469 14.941406 424.921875 C 15.082031 424.957031 15.144531 425.046875 15.214844 425.230469 C 15.378906 425.769531 15.21875 426.5 14.941406 427.074219 Z M 14 423.207031 C 13.765625 423.089844 13.488281 423.058594 13.195312 423.195312 C 10.777344 424.308594 10.707031 427.316406 12.542969 428.988281 C 13.726562 430.066406 15.230469 429.726562 16.15625 428.527344 C 16.941406 427.5 17.292969 426 16.949219 424.75 C 16.570312 423.347656 15.253906 422.957031 14 423.207031 " fill-opacity="1" fill-rule="nonzero"/><path fill="#fcf6f0" d="M 3.855469 299.507812 C 3.683594 299.835938 3.546875 300.019531 3.277344 300.25 C 3.152344 300.351562 3.078125 300.351562 2.863281 300.289062 C 2.574219 300.191406 2.078125 299.539062 1.9375 299.199219 C 1.675781 298.570312 1.929688 297.960938 2.375 297.527344 C 2.492188 297.539062 2.621094 297.523438 2.761719 297.472656 C 3.117188 297.339844 3.566406 297.210938 3.84375 297.273438 C 3.996094 297.304688 4.070312 297.40625 4.125 297.597656 C 4.308594 298.15625 4.144531 298.914062 3.855469 299.507812 Z M 2.867188 295.492188 C 2.628906 295.375 2.34375 295.34375 2.039062 295.484375 C -0.472656 296.636719 -0.546875 299.761719 1.359375 301.492188 C 2.585938 302.613281 4.160156 302.261719 5.113281 301.019531 C 5.925781 299.953125 6.292969 298.398438 5.9375 297.097656 C 5.539062 295.636719 4.167969 295.230469 2.867188 295.492188 " fill-opacity="1" fill-rule="nonzero"/><path fill="#fcf6f0" d="M 19.089844 268.527344 C 18.910156 268.886719 18.761719 269.074219 18.46875 269.320312 C 18.351562 269.429688 18.269531 269.429688 18.042969 269.355469 C 17.726562 269.261719 17.203125 268.566406 17.054688 268.203125 C 16.777344 267.535156 17.042969 266.886719 17.511719 266.429688 C 17.640625 266.4375 17.777344 266.421875 17.929688 266.363281 C 18.304688 266.222656 18.78125 266.085938 19.078125 266.15625 C 19.238281 266.195312 19.3125 266.296875 19.375 266.503906 C 19.574219 267.089844 19.398438 267.902344 19.089844 268.527344 Z M 21.3125 265.964844 C 20.886719 264.414062 19.433594 263.984375 18.050781 264.261719 C 17.796875 264.132812 17.484375 264.097656 17.15625 264.246094 C 14.492188 265.476562 14.417969 268.804688 16.433594 270.640625 C 17.746094 271.835938 19.410156 271.464844 20.433594 270.132812 C 21.292969 269.003906 21.6875 267.351562 21.3125 265.964844 " fill-opacity="1" fill-rule="nonzero"/><path fill="#fcf6f0" d="M 223.730469 550.351562 C 223.554688 550.707031 223.402344 550.902344 223.113281 551.144531 C 222.992188 551.25 222.90625 551.25 222.675781 551.179688 C 222.367188 551.085938 221.84375 550.390625 221.6875 550.019531 C 221.40625 549.351562 221.679688 548.699219 222.148438 548.242188 C 222.277344 548.25 222.414062 548.230469 222.5625 548.179688 C 222.945312 548.035156 223.421875 547.898438 223.730469 547.964844 C 223.886719 548.003906 223.964844 548.105469 224.03125 548.3125 C 224.21875 548.90625 224.046875 549.71875 223.730469 550.351562 Z M 225.964844 547.773438 C 225.535156 546.222656 224.089844 545.792969 222.703125 546.066406 C 222.441406 545.929688 222.125 545.902344 221.796875 546.050781 C 219.117188 547.285156 219.042969 550.625 221.066406 552.476562 C 222.375 553.667969 224.058594 553.292969 225.074219 551.960938 C 225.953125 550.828125 226.335938 549.164062 225.964844 547.773438 " fill-opacity="1" fill-rule="nonzero"/><path fill="#fcf6f0" d="M 214.316406 517.457031 C 214.148438 517.789062 214.003906 517.96875 213.734375 518.199219 C 213.613281 518.308594 213.539062 518.308594 213.328125 518.238281 C 213.027344 518.144531 212.542969 517.488281 212.394531 517.144531 C 212.132812 516.515625 212.386719 515.90625 212.824219 515.472656 C 212.945312 515.484375 213.082031 515.46875 213.222656 515.417969 C 213.578125 515.28125 214.027344 515.152344 214.316406 515.214844 C 214.464844 515.253906 214.53125 515.351562 214.59375 515.542969 C 214.773438 516.101562 214.613281 516.863281 214.316406 517.457031 Z M 213.324219 513.429688 C 213.082031 513.316406 212.792969 513.285156 212.492188 513.421875 C 209.980469 514.578125 209.90625 517.714844 211.808594 519.449219 C 213.046875 520.574219 214.625 520.222656 215.585938 518.96875 C 216.394531 517.902344 216.761719 516.34375 216.40625 515.039062 C 216.011719 513.570312 214.628906 513.167969 213.324219 513.429688 " fill-opacity="1" fill-rule="nonzero"/><path fill="#fcf6f0" d="M 199.804688 484.167969 C 199.921875 484.179688 200.039062 484.160156 200.171875 484.113281 C 200.507812 483.992188 200.929688 483.863281 201.191406 483.921875 C 201.332031 483.960938 201.40625 484.050781 201.460938 484.230469 C 201.632812 484.753906 201.472656 485.46875 201.199219 486.023438 C 201.042969 486.335938 200.910156 486.5 200.660156 486.722656 C 200.546875 486.816406 200.472656 486.816406 200.273438 486.757812 C 199.996094 486.664062 199.535156 486.054688 199.398438 485.734375 C 199.152344 485.148438 199.390625 484.574219 199.804688 484.167969 Z M 202.390625 487.441406 C 203.140625 486.441406 203.488281 484.984375 203.164062 483.761719 C 202.789062 482.386719 201.496094 482.007812 200.273438 482.257812 C 200.050781 482.148438 199.78125 482.117188 199.5 482.246094 C 197.144531 483.328125 197.070312 486.261719 198.855469 487.886719 C 200.011719 488.941406 201.480469 488.609375 202.390625 487.441406 " fill-opacity="1" fill-rule="nonzero"/><path fill="#fcf6f0" d="M 173.269531 465.640625 C 173.113281 465.953125 172.980469 466.117188 172.730469 466.339844 C 172.621094 466.429688 172.542969 466.429688 172.34375 466.371094 C 172.066406 466.28125 171.605469 465.671875 171.480469 465.347656 C 171.234375 464.765625 171.472656 464.195312 171.882812 463.792969 C 171.992188 463.800781 172.113281 463.785156 172.242188 463.734375 C 172.582031 463.613281 173 463.492188 173.261719 463.550781 C 173.40625 463.582031 173.46875 463.675781 173.53125 463.851562 C 173.699219 464.378906 173.542969 465.089844 173.269531 465.640625 Z M 172.34375 461.882812 C 172.121094 461.773438 171.855469 461.742188 171.570312 461.875 C 169.226562 462.957031 169.160156 465.882812 170.933594 467.496094 C 172.082031 468.546875 173.550781 468.222656 174.449219 467.050781 C 175.210938 466.058594 175.550781 464.605469 175.222656 463.386719 C 174.855469 462.019531 173.566406 461.640625 172.34375 461.882812 " fill-opacity="1" fill-rule="nonzero"/><path fill="#fcf6f0" d="M 144.15625 447.234375 C 143.996094 447.5625 143.855469 447.734375 143.59375 447.960938 C 143.480469 448.0625 143.398438 448.0625 143.195312 447.996094 C 142.914062 447.90625 142.425781 447.269531 142.289062 446.933594 C 142.035156 446.324219 142.28125 445.730469 142.714844 445.308594 C 142.828125 445.320312 142.953125 445.304688 143.089844 445.253906 C 143.445312 445.125 143.871094 445 144.15625 445.058594 C 144.296875 445.09375 144.371094 445.191406 144.425781 445.375 C 144.605469 445.917969 144.445312 446.664062 144.15625 447.234375 Z M 146.191406 444.890625 C 145.804688 443.464844 144.472656 443.078125 143.203125 443.328125 C 142.96875 443.210938 142.6875 443.179688 142.386719 443.3125 C 139.945312 444.4375 139.875 447.488281 141.726562 449.171875 C 142.921875 450.261719 144.457031 449.921875 145.386719 448.707031 C 146.183594 447.675781 146.535156 446.152344 146.191406 444.890625 " fill-opacity="1" fill-rule="nonzero"/><path fill="#fcf6f0" d="M 112.066406 429.179688 C 112.191406 429.1875 112.328125 429.171875 112.472656 429.117188 C 112.835938 428.984375 113.28125 428.84375 113.574219 428.914062 C 113.734375 428.949219 113.796875 429.054688 113.863281 429.242188 C 114.050781 429.8125 113.882812 430.589844 113.585938 431.183594 C 113.414062 431.527344 113.265625 431.710938 112.996094 431.949219 C 112.875 432.050781 112.789062 432.050781 112.570312 431.984375 C 112.273438 431.886719 111.769531 431.222656 111.628906 430.875 C 111.363281 430.238281 111.621094 429.613281 112.066406 429.179688 Z M 114.863281 432.722656 C 115.695312 431.640625 116.0625 430.0625 115.710938 428.734375 C 115.300781 427.246094 113.902344 426.839844 112.574219 427.101562 C 112.332031 426.984375 112.039062 426.949219 111.730469 427.089844 C 109.171875 428.265625 109.109375 431.449219 111.039062 433.210938 C 112.292969 434.351562 113.890625 433.996094 114.863281 432.722656 " fill-opacity="1" fill-rule="nonzero"/><path fill="#fcf6f0" d="M 91.890625 402.28125 C 92.015625 402.292969 92.148438 402.277344 92.292969 402.222656 C 92.660156 402.085938 93.125 401.945312 93.417969 402.015625 C 93.574219 402.054688 93.648438 402.160156 93.703125 402.355469 C 93.894531 402.929688 93.722656 403.722656 93.425781 404.332031 C 93.246094 404.679688 93.109375 404.863281 92.828125 405.101562 C 92.695312 405.207031 92.621094 405.207031 92.398438 405.140625 C 92.097656 405.042969 91.582031 404.371094 91.4375 404.011719 C 91.160156 403.363281 91.425781 402.730469 91.890625 402.28125 Z M 94.730469 405.894531 C 95.574219 404.796875 95.957031 403.183594 95.589844 401.835938 C 95.171875 400.320312 93.757812 399.902344 92.40625 400.171875 C 92.152344 400.050781 91.855469 400.015625 91.539062 400.164062 C 88.941406 401.355469 88.867188 404.601562 90.839844 406.394531 C 92.105469 407.550781 93.742188 407.191406 94.730469 405.894531 " fill-opacity="1" fill-rule="nonzero"/><path fill="#fcf6f0" d="M 74.78125 372.414062 C 74.894531 372.421875 75.019531 372.40625 75.152344 372.359375 C 75.492188 372.230469 75.910156 372.105469 76.179688 372.167969 C 76.328125 372.199219 76.398438 372.300781 76.449219 372.480469 C 76.632812 373.007812 76.472656 373.734375 76.191406 374.296875 C 76.03125 374.613281 75.898438 374.789062 75.640625 375.003906 C 75.527344 375.101562 75.453125 375.101562 75.246094 375.039062 C 74.96875 374.949219 74.5 374.332031 74.367188 374.003906 C 74.117188 373.40625 74.359375 372.824219 74.78125 372.414062 Z M 77.394531 375.730469 C 78.167969 374.71875 78.519531 373.238281 78.179688 371.996094 C 77.800781 370.605469 76.492188 370.222656 75.25 370.472656 C 75.023438 370.359375 74.75 370.328125 74.460938 370.460938 C 72.070312 371.5625 72.003906 374.539062 73.808594 376.1875 C 74.984375 377.253906 76.480469 376.917969 77.394531 375.730469 " fill-opacity="1" fill-rule="nonzero"/><path fill="#fcf6f0" d="M 59.03125 344.324219 C 58.871094 344.640625 58.730469 344.816406 58.480469 345.039062 C 58.367188 345.136719 58.28125 345.136719 58.085938 345.070312 C 57.796875 344.980469 57.332031 344.355469 57.191406 344.027344 C 56.945312 343.429688 57.1875 342.839844 57.613281 342.429688 C 57.726562 342.4375 57.851562 342.421875 57.984375 342.371094 C 58.328125 342.246094 58.753906 342.121094 59.03125 342.179688 C 59.171875 342.210938 59.234375 342.3125 59.292969 342.492188 C 59.46875 343.023438 59.308594 343.761719 59.03125 344.324219 Z M 58.085938 340.480469 C 57.855469 340.363281 57.582031 340.332031 57.292969 340.464844 C 54.882812 341.570312 54.820312 344.574219 56.640625 346.234375 C 57.816406 347.304688 59.320312 346.964844 60.242188 345.773438 C 61.023438 344.753906 61.378906 343.261719 61.027344 342.015625 C 60.648438 340.609375 59.339844 340.226562 58.085938 340.480469 " fill-opacity="1" fill-rule="nonzero"/><path fill="#fcf6f0" d="M 42.738281 311.953125 C 42.878906 311.984375 42.945312 312.078125 43 312.261719 C 43.171875 312.789062 43.019531 313.511719 42.738281 314.070312 C 42.582031 314.378906 42.449219 314.554688 42.199219 314.765625 C 42.085938 314.867188 42.011719 314.867188 41.808594 314.804688 C 41.527344 314.71875 41.0625 314.101562 40.925781 313.773438 C 40.679688 313.183594 40.917969 312.605469 41.335938 312.195312 C 41.453125 312.203125 41.574219 312.1875 41.710938 312.140625 C 42.046875 312.015625 42.46875 311.890625 42.738281 311.953125 Z M 41.808594 310.269531 C 41.578125 310.15625 41.308594 310.128906 41.023438 310.261719 C 38.648438 311.351562 38.585938 314.3125 40.375 315.949219 C 41.542969 317.003906 43.027344 316.675781 43.933594 315.492188 C 44.703125 314.488281 45.046875 313.015625 44.71875 311.789062 C 44.339844 310.402344 43.039062 310.023438 41.808594 310.269531 " fill-opacity="1" fill-rule="nonzero"/><path fill="#fcf6f0" d="M 38.664062 277.722656 C 38.78125 277.734375 38.910156 277.71875 39.050781 277.664062 C 39.40625 277.53125 39.847656 277.402344 40.132812 277.46875 C 40.28125 277.503906 40.351562 277.605469 40.414062 277.789062 C 40.59375 278.34375 40.433594 279.109375 40.132812 279.695312 C 39.972656 280.023438 39.835938 280.210938 39.566406 280.4375 C 39.441406 280.539062 39.371094 280.539062 39.152344 280.472656 C 38.867188 280.378906 38.367188 279.726562 38.230469 279.386719 C 37.96875 278.761719 38.222656 278.152344 38.664062 277.722656 Z M 41.394531 281.203125 C 42.207031 280.136719 42.574219 278.59375 42.214844 277.296875 C 41.820312 275.839844 40.453125 275.433594 39.152344 275.691406 C 38.914062 275.578125 38.632812 275.542969 38.332031 275.683594 C 35.828125 276.835938 35.753906 279.949219 37.652344 281.675781 C 38.871094 282.789062 40.441406 282.441406 41.394531 281.203125 " fill-opacity="1" fill-rule="nonzero"/><path fill="#fcf6f0" d="M 47.035156 244.210938 C 47.152344 244.226562 47.285156 244.207031 47.429688 244.152344 C 47.792969 244.019531 48.242188 243.890625 48.53125 243.953125 C 48.679688 243.984375 48.753906 244.089844 48.8125 244.28125 C 48.996094 244.84375 48.828125 245.613281 48.53125 246.207031 C 48.363281 246.546875 48.222656 246.726562 47.953125 246.960938 C 47.832031 247.0625 47.746094 247.0625 47.539062 247 C 47.242188 246.898438 46.75 246.246094 46.597656 245.898438 C 46.332031 245.265625 46.589844 244.648438 47.035156 244.210938 Z M 49.804688 247.734375 C 50.625 246.664062 50.996094 245.089844 50.640625 243.777344 C 50.242188 242.296875 48.859375 241.894531 47.539062 242.15625 C 47.296875 242.039062 47.007812 242.003906 46.703125 242.144531 C 44.167969 243.3125 44.09375 246.464844 46.007812 248.210938 C 47.253906 249.34375 48.839844 248.992188 49.804688 247.734375 " fill-opacity="1" fill-rule="nonzero"/><path fill="#fcf6f0" d="M 97.28125 560.941406 C 97.121094 561.261719 96.992188 561.433594 96.730469 561.652344 C 96.617188 561.75 96.542969 561.75 96.335938 561.683594 C 96.058594 561.597656 95.589844 560.976562 95.464844 560.652344 C 95.210938 560.054688 95.449219 559.472656 95.871094 559.066406 C 95.984375 559.078125 96.109375 559.058594 96.246094 559.007812 C 96.582031 558.882812 97 558.757812 97.273438 558.820312 C 97.421875 558.851562 97.488281 558.949219 97.546875 559.128906 C 97.710938 559.65625 97.5625 560.382812 97.28125 560.941406 Z M 96.339844 557.128906 C 96.113281 557.019531 95.84375 556.988281 95.554688 557.121094 C 93.171875 558.214844 93.109375 561.191406 94.910156 562.835938 C 96.078125 563.898438 97.574219 563.5625 98.480469 562.378906 C 99.253906 561.371094 99.597656 559.886719 99.261719 558.65625 C 98.890625 557.265625 97.585938 556.882812 96.339844 557.128906 " fill-opacity="1" fill-rule="nonzero"/><path fill="#fcf6f0" d="M 90.160156 524.863281 C 90.289062 524.875 90.425781 524.855469 90.574219 524.800781 C 90.949219 524.660156 91.425781 524.519531 91.722656 524.589844 C 91.882812 524.628906 91.957031 524.734375 92.023438 524.933594 C 92.21875 525.527344 92.042969 526.335938 91.734375 526.960938 C 91.554688 527.3125 91.40625 527.503906 91.113281 527.753906 C 90.996094 527.859375 90.914062 527.859375 90.6875 527.789062 C 90.367188 527.691406 89.859375 526.996094 89.699219 526.632812 C 89.425781 525.96875 89.695312 525.320312 90.160156 524.863281 Z M 89.089844 529.0625 C 90.386719 530.253906 92.050781 529.878906 93.070312 528.5625 C 93.929688 527.433594 94.320312 525.785156 93.945312 524.410156 C 93.527344 522.863281 92.078125 522.429688 90.699219 522.703125 C 90.445312 522.574219 90.132812 522.542969 89.808594 522.691406 C 87.148438 523.917969 87.074219 527.230469 89.089844 529.0625 " fill-opacity="1" fill-rule="nonzero"/><path fill="#fcf6f0" d="M 73.324219 494.820312 C 73.445312 494.828125 73.578125 494.8125 73.726562 494.757812 C 74.089844 494.628906 74.539062 494.492188 74.828125 494.554688 C 74.976562 494.59375 75.050781 494.691406 75.117188 494.890625 C 75.296875 495.453125 75.136719 496.230469 74.835938 496.832031 C 74.660156 497.164062 74.519531 497.355469 74.246094 497.585938 C 74.128906 497.691406 74.042969 497.691406 73.828125 497.625 C 73.53125 497.527344 73.027344 496.863281 72.882812 496.511719 C 72.617188 495.878906 72.875 495.257812 73.324219 494.820312 Z M 76.117188 498.363281 C 76.949219 497.28125 77.308594 495.707031 76.953125 494.378906 C 76.554688 492.894531 75.160156 492.480469 73.828125 492.75 C 73.582031 492.632812 73.292969 492.597656 72.988281 492.742188 C 70.4375 493.90625 70.363281 497.089844 72.292969 498.851562 C 73.542969 499.988281 75.144531 499.632812 76.117188 498.363281 " fill-opacity="1" fill-rule="nonzero"/><path fill="#fcf6f0" d="M 56.210938 464.78125 C 56.335938 464.792969 56.476562 464.773438 56.621094 464.722656 C 56.992188 464.578125 57.453125 464.445312 57.742188 464.515625 C 57.902344 464.546875 57.972656 464.652344 58.042969 464.851562 C 58.226562 465.421875 58.046875 466.21875 57.75 466.828125 C 57.574219 467.171875 57.433594 467.359375 57.152344 467.597656 C 57.03125 467.703125 56.949219 467.703125 56.722656 467.632812 C 56.425781 467.539062 55.910156 466.863281 55.761719 466.503906 C 55.496094 465.859375 55.757812 465.230469 56.210938 464.78125 Z M 59.058594 468.386719 C 59.898438 467.289062 60.28125 465.675781 59.910156 464.335938 C 59.503906 462.820312 58.085938 462.402344 56.734375 462.671875 C 56.484375 462.546875 56.1875 462.515625 55.875 462.660156 C 53.273438 463.851562 53.199219 467.09375 55.164062 468.878906 C 56.4375 470.042969 58.070312 469.679688 59.058594 468.386719 " fill-opacity="1" fill-rule="nonzero"/><path fill="#fcf6f0" d="M 40.855469 436.730469 C 40.671875 437.085938 40.523438 437.269531 40.238281 437.515625 C 40.117188 437.625 40.03125 437.625 39.808594 437.554688 C 39.496094 437.457031 38.976562 436.765625 38.828125 436.402344 C 38.550781 435.742188 38.816406 435.097656 39.285156 434.636719 C 39.414062 434.648438 39.546875 434.632812 39.695312 434.578125 C 40.078125 434.4375 40.546875 434.296875 40.84375 434.367188 C 41.003906 434.40625 41.078125 434.507812 41.140625 434.714844 C 41.335938 435.296875 41.160156 436.105469 40.855469 436.730469 Z M 42.179688 438.324219 C 43.050781 437.203125 43.429688 435.558594 43.058594 434.179688 C 42.640625 432.640625 41.195312 432.210938 39.824219 432.488281 C 39.566406 432.355469 39.257812 432.324219 38.929688 432.476562 C 36.277344 433.695312 36.199219 437 38.207031 438.832031 C 39.507812 440.015625 41.171875 439.644531 42.179688 438.324219 " fill-opacity="1" fill-rule="nonzero"/><path fill="#fcf6f0" d="M 24.019531 406.402344 C 23.871094 406.707031 23.738281 406.875 23.496094 407.082031 C 23.386719 407.175781 23.308594 407.175781 23.113281 407.113281 C 22.84375 407.035156 22.394531 406.429688 22.265625 406.117188 C 22.027344 405.542969 22.257812 404.984375 22.664062 404.585938 C 22.773438 404.597656 22.894531 404.582031 23.019531 404.535156 C 23.347656 404.414062 23.761719 404.292969 24.019531 404.351562 C 24.152344 404.386719 24.214844 404.472656 24.273438 404.652344 C 24.4375 405.15625 24.292969 405.863281 24.019531 406.402344 Z M 23.125 402.71875 C 22.902344 402.609375 22.636719 402.578125 22.359375 402.707031 C 20.0625 403.765625 19.988281 406.636719 21.730469 408.226562 C 22.863281 409.253906 24.300781 408.929688 25.179688 407.789062 C 25.925781 406.8125 26.265625 405.382812 25.9375 404.191406 C 25.570312 402.851562 24.316406 402.476562 23.125 402.71875 " fill-opacity="1" fill-rule="nonzero"/><path fill="#fcf6f0" d="M 10.128906 375.5625 C 9.972656 375.875 9.839844 376.050781 9.578125 376.261719 C 9.46875 376.363281 9.390625 376.363281 9.195312 376.300781 C 8.914062 376.214844 8.449219 375.59375 8.316406 375.265625 C 8.066406 374.675781 8.304688 374.101562 8.722656 373.691406 C 8.835938 373.699219 8.960938 373.683594 9.09375 373.636719 C 9.429688 373.507812 9.859375 373.382812 10.117188 373.445312 C 10.273438 373.476562 10.335938 373.574219 10.390625 373.753906 C 10.558594 374.277344 10.410156 375.003906 10.128906 375.5625 Z M 12.113281 373.28125 C 11.730469 371.894531 10.429688 371.511719 9.195312 371.761719 C 8.96875 371.648438 8.699219 371.621094 8.410156 371.753906 C 6.035156 372.839844 5.960938 375.800781 7.765625 377.441406 C 8.933594 378.5 10.417969 378.171875 11.328125 376.988281 C 12.089844 375.984375 12.4375 374.511719 12.113281 373.28125 " fill-opacity="1" fill-rule="nonzero"/><path fill="#fcf6f0" d="M 10.738281 339.152344 C 10.855469 339.164062 10.980469 339.144531 11.121094 339.09375 C 11.476562 338.964844 11.921875 338.832031 12.203125 338.898438 C 12.351562 338.933594 12.429688 339.03125 12.496094 339.222656 C 12.671875 339.78125 12.503906 340.542969 12.214844 341.132812 C 12.042969 341.46875 11.90625 341.644531 11.636719 341.875 C 11.527344 341.976562 11.441406 341.976562 11.222656 341.914062 C 10.9375 341.820312 10.441406 341.167969 10.300781 340.824219 C 10.039062 340.199219 10.292969 339.585938 10.738281 339.152344 Z M 13.476562 342.640625 C 14.285156 341.578125 14.652344 340.019531 14.308594 338.71875 C 13.902344 337.257812 12.53125 336.859375 11.230469 337.117188 C 10.988281 337 10.703125 336.96875 10.398438 337.109375 C 7.886719 338.257812 7.820312 341.390625 9.71875 343.125 C 10.941406 344.242188 12.511719 343.894531 13.476562 342.640625 " fill-opacity="1" fill-rule="nonzero"/><path fill="#fcf6f0" d="M 12.761719 304.664062 C 12.882812 304.675781 13.015625 304.660156 13.160156 304.605469 C 13.523438 304.472656 13.96875 304.335938 14.269531 304.40625 C 14.417969 304.4375 14.492188 304.542969 14.546875 304.738281 C 14.738281 305.300781 14.566406 306.078125 14.269531 306.679688 C 14.101562 307.019531 13.960938 307.207031 13.683594 307.4375 C 13.5625 307.546875 13.484375 307.546875 13.257812 307.476562 C 12.960938 307.386719 12.46875 306.714844 12.316406 306.367188 C 12.050781 305.730469 12.308594 305.109375 12.761719 304.664062 Z M 15.558594 308.226562 C 16.390625 307.136719 16.761719 305.550781 16.394531 304.222656 C 15.996094 302.734375 14.589844 302.324219 13.265625 302.589844 C 13.019531 302.472656 12.726562 302.4375 12.417969 302.582031 C 9.859375 303.753906 9.785156 306.945312 11.726562 308.707031 C 12.980469 309.847656 14.585938 309.492188 15.558594 308.226562 " fill-opacity="1" fill-rule="nonzero"/><path fill="#fcf6f0" d="M 202.117188 569.425781 C 201.949219 569.773438 201.800781 569.953125 201.527344 570.191406 C 201.40625 570.296875 201.320312 570.296875 201.105469 570.226562 C 200.796875 570.132812 200.292969 569.464844 200.15625 569.109375 C 199.882812 568.464844 200.140625 567.839844 200.59375 567.398438 C 200.714844 567.410156 200.851562 567.390625 200.992188 567.335938 C 201.367188 567.203125 201.816406 567.066406 202.117188 567.136719 C 202.265625 567.171875 202.339844 567.273438 202.394531 567.46875 C 202.585938 568.042969 202.414062 568.828125 202.117188 569.425781 Z M 201.109375 565.308594 C 200.863281 565.191406 200.566406 565.15625 200.257812 565.300781 C 197.679688 566.480469 197.605469 569.691406 199.558594 571.46875 C 200.820312 572.613281 202.433594 572.253906 203.414062 570.976562 C 204.246094 569.886719 204.621094 568.289062 204.265625 566.953125 C 203.851562 565.457031 202.441406 565.039062 201.109375 565.308594 " fill-opacity="1" fill-rule="nonzero"/><path fill="#fcf6f0" d="M 191.847656 536.375 C 191.691406 536.6875 191.5625 536.855469 191.308594 537.074219 C 191.195312 537.164062 191.121094 537.164062 190.925781 537.105469 C 190.644531 537.015625 190.191406 536.40625 190.046875 536.085938 C 189.808594 535.496094 190.042969 534.921875 190.460938 534.515625 C 190.574219 534.527344 190.699219 534.511719 190.832031 534.464844 C 191.160156 534.335938 191.578125 534.214844 191.847656 534.277344 C 191.992188 534.308594 192.054688 534.402344 192.113281 534.578125 C 192.277344 535.101562 192.128906 535.816406 191.847656 536.375 Z M 190.925781 532.601562 C 190.703125 532.492188 190.429688 532.460938 190.152344 532.59375 C 187.785156 533.671875 187.722656 536.617188 189.503906 538.238281 C 190.664062 539.289062 192.140625 538.960938 193.035156 537.789062 C 193.800781 536.792969 194.148438 535.328125 193.808594 534.109375 C 193.441406 532.738281 192.152344 532.359375 190.925781 532.601562 " fill-opacity="1" fill-rule="nonzero"/><path fill="#fcf6f0" d="M 164.144531 516.796875 C 163.96875 517.152344 163.816406 517.34375 163.527344 517.585938 C 163.40625 517.699219 163.324219 517.699219 163.097656 517.625 C 162.78125 517.527344 162.261719 516.832031 162.109375 516.472656 C 161.832031 515.804688 162.101562 515.15625 162.570312 514.703125 C 162.695312 514.707031 162.835938 514.691406 162.988281 514.636719 C 163.363281 514.496094 163.835938 514.359375 164.136719 514.429688 C 164.296875 514.464844 164.371094 514.566406 164.433594 514.769531 C 164.628906 515.359375 164.453125 516.171875 164.144531 516.796875 Z M 163.113281 512.535156 C 162.851562 512.40625 162.542969 512.375 162.222656 512.523438 C 159.558594 513.75 159.480469 517.070312 161.492188 518.90625 C 162.800781 520.089844 164.460938 519.722656 165.480469 518.398438 C 166.347656 517.273438 166.734375 515.621094 166.359375 514.242188 C 165.941406 512.691406 164.492188 512.261719 163.113281 512.535156 " fill-opacity="1" fill-rule="nonzero"/><path fill="#fcf6f0" d="M 135.402344 497.554688 C 135.226562 497.898438 135.082031 498.082031 134.804688 498.316406 C 134.683594 498.425781 134.601562 498.425781 134.375 498.355469 C 134.078125 498.261719 133.570312 497.589844 133.421875 497.238281 C 133.160156 496.589844 133.417969 495.960938 133.871094 495.515625 C 133.996094 495.523438 134.128906 495.507812 134.273438 495.457031 C 134.636719 495.324219 135.105469 495.179688 135.394531 495.25 C 135.554688 495.285156 135.617188 495.390625 135.683594 495.585938 C 135.867188 496.160156 135.703125 496.949219 135.402344 497.554688 Z M 134.382812 493.417969 C 134.136719 493.296875 133.839844 493.261719 133.523438 493.40625 C 130.9375 494.59375 130.871094 497.816406 132.824219 499.601562 C 134.097656 500.757812 135.710938 500.390625 136.699219 499.109375 C 137.53125 498.015625 137.914062 496.410156 137.550781 495.070312 C 137.140625 493.5625 135.722656 493.144531 134.382812 493.417969 " fill-opacity="1" fill-rule="nonzero"/><path fill="#fcf6f0" d="M 105.546875 476.84375 C 105.296875 476.234375 105.542969 475.636719 105.972656 475.21875 C 106.089844 475.226562 106.214844 475.210938 106.351562 475.164062 C 106.707031 475.03125 107.136719 474.902344 107.417969 474.964844 C 107.558594 475 107.632812 475.09375 107.6875 475.285156 C 107.863281 475.828125 107.707031 476.566406 107.417969 477.148438 C 107.257812 477.472656 107.117188 477.644531 106.855469 477.867188 C 106.746094 477.972656 106.660156 477.972656 106.453125 477.90625 C 106.167969 477.816406 105.691406 477.179688 105.546875 476.84375 Z M 108.648438 478.621094 C 109.445312 477.582031 109.796875 476.058594 109.453125 474.792969 C 109.066406 473.367188 107.734375 472.976562 106.460938 473.230469 C 106.226562 473.113281 105.945312 473.082031 105.652344 473.214844 C 103.203125 474.347656 103.128906 477.394531 104.988281 479.085938 C 106.183594 480.179688 107.714844 479.835938 108.648438 478.621094 " fill-opacity="1" fill-rule="nonzero"/><path fill="#fcf6f0" d="M 86.15625 450.390625 C 86 450.710938 85.855469 450.875 85.605469 451.097656 C 85.496094 451.1875 85.421875 451.1875 85.222656 451.128906 C 84.941406 451.039062 84.476562 450.425781 84.34375 450.097656 C 84.09375 449.507812 84.332031 448.929688 84.753906 448.523438 C 84.867188 448.53125 84.988281 448.515625 85.117188 448.464844 C 85.457031 448.339844 85.875 448.222656 86.148438 448.28125 C 86.289062 448.3125 86.351562 448.40625 86.417969 448.589844 C 86.585938 449.113281 86.425781 449.832031 86.15625 450.390625 Z M 88.128906 448.113281 C 87.746094 446.726562 86.449219 446.347656 85.222656 446.601562 C 84.992188 446.488281 84.722656 446.457031 84.441406 446.589844 C 82.066406 447.679688 82 450.636719 83.792969 452.269531 C 84.953125 453.328125 86.4375 452.996094 87.34375 451.820312 C 88.121094 450.816406 88.464844 449.339844 88.128906 448.113281 " fill-opacity="1" fill-rule="nonzero"/><path fill="#fcf6f0" d="M 66.65625 419.136719 C 66.777344 419.144531 66.90625 419.128906 67.042969 419.078125 C 67.398438 418.945312 67.839844 418.816406 68.121094 418.882812 C 68.269531 418.914062 68.332031 419.011719 68.402344 419.203125 C 68.578125 419.753906 68.417969 420.511719 68.121094 421.09375 C 67.960938 421.429688 67.820312 421.605469 67.546875 421.832031 C 67.4375 421.933594 67.351562 421.933594 67.148438 421.867188 C 66.847656 421.777344 66.363281 421.125 66.222656 420.785156 C 65.964844 420.164062 66.21875 419.5625 66.65625 419.136719 Z M 69.371094 422.589844 C 70.183594 421.539062 70.550781 419.996094 70.195312 418.707031 C 69.796875 417.253906 68.441406 416.855469 67.148438 417.117188 C 66.910156 417 66.628906 416.96875 66.324219 417.105469 C 63.84375 418.246094 63.769531 421.347656 65.644531 423.066406 C 66.867188 424.175781 68.429688 423.828125 69.371094 422.589844 " fill-opacity="1" fill-rule="nonzero"/><path fill="#fcf6f0" d="M 54.054688 386.957031 C 54.171875 386.964844 54.304688 386.949219 54.441406 386.894531 C 54.808594 386.769531 55.257812 386.628906 55.535156 386.699219 C 55.695312 386.730469 55.761719 386.835938 55.828125 387.027344 C 56.007812 387.585938 55.847656 388.355469 55.546875 388.949219 C 55.378906 389.28125 55.238281 389.464844 54.96875 389.695312 C 54.847656 389.804688 54.769531 389.804688 54.546875 389.734375 C 54.257812 389.644531 53.765625 388.984375 53.613281 388.636719 C 53.355469 388.003906 53.609375 387.390625 54.054688 386.957031 Z M 56.816406 390.464844 C 57.636719 389.398438 58.003906 387.832031 57.648438 386.523438 C 57.253906 385.046875 55.867188 384.644531 54.554688 384.910156 C 54.3125 384.789062 54.023438 384.753906 53.714844 384.894531 C 51.191406 386.058594 51.117188 389.207031 53.03125 390.953125 C 54.265625 392.074219 55.851562 391.722656 56.816406 390.464844 " fill-opacity="1" fill-rule="nonzero"/><path fill="#fcf6f0" d="M 42.984375 356.8125 C 42.804688 357.164062 42.667969 357.347656 42.386719 357.585938 C 42.253906 357.695312 42.179688 357.695312 41.957031 357.625 C 41.648438 357.523438 41.140625 356.851562 40.992188 356.488281 C 40.722656 355.839844 40.984375 355.210938 41.449219 354.757812 C 41.570312 354.769531 41.699219 354.753906 41.847656 354.699219 C 42.21875 354.5625 42.683594 354.425781 42.972656 354.492188 C 43.132812 354.527344 43.210938 354.636719 43.273438 354.832031 C 43.457031 355.410156 43.28125 356.203125 42.984375 356.8125 Z M 41.972656 352.648438 C 41.722656 352.519531 41.417969 352.492188 41.097656 352.636719 C 38.488281 353.835938 38.414062 357.082031 40.386719 358.875 C 41.664062 360.039062 43.300781 359.671875 44.289062 358.382812 C 45.140625 357.277344 45.515625 355.660156 45.148438 354.3125 C 44.742188 352.800781 43.328125 352.378906 41.972656 352.648438 " fill-opacity="1" fill-rule="nonzero"/><path fill="#fcf6f0" d="M 109.46875 525.941406 C 109.3125 526.261719 109.183594 526.425781 108.929688 526.644531 C 108.816406 526.742188 108.742188 526.742188 108.539062 526.679688 C 108.257812 526.589844 107.800781 525.976562 107.660156 525.652344 C 107.414062 525.0625 107.660156 524.488281 108.074219 524.078125 C 108.1875 524.089844 108.3125 524.074219 108.445312 524.027344 C 108.78125 523.898438 109.199219 523.773438 109.464844 523.839844 C 109.605469 523.875 109.679688 523.964844 109.734375 524.144531 C 109.902344 524.667969 109.75 525.386719 109.46875 525.941406 Z M 108.542969 522.160156 C 108.320312 522.046875 108.050781 522.015625 107.761719 522.148438 C 105.398438 523.238281 105.324219 526.183594 107.117188 527.816406 C 108.277344 528.871094 109.761719 528.542969 110.65625 527.371094 C 111.425781 526.367188 111.769531 524.898438 111.441406 523.671875 C 111.0625 522.296875 109.773438 521.914062 108.542969 522.160156 " fill-opacity="1" fill-rule="nonzero"/><path fill="#fcf6f0" d="M 114.421875 560.210938 C 114.246094 560.5625 114.105469 560.75 113.816406 560.996094 C 113.695312 561.101562 113.597656 561.101562 113.378906 561.035156 C 113.070312 560.933594 112.554688 560.246094 112.40625 559.886719 C 112.128906 559.226562 112.394531 558.578125 112.859375 558.121094 C 112.984375 558.128906 113.121094 558.113281 113.273438 558.058594 C 113.648438 557.917969 114.113281 557.78125 114.421875 557.851562 C 114.570312 557.886719 114.648438 557.992188 114.722656 558.195312 C 114.910156 558.777344 114.730469 559.585938 114.421875 560.210938 Z M 116.625 557.664062 C 116.210938 556.125 114.765625 555.699219 113.390625 555.96875 C 113.136719 555.84375 112.832031 555.8125 112.507812 555.960938 C 109.855469 557.175781 109.78125 560.480469 111.789062 562.308594 C 113.085938 563.492188 114.742188 563.117188 115.757812 561.804688 C 116.617188 560.683594 117 559.039062 116.625 557.664062 " fill-opacity="1" fill-rule="nonzero"/><path fill="#fcf6f0" d="M 161.378906 571.210938 C 161.21875 571.542969 161.082031 571.726562 160.8125 571.953125 C 160.6875 572.054688 160.613281 572.054688 160.398438 571.988281 C 160.109375 571.898438 159.625 571.246094 159.480469 570.902344 C 159.214844 570.285156 159.46875 569.671875 159.910156 569.25 C 160.03125 569.253906 160.15625 569.242188 160.296875 569.1875 C 160.652344 569.058594 161.089844 568.921875 161.378906 568.992188 C 161.527344 569.023438 161.597656 569.125 161.660156 569.316406 C 161.835938 569.867188 161.675781 570.625 161.378906 571.210938 Z M 160.40625 567.21875 C 160.167969 567.101562 159.878906 567.066406 159.578125 567.207031 C 157.085938 568.359375 157.015625 571.46875 158.90625 573.1875 C 160.128906 574.300781 161.6875 573.953125 162.640625 572.710938 C 163.445312 571.660156 163.820312 570.105469 163.464844 568.816406 C 163.066406 567.363281 161.703125 566.960938 160.40625 567.21875 " fill-opacity="1" fill-rule="nonzero"/><path fill="#fcf6f0" d="M 149.253906 538.808594 C 149.09375 539.117188 148.972656 539.277344 148.722656 539.492188 C 148.613281 539.582031 148.535156 539.582031 148.339844 539.523438 C 148.066406 539.441406 147.621094 538.839844 147.476562 538.515625 C 147.242188 537.9375 147.476562 537.371094 147.886719 536.972656 C 147.996094 536.980469 148.113281 536.96875 148.246094 536.917969 C 148.574219 536.796875 148.984375 536.675781 149.253906 536.738281 C 149.394531 536.769531 149.449219 536.859375 149.507812 537.039062 C 149.675781 537.550781 149.527344 538.261719 149.253906 538.808594 Z M 148.34375 535.089844 C 148.121094 534.980469 147.855469 534.953125 147.574219 535.082031 C 145.257812 536.148438 145.191406 539.042969 146.949219 540.644531 C 148.089844 541.679688 149.535156 541.355469 150.421875 540.199219 C 151.179688 539.21875 151.515625 537.777344 151.1875 536.574219 C 150.816406 535.222656 149.550781 534.847656 148.34375 535.089844 " fill-opacity="1" fill-rule="nonzero"/><path fill="#fcf6f0" d="M 125.34375 514.492188 C 125.164062 514.84375 125.015625 515.035156 124.734375 515.277344 C 124.605469 515.382812 124.53125 515.382812 124.304688 515.316406 C 123.988281 515.214844 123.472656 514.53125 123.324219 514.167969 C 123.046875 513.507812 123.3125 512.863281 123.777344 512.410156 C 123.902344 512.421875 124.042969 512.402344 124.195312 512.351562 C 124.570312 512.210938 125.035156 512.070312 125.332031 512.140625 C 125.492188 512.175781 125.566406 512.28125 125.628906 512.480469 C 125.820312 513.066406 125.648438 513.871094 125.34375 514.492188 Z M 124.316406 510.261719 C 124.0625 510.136719 123.75 510.101562 123.429688 510.253906 C 120.785156 511.46875 120.710938 514.761719 122.707031 516.585938 C 124.007812 517.765625 125.660156 517.394531 126.667969 516.085938 C 127.527344 514.964844 127.910156 513.324219 127.539062 511.953125 C 127.121094 510.417969 125.683594 509.992188 124.316406 510.261719 " fill-opacity="1" fill-rule="nonzero"/><path fill="#fcf6f0" d="M 100.015625 490.882812 C 99.851562 491.214844 99.710938 491.398438 99.441406 491.632812 C 99.328125 491.734375 99.242188 491.734375 99.03125 491.664062 C 98.738281 491.570312 98.246094 490.917969 98.101562 490.570312 C 97.839844 489.945312 98.09375 489.335938 98.53125 488.90625 C 98.652344 488.914062 98.785156 488.894531 98.925781 488.84375 C 99.28125 488.710938 99.730469 488.578125 100.019531 488.644531 C 100.171875 488.683594 100.234375 488.777344 100.296875 488.96875 C 100.476562 489.527344 100.320312 490.292969 100.015625 490.882812 Z M 99.035156 486.863281 C 98.796875 486.742188 98.503906 486.707031 98.199219 486.847656 C 95.683594 488.003906 95.609375 491.140625 97.515625 492.875 C 98.75 493.996094 100.328125 493.644531 101.289062 492.394531 C 102.101562 491.332031 102.464844 489.769531 102.109375 488.464844 C 101.714844 487 100.34375 486.601562 99.035156 486.863281 " fill-opacity="1" fill-rule="nonzero"/><path fill="#fcf6f0" d="M 80.476562 463.21875 C 80.308594 463.546875 80.167969 463.722656 79.90625 463.949219 C 79.796875 464.046875 79.710938 464.046875 79.503906 463.984375 C 79.214844 463.894531 78.738281 463.257812 78.601562 462.917969 C 78.339844 462.304688 78.589844 461.707031 79.023438 461.285156 C 79.140625 461.296875 79.265625 461.277344 79.402344 461.230469 C 79.757812 461.097656 80.1875 460.972656 80.46875 461.035156 C 80.617188 461.070312 80.683594 461.164062 80.738281 461.351562 C 80.914062 461.894531 80.757812 462.648438 80.476562 463.21875 Z M 79.507812 459.292969 C 79.273438 459.175781 78.992188 459.144531 78.691406 459.277344 C 76.246094 460.414062 76.167969 463.46875 78.03125 465.164062 C 79.234375 466.257812 80.765625 465.917969 81.710938 464.695312 C 82.503906 463.65625 82.859375 462.132812 82.511719 460.859375 C 82.128906 459.433594 80.785156 459.039062 79.507812 459.292969 " fill-opacity="1" fill-rule="nonzero"/><path fill="#fcf6f0" d="M 64.679688 431.3125 C 64.4375 430.726562 64.675781 430.160156 65.085938 429.761719 C 65.195312 429.765625 65.316406 429.753906 65.449219 429.703125 C 65.78125 429.578125 66.195312 429.457031 66.464844 429.519531 C 66.597656 429.550781 66.671875 429.644531 66.726562 429.820312 C 66.894531 430.335938 66.734375 431.054688 66.464844 431.605469 C 66.308594 431.910156 66.175781 432.078125 65.925781 432.292969 C 65.820312 432.390625 65.746094 432.390625 65.550781 432.332031 C 65.269531 432.242188 64.8125 431.636719 64.679688 431.3125 Z M 67.644531 433.003906 C 68.402344 432.015625 68.746094 430.566406 68.40625 429.355469 C 68.039062 427.996094 66.761719 427.617188 65.546875 427.859375 C 65.320312 427.753906 65.058594 427.722656 64.773438 427.847656 C 62.441406 428.925781 62.375 431.839844 64.136719 433.449219 C 65.289062 434.496094 66.746094 434.171875 67.644531 433.003906 " fill-opacity="1" fill-rule="nonzero"/><path fill="#fcf6f0" d="M 52.519531 400.035156 C 52.359375 400.355469 52.222656 400.527344 51.96875 400.75 C 51.847656 400.847656 51.769531 400.847656 51.566406 400.78125 C 51.289062 400.695312 50.820312 400.070312 50.679688 399.738281 C 50.429688 399.136719 50.671875 398.550781 51.097656 398.132812 C 51.210938 398.144531 51.339844 398.128906 51.472656 398.078125 C 51.8125 397.953125 52.242188 397.824219 52.511719 397.886719 C 52.660156 397.921875 52.726562 398.015625 52.78125 398.199219 C 52.957031 398.738281 52.800781 399.46875 52.519531 400.035156 Z M 54.527344 397.71875 C 54.140625 396.3125 52.828125 395.929688 51.574219 396.175781 C 51.339844 396.0625 51.066406 396.035156 50.773438 396.167969 C 48.363281 397.277344 48.296875 400.277344 50.121094 401.941406 C 51.304688 403.015625 52.8125 402.683594 53.734375 401.484375 C 54.511719 400.464844 54.867188 398.96875 54.527344 397.71875 " fill-opacity="1" fill-rule="nonzero"/><path fill="#fcf6f0" d="M 36.660156 368.171875 C 36.398438 367.539062 36.65625 366.925781 37.097656 366.496094 C 37.21875 366.503906 37.347656 366.484375 37.492188 366.429688 C 37.847656 366.304688 38.292969 366.167969 38.585938 366.234375 C 38.734375 366.269531 38.808594 366.371094 38.863281 366.5625 C 39.050781 367.121094 38.878906 367.886719 38.585938 368.484375 C 38.414062 368.8125 38.277344 369 38.003906 369.230469 C 37.882812 369.332031 37.808594 369.332031 37.59375 369.265625 C 37.296875 369.175781 36.808594 368.515625 36.660156 368.171875 Z M 39.851562 369.996094 C 40.675781 368.929688 41.039062 367.367188 40.683594 366.058594 C 40.289062 364.589844 38.910156 364.1875 37.601562 364.445312 C 37.355469 364.328125 37.066406 364.292969 36.761719 364.429688 C 34.238281 365.59375 34.164062 368.738281 36.082031 370.480469 C 37.3125 371.605469 38.890625 371.253906 39.851562 369.996094 " fill-opacity="1" fill-rule="nonzero"/><path fill="#fcf6f0" d="M 24.644531 336.921875 C 24.476562 337.265625 24.328125 337.457031 24.046875 337.695312 C 23.925781 337.804688 23.84375 337.804688 23.617188 337.734375 C 23.3125 337.640625 22.796875 336.960938 22.648438 336.601562 C 22.375 335.949219 22.640625 335.308594 23.101562 334.859375 C 23.226562 334.871094 23.367188 334.851562 23.515625 334.796875 C 23.882812 334.664062 24.347656 334.523438 24.644531 334.59375 C 24.796875 334.628906 24.871094 334.730469 24.9375 334.933594 C 25.121094 335.511719 24.953125 336.308594 24.644531 336.921875 Z M 23.636719 332.734375 C 23.386719 332.609375 23.078125 332.578125 22.757812 332.726562 C 20.144531 333.929688 20.070312 337.1875 22.046875 338.992188 C 23.328125 340.164062 24.964844 339.792969 25.960938 338.492188 C 26.8125 337.390625 27.195312 335.765625 26.824219 334.410156 C 26.414062 332.886719 24.992188 332.46875 23.636719 332.734375 " fill-opacity="1" fill-rule="nonzero"/><path fill="#301647" d="M 16.445312 393.785156 C 17.769531 393.542969 17.78125 391.59375 16.359375 391.613281 C 15.128906 391.636719 13.882812 391.605469 12.640625 391.605469 C 12.511719 390.570312 12.351562 389.542969 12.269531 388.523438 C 12.15625 387.261719 9.992188 387.449219 9.847656 388.652344 C 9.726562 389.691406 9.578125 390.730469 9.449219 391.765625 C 8.082031 391.917969 6.757812 392.214844 5.46875 392.78125 C 4.144531 393.355469 4.488281 395.085938 5.910156 395.214844 C 7.027344 395.316406 8.152344 395.246094 9.261719 395.121094 C 9.308594 396.242188 9.488281 397.363281 9.933594 398.476562 C 10.46875 399.820312 12.390625 399.132812 12.664062 398.015625 C 12.941406 396.847656 12.988281 395.675781 12.941406 394.492188 C 14.113281 394.25 15.277344 393.988281 16.445312 393.785156 " fill-opacity="1" fill-rule="nonzero"/><path fill="#301647" d="M 7.972656 349.125 C 6.746094 348.859375 5.527344 348.539062 4.292969 348.25 C 4.402344 347.191406 4.5 346.132812 4.648438 345.101562 C 4.832031 343.820312 2.636719 343.5 2.21875 344.664062 C 1.863281 345.664062 1.460938 346.65625 1.089844 347.65625 C -0.292969 347.484375 -1.6875 347.464844 -3.097656 347.71875 C -4.535156 347.984375 -4.597656 349.777344 -3.226562 350.234375 C -2.132812 350.605469 -1.015625 350.796875 0.113281 350.929688 C -0.109375 352.058594 -0.191406 353.210938 -0.0117188 354.414062 C 0.199219 355.871094 2.265625 355.640625 2.796875 354.601562 C 3.347656 353.507812 3.675781 352.355469 3.902344 351.179688 C 5.125 351.207031 6.339844 351.226562 7.542969 351.296875 C 8.917969 351.375 9.382812 349.441406 7.972656 349.125 " fill-opacity="1" fill-rule="nonzero"/><path fill="#301647" d="M -1.285156 329.371094 C -0.671875 328.953125 -0.15625 328.4375 0.3125 327.882812 C 0.957031 328.253906 1.605469 328.617188 2.21875 329.011719 C 2.929688 329.460938 3.738281 328.570312 3.085938 327.988281 C 2.515625 327.484375 1.957031 326.953125 1.398438 326.441406 C 1.761719 325.90625 2.125 325.371094 2.507812 324.867188 C 2.984375 324.242188 1.917969 323.429688 1.347656 323.925781 C 0.863281 324.351562 0.359375 324.757812 -0.136719 325.175781 C -0.820312 324.683594 -1.554688 324.257812 -2.378906 323.976562 C -3.21875 323.695312 -3.785156 324.628906 -3.199219 325.277344 C -2.722656 325.792969 -2.183594 326.226562 -1.621094 326.632812 C -2.070312 327.164062 -2.460938 327.753906 -2.722656 328.445312 C -3.039062 329.277344 -1.871094 329.769531 -1.285156 329.371094 " fill-opacity="1" fill-rule="nonzero"/><path fill="#301647" d="M 11.382812 294.058594 C 12.546875 294.921875 13.820312 295.601562 15.128906 296.214844 C 14.410156 297.480469 13.855469 298.832031 13.585938 300.351562 C 13.257812 302.175781 15.839844 302.726562 16.882812 301.683594 C 17.988281 300.59375 18.835938 299.335938 19.574219 298.011719 C 21.03125 298.527344 22.488281 299.035156 23.910156 299.597656 C 25.527344 300.230469 26.863281 298.09375 25.292969 297.164062 C 23.921875 296.351562 22.574219 295.480469 21.21875 294.648438 C 21.761719 293.417969 22.292969 292.183594 22.894531 291.003906 C 23.628906 289.542969 21.117188 288.28125 20.144531 289.515625 C 19.3125 290.578125 18.445312 291.613281 17.597656 292.65625 C 16.007812 291.914062 14.347656 291.335938 12.542969 291.082031 C 10.707031 290.832031 9.917969 292.960938 11.382812 294.058594 " fill-opacity="1" fill-rule="nonzero"/><path fill="#301647" d="M -1.359375 277.480469 C -1.347656 278.71875 -1.199219 279.964844 -0.761719 281.207031 C -0.238281 282.703125 1.917969 282.035156 2.253906 280.816406 C 2.621094 279.542969 2.722656 278.253906 2.722656 276.953125 C 4.019531 276.726562 5.320312 276.496094 6.617188 276.316406 C 8.082031 276.109375 8.1875 273.960938 6.617188 273.925781 C 5.261719 273.890625 3.886719 273.808594 2.523438 273.757812 C 2.425781 272.613281 2.292969 271.46875 2.246094 270.335938 C 2.179688 268.941406 -0.21875 269.046875 -0.425781 270.378906 C -0.601562 271.519531 -0.820312 272.652344 -1.003906 273.789062 C -2.511719 273.898438 -3.996094 274.167969 -5.441406 274.730469 C -6.917969 275.3125 -6.609375 277.234375 -5.058594 277.4375 C -3.816406 277.597656 -2.582031 277.566406 -1.359375 277.480469 " fill-opacity="1" fill-rule="nonzero"/><g clip-path="url(#id3)"><path fill="#301647" d="M 31.390625 248.734375 C 31.625 247.460938 31.613281 246.1875 31.484375 244.917969 C 32.734375 244.585938 33.976562 244.238281 35.230469 243.941406 C 36.648438 243.609375 36.539062 241.507812 35.015625 241.609375 C 33.6875 241.707031 32.34375 241.746094 31.007812 241.824219 C 30.789062 240.714844 30.570312 239.609375 30.417969 238.507812 C 30.222656 237.152344 27.886719 237.480469 27.8125 238.796875 C 27.746094 239.925781 27.636719 241.054688 27.5625 242.175781 C 26.101562 242.417969 24.683594 242.816406 23.320312 243.503906 C 21.933594 244.203125 22.402344 246.046875 23.945312 246.101562 C 25.160156 246.148438 26.363281 246.007812 27.550781 245.804688 C 27.671875 247.015625 27.933594 248.214844 28.472656 249.390625 C 29.132812 250.800781 31.167969 249.957031 31.390625 248.734375 " fill-opacity="1" fill-rule="nonzero"/></g><path fill="#301647" d="M 37.507812 327.28125 C 36.472656 326.671875 35.460938 327.742188 36.0625 328.761719 C 36.539062 329.574219 37.136719 330.296875 37.753906 330.984375 C 37.003906 331.558594 36.332031 332.226562 35.800781 333.058594 C 35.144531 334.066406 36.539062 335.039062 37.425781 334.675781 C 38.351562 334.300781 39.179688 333.769531 39.945312 333.164062 C 40.683594 333.839844 41.421875 334.503906 42.132812 335.191406 C 42.9375 335.972656 44.261719 335.039062 43.5625 334.089844 C 42.953125 333.261719 42.363281 332.410156 41.769531 331.574219 C 42.402344 330.980469 43.027344 330.378906 43.683594 329.828125 C 44.484375 329.136719 43.308594 327.765625 42.421875 328.253906 C 41.65625 328.675781 40.878906 329.074219 40.117188 329.488281 C 39.359375 328.644531 38.507812 327.886719 37.507812 327.28125 " fill-opacity="1" fill-rule="nonzero"/><path fill="#301647" d="M 26.375 314.699219 C 25.335938 314.359375 24.3125 313.976562 23.273438 313.617188 C 23.460938 312.71875 23.640625 311.804688 23.863281 310.929688 C 24.132812 309.847656 22.273438 309.371094 21.804688 310.339844 C 21.40625 311.171875 20.96875 311.996094 20.566406 312.820312 C 19.386719 312.554688 18.195312 312.414062 16.949219 312.507812 C 15.679688 312.613281 15.464844 314.152344 16.601562 314.667969 C 17.519531 315.078125 18.46875 315.34375 19.433594 315.566406 C 19.144531 316.515625 18.96875 317.5 19.015625 318.558594 C 19.070312 319.828125 20.871094 319.820312 21.421875 318.964844 C 21.996094 318.070312 22.375 317.105469 22.675781 316.109375 C 23.730469 316.242188 24.777344 316.367188 25.8125 316.535156 C 26.988281 316.71875 27.5625 315.09375 26.375 314.699219 " fill-opacity="1" fill-rule="nonzero"/><path fill="#301647" d="M 35.6875 283.835938 C 35.640625 284.5 35.566406 285.164062 35.511719 285.820312 C 34.648438 285.953125 33.808594 286.171875 33.007812 286.5625 C 32.183594 286.960938 32.433594 288.046875 33.339844 288.097656 C 34.0625 288.132812 34.769531 288.0625 35.472656 287.957031 C 35.527344 288.667969 35.667969 289.378906 35.976562 290.074219 C 36.351562 290.90625 37.554688 290.429688 37.691406 289.714844 C 37.847656 288.964844 37.851562 288.21875 37.789062 287.46875 C 38.527344 287.285156 39.261719 287.09375 39.992188 286.933594 C 40.832031 286.746094 40.792969 285.511719 39.890625 285.558594 C 39.113281 285.601562 38.320312 285.613281 37.535156 285.644531 C 37.421875 284.992188 37.300781 284.339844 37.21875 283.695312 C 37.117188 282.894531 35.742188 283.066406 35.6875 283.835938 " fill-opacity="1" fill-rule="nonzero"/><path fill="#301647" d="M 74.277344 403.457031 C 75.761719 402.863281 77.078125 402.015625 78.320312 401.050781 C 79.488281 402.128906 80.664062 403.199219 81.785156 404.300781 C 83.066406 405.554688 85.195312 404.0625 84.082031 402.546875 C 83.109375 401.226562 82.1875 399.859375 81.226562 398.519531 C 82.242188 397.570312 83.253906 396.617188 84.296875 395.734375 C 85.578125 394.644531 83.707031 392.433594 82.289062 393.21875 C 81.066406 393.890625 79.820312 394.519531 78.601562 395.175781 C 77.382812 393.824219 76.039062 392.605469 74.433594 391.644531 C 72.789062 390.664062 71.171875 392.367188 72.125 393.996094 C 72.878906 395.292969 73.824219 396.449219 74.804688 397.554688 C 73.617188 398.472656 72.546875 399.527344 71.675781 400.863281 C 70.632812 402.464844 72.855469 404.027344 74.277344 403.457031 " fill-opacity="1" fill-rule="nonzero"/><path fill="#301647" d="M 42.636719 376.867188 C 41.871094 377.636719 41.085938 378.371094 40.320312 379.121094 C 39.125 378.378906 37.863281 377.769531 36.464844 377.402344 C 35.023438 377.027344 34.195312 378.644531 35.257812 379.652344 C 36.097656 380.449219 37.050781 381.101562 38.023438 381.707031 C 37.339844 382.648438 36.773438 383.664062 36.417969 384.847656 C 35.988281 386.269531 37.976562 386.941406 38.910156 386.210938 C 39.882812 385.453125 40.675781 384.535156 41.382812 383.546875 C 42.496094 384.09375 43.601562 384.632812 44.671875 385.207031 C 45.898438 385.867188 47.148438 384.292969 45.992188 383.410156 C 44.992188 382.640625 44.003906 381.824219 43.003906 381.035156 C 43.554688 380.113281 44.085938 379.183594 44.671875 378.304688 C 45.394531 377.210938 43.527344 375.980469 42.636719 376.867188 " fill-opacity="1" fill-rule="nonzero"/><path fill="#301647" d="M 65.953125 362.625 C 64.335938 362.597656 62.691406 362.503906 61.058594 362.457031 C 60.914062 361.089844 60.765625 359.722656 60.691406 358.367188 C 60.597656 356.699219 57.734375 356.851562 57.496094 358.441406 C 57.300781 359.804688 57.050781 361.167969 56.832031 362.527344 C 55.03125 362.671875 53.265625 363.003906 51.539062 363.6875 C 49.769531 364.394531 50.15625 366.691406 52.015625 366.925781 C 53.496094 367.101562 54.976562 367.054688 56.441406 366.933594 C 56.449219 368.421875 56.648438 369.910156 57.183594 371.390625 C 57.824219 373.183594 60.394531 372.367188 60.792969 370.90625 C 61.21875 369.382812 61.339844 367.828125 61.320312 366.273438 C 62.871094 365.996094 64.421875 365.710938 65.96875 365.488281 C 67.734375 365.230469 67.828125 362.660156 65.953125 362.625 " fill-opacity="1" fill-rule="nonzero"/><path fill="#301647" d="M 25.175781 357.867188 C 23.6875 357.515625 22.199219 357.097656 20.707031 356.722656 C 20.855469 355.4375 20.996094 354.144531 21.199219 352.886719 C 21.453125 351.332031 18.78125 350.890625 18.246094 352.304688 C 17.789062 353.523438 17.277344 354.722656 16.800781 355.929688 C 15.117188 355.699219 13.429688 355.644531 11.699219 355.925781 C 9.933594 356.21875 9.8125 358.410156 11.488281 359 C 12.800781 359.464844 14.175781 359.722656 15.550781 359.910156 C 15.257812 361.285156 15.128906 362.683594 15.324219 364.160156 C 15.550781 365.933594 18.078125 365.703125 18.75 364.4375 C 19.445312 363.125 19.875 361.722656 20.171875 360.289062 C 21.65625 360.34375 23.140625 360.398438 24.609375 360.503906 C 26.277344 360.628906 26.898438 358.28125 25.175781 357.867188 " fill-opacity="1" fill-rule="nonzero"/><path fill="#301647" d="M 47.933594 416.929688 C 46.25 416.839844 44.570312 416.675781 42.878906 416.5625 C 42.792969 415.140625 42.683594 413.726562 42.667969 412.328125 C 42.632812 410.605469 39.664062 410.644531 39.371094 412.277344 C 39.105469 413.679688 38.789062 415.070312 38.515625 416.464844 C 36.660156 416.546875 34.820312 416.816406 33.007812 417.457031 C 31.15625 418.121094 31.464844 420.503906 33.378906 420.816406 C 34.894531 421.058594 36.425781 421.066406 37.9375 421.007812 C 37.902344 422.542969 38.03125 424.078125 38.527344 425.636719 C 39.125 427.503906 41.808594 426.761719 42.273438 425.269531 C 42.777344 423.710938 42.953125 422.121094 43.003906 420.511719 C 44.617188 420.285156 46.222656 420.054688 47.832031 419.882812 C 49.660156 419.6875 49.855469 417.035156 47.933594 416.929688 " fill-opacity="1" fill-rule="nonzero"/><path fill="#301647" d="M 24.226562 443.542969 C 23.078125 443.355469 21.9375 443.125 20.796875 442.929688 C 20.835938 441.953125 20.863281 440.96875 20.957031 440.015625 C 21.058594 438.832031 19.019531 438.648438 18.699219 439.742188 C 18.417969 440.683594 18.097656 441.617188 17.816406 442.546875 C 16.539062 442.46875 15.257812 442.519531 13.96875 442.832031 C 12.664062 443.148438 12.699219 444.804688 13.976562 445.152344 C 14.996094 445.425781 16.042969 445.542969 17.089844 445.613281 C 16.945312 446.65625 16.929688 447.722656 17.152344 448.820312 C 17.425781 450.144531 19.320312 449.832031 19.753906 448.839844 C 20.199219 447.808594 20.441406 446.730469 20.585938 445.636719 C 21.703125 445.601562 22.824219 445.558594 23.9375 445.558594 C 25.207031 445.554688 25.53125 443.753906 24.226562 443.542969 " fill-opacity="1" fill-rule="nonzero"/><path fill="#301647" d="M 33.035156 401.898438 C 33.765625 401.285156 34.359375 400.554688 34.882812 399.777344 C 35.753906 400.167969 36.621094 400.554688 37.472656 400.976562 C 38.433594 401.453125 39.371094 400.207031 38.441406 399.546875 C 37.652344 398.976562 36.867188 398.371094 36.074219 397.789062 C 36.472656 397.058594 36.867188 396.328125 37.296875 395.632812 C 37.816406 394.761719 36.34375 393.859375 35.679688 394.566406 C 35.109375 395.179688 34.511719 395.769531 33.941406 396.375 C 33 395.828125 32 395.386719 30.902344 395.140625 C 29.785156 394.890625 29.1875 396.15625 30.039062 396.910156 C 30.707031 397.511719 31.457031 397.988281 32.234375 398.4375 C 31.726562 399.175781 31.308594 399.984375 31.0625 400.90625 C 30.765625 402.015625 32.324219 402.492188 33.035156 401.898438 " fill-opacity="1" fill-rule="nonzero"/><path fill="#301647" d="M 63.953125 447.230469 C 62.9375 447.339844 61.898438 447.402344 60.871094 447.496094 C 60.675781 446.648438 60.480469 445.800781 60.328125 444.957031 C 60.140625 443.914062 58.359375 444.226562 58.328125 445.238281 C 58.304688 446.113281 58.246094 446.988281 58.21875 447.855469 C 57.097656 448.078125 56.011719 448.421875 54.976562 448.984375 C 53.929688 449.5625 54.34375 450.976562 55.53125 450.980469 C 56.472656 450.980469 57.398438 450.835938 58.304688 450.65625 C 58.425781 451.589844 58.65625 452.507812 59.105469 453.40625 C 59.648438 454.476562 61.199219 453.769531 61.339844 452.820312 C 61.488281 451.832031 61.453125 450.847656 61.320312 449.875 C 62.273438 449.585938 63.226562 449.285156 64.175781 449.03125 C 65.269531 448.734375 65.140625 447.113281 63.953125 447.230469 " fill-opacity="1" fill-rule="nonzero"/><path fill="#301647" d="M 40.339844 465.574219 C 39.703125 465.9375 39.0625 466.277344 38.433594 466.636719 C 37.789062 465.941406 37.070312 465.324219 36.21875 464.839844 C 35.351562 464.339844 34.527344 465.246094 35.042969 466.085938 C 35.453125 466.757812 35.949219 467.347656 36.480469 467.917969 C 35.863281 468.410156 35.324219 468.972656 34.875 469.675781 C 34.351562 470.527344 35.527344 471.316406 36.265625 471.003906 C 37.03125 470.679688 37.714844 470.21875 38.351562 469.710938 C 38.964844 470.257812 39.589844 470.796875 40.191406 471.363281 C 40.871094 472.007812 41.972656 471.207031 41.378906 470.421875 C 40.855469 469.746094 40.355469 469.039062 39.84375 468.351562 C 40.355469 467.847656 40.871094 467.335938 41.414062 466.867188 C 42.066406 466.28125 41.066406 465.152344 40.339844 465.574219 " fill-opacity="1" fill-rule="nonzero"/><path fill="#301647" d="M 77.011719 488.511719 C 78.039062 489.589844 79.851562 488.40625 78.960938 487.109375 C 78.199219 485.984375 77.460938 484.820312 76.703125 483.679688 C 77.574219 482.921875 78.433594 482.144531 79.328125 481.441406 C 80.433594 480.566406 78.925781 478.675781 77.722656 479.285156 C 76.683594 479.816406 75.628906 480.308594 74.59375 480.820312 C 73.617188 479.664062 72.539062 478.617188 71.222656 477.769531 C 69.875 476.910156 68.480469 478.285156 69.238281 479.667969 C 69.828125 480.769531 70.585938 481.757812 71.382812 482.703125 C 70.363281 483.4375 69.4375 484.289062 68.679688 485.375 C 67.765625 486.6875 69.578125 488.046875 70.773438 487.605469 C 72.023438 487.152344 73.144531 486.484375 74.203125 485.714844 C 75.152344 486.644531 76.105469 487.5625 77.011719 488.511719 " fill-opacity="1" fill-rule="nonzero"/><path fill="#301647" d="M 46.984375 507.925781 C 46.027344 508.992188 45.195312 510.175781 44.609375 511.585938 C 43.90625 513.277344 46.273438 514.359375 47.503906 513.574219 C 48.800781 512.757812 49.894531 511.734375 50.886719 510.613281 C 52.183594 511.421875 53.472656 512.222656 54.726562 513.066406 C 56.144531 514.023438 57.890625 512.253906 56.574219 511.015625 C 55.433594 509.945312 54.320312 508.816406 53.191406 507.722656 C 53.976562 506.65625 54.761719 505.582031 55.59375 504.574219 C 56.609375 503.320312 54.464844 501.570312 53.265625 502.550781 C 52.230469 503.394531 51.167969 504.203125 50.128906 505.035156 C 48.753906 503.96875 47.28125 503.058594 45.601562 502.429688 C 43.882812 501.796875 42.65625 503.675781 43.84375 505.042969 C 44.777344 506.136719 45.859375 507.058594 46.984375 507.925781 " fill-opacity="1" fill-rule="nonzero"/><path fill="#301647" d="M 103.988281 507.582031 C 103.375 507.988281 102.738281 508.363281 102.121094 508.757812 C 101.429688 508.09375 100.675781 507.503906 99.785156 507.0625 C 98.878906 506.605469 98.09375 507.566406 98.664062 508.390625 C 99.113281 509.042969 99.65625 509.613281 100.214844 510.160156 C 99.625 510.691406 99.105469 511.289062 98.691406 512.023438 C 98.210938 512.910156 99.441406 513.644531 100.171875 513.289062 C 100.925781 512.921875 101.585938 512.425781 102.207031 511.867188 C 102.859375 512.386719 103.519531 512.902344 104.15625 513.441406 C 104.878906 514.050781 105.941406 513.183594 105.296875 512.429688 C 104.738281 511.769531 104.195312 511.085938 103.632812 510.417969 C 104.132812 509.878906 104.625 509.332031 105.140625 508.832031 C 105.773438 508.207031 104.707031 507.113281 103.988281 507.582031 " fill-opacity="1" fill-rule="nonzero"/><path fill="#301647" d="M 86.136719 541.714844 C 87.933594 542.171875 89.050781 539.742188 87.269531 538.964844 C 85.726562 538.289062 84.183594 537.546875 82.640625 536.851562 C 83.054688 535.476562 83.457031 534.101562 83.933594 532.78125 C 84.511719 531.136719 81.699219 530.136719 80.839844 531.566406 C 80.101562 532.796875 79.308594 534.003906 78.5625 535.222656 C 76.777344 534.636719 74.949219 534.25 73.015625 534.21875 C 71.042969 534.191406 70.480469 536.546875 72.183594 537.507812 C 73.53125 538.273438 74.96875 538.816406 76.414062 539.296875 C 75.835938 540.726562 75.417969 542.226562 75.34375 543.867188 C 75.238281 545.839844 78.03125 546.082031 79 544.839844 C 80.019531 543.546875 80.75 542.109375 81.355469 540.613281 C 82.960938 540.960938 84.5625 541.308594 86.136719 541.714844 " fill-opacity="1" fill-rule="nonzero"/><path fill="#301647" d="M 128.265625 470.570312 C 128.714844 470.035156 129.15625 469.492188 129.628906 468.992188 C 130.199219 468.367188 129.125 467.378906 128.472656 467.851562 C 127.902344 468.265625 127.3125 468.652344 126.742188 469.0625 C 126.054688 468.453125 125.304688 467.933594 124.445312 467.546875 C 123.566406 467.160156 122.867188 468.109375 123.433594 468.867188 C 123.894531 469.46875 124.433594 469.988281 124.996094 470.476562 C 124.460938 471.007812 123.984375 471.601562 123.628906 472.324219 C 123.210938 473.191406 124.414062 473.832031 125.089844 473.460938 C 125.796875 473.074219 126.398438 472.570312 126.957031 472.019531 C 127.609375 472.484375 128.261719 472.945312 128.890625 473.421875 C 129.609375 473.976562 130.582031 473.097656 129.9375 472.40625 C 129.367188 471.804688 128.824219 471.179688 128.265625 470.570312 " fill-opacity="1" fill-rule="nonzero"/><path fill="#301647" d="M 95.453125 443.402344 C 95.574219 444.570312 95.660156 445.738281 95.769531 446.902344 C 94.328125 447.398438 92.949219 448.042969 91.675781 448.976562 C 90.378906 449.925781 91.183594 451.730469 92.761719 451.527344 C 94.015625 451.359375 95.207031 451.007812 96.394531 450.605469 C 96.714844 451.820312 97.191406 452.992188 97.945312 454.097656 C 98.851562 455.433594 100.785156 454.21875 100.800781 452.933594 C 100.824219 451.589844 100.601562 450.296875 100.246094 449.027344 C 101.46875 448.46875 102.671875 447.902344 103.898438 447.394531 C 105.289062 446.804688 104.820312 444.679688 103.277344 445.046875 C 101.945312 445.375 100.570312 445.644531 99.226562 445.953125 C 98.816406 444.855469 98.40625 443.765625 98.058594 442.671875 C 97.625 441.320312 95.300781 442.050781 95.453125 443.402344 " fill-opacity="1" fill-rule="nonzero"/><path fill="#301647" d="M 84.96875 422.171875 C 85.925781 422.582031 86.921875 422.835938 87.921875 423.035156 C 87.652344 424.035156 87.492188 425.0625 87.558594 426.15625 C 87.640625 427.480469 89.519531 427.425781 90.070312 426.527344 C 90.648438 425.582031 91.023438 424.574219 91.3125 423.53125 C 92.40625 423.640625 93.5 423.746094 94.582031 423.894531 C 95.804688 424.066406 96.367188 422.363281 95.121094 421.980469 C 94.039062 421.652344 92.957031 421.273438 91.871094 420.929688 C 92.050781 419.980469 92.210938 419.042969 92.425781 418.125 C 92.683594 416.984375 90.730469 416.535156 90.265625 417.554688 C 89.875 418.429688 89.441406 419.289062 89.035156 420.160156 C 87.808594 419.910156 86.558594 419.789062 85.269531 419.921875 C 83.953125 420.054688 83.765625 421.664062 84.96875 422.171875 " fill-opacity="1" fill-rule="nonzero"/><path fill="#301647" d="M 162.621094 485.757812 C 163.425781 485.929688 164.238281 485.976562 165.050781 485.984375 C 164.984375 486.800781 165.011719 487.621094 165.238281 488.464844 C 165.496094 489.476562 166.957031 489.152344 167.246094 488.371094 C 167.542969 487.558594 167.683594 486.714844 167.757812 485.855469 C 168.621094 485.78125 169.484375 485.703125 170.34375 485.648438 C 171.324219 485.59375 171.503906 484.191406 170.476562 484.078125 C 169.589844 483.988281 168.695312 483.855469 167.796875 483.753906 C 167.789062 482.996094 167.765625 482.234375 167.796875 481.492188 C 167.835938 480.570312 166.246094 480.511719 166.039062 481.371094 C 165.863281 482.113281 165.65625 482.847656 165.480469 483.578125 C 164.480469 483.574219 163.5 483.667969 162.519531 483.960938 C 161.519531 484.265625 161.613281 485.542969 162.621094 485.757812 " fill-opacity="1" fill-rule="nonzero"/><path fill="#301647" d="M 134.074219 471.089844 C 134.167969 473.066406 136.980469 473.042969 137.828125 471.699219 C 138.71875 470.304688 139.316406 468.796875 139.773438 467.242188 C 141.40625 467.4375 143.042969 467.625 144.652344 467.871094 C 146.492188 468.148438 147.378906 465.613281 145.515625 465.007812 C 143.902344 464.492188 142.296875 463.898438 140.679688 463.351562 C 140.960938 461.941406 141.21875 460.53125 141.566406 459.164062 C 141.988281 457.46875 139.074219 456.746094 138.351562 458.261719 C 137.738281 459.5625 137.074219 460.84375 136.4375 462.132812 C 134.597656 461.730469 132.738281 461.519531 130.808594 461.683594 C 128.824219 461.851562 128.507812 464.257812 130.292969 465.050781 C 131.710938 465.6875 133.199219 466.085938 134.699219 466.417969 C 134.261719 467.90625 134 469.441406 134.074219 471.089844 " fill-opacity="1" fill-rule="nonzero"/><path fill="#301647" d="M 112.347656 453.226562 C 113.671875 453.066406 114.957031 452.714844 116.207031 452.300781 C 116.53125 453.589844 117.019531 454.84375 117.792969 456.015625 C 118.738281 457.4375 120.804688 456.179688 120.832031 454.828125 C 120.878906 453.40625 120.652344 452.039062 120.296875 450.691406 C 121.59375 450.117188 122.882812 449.539062 124.175781 449.019531 C 125.660156 448.417969 125.191406 446.160156 123.558594 446.527344 C 122.140625 446.847656 120.6875 447.121094 119.261719 447.421875 C 118.847656 446.265625 118.417969 445.105469 118.074219 443.945312 C 117.632812 442.511719 115.167969 443.257812 115.3125 444.6875 C 115.433594 445.917969 115.496094 447.152344 115.597656 448.382812 C 114.066406 448.882812 112.601562 449.550781 111.246094 450.519531 C 109.863281 451.507812 110.6875 453.421875 112.347656 453.226562 " fill-opacity="1" fill-rule="nonzero"/><path fill="#301647" d="M 123.96875 432.988281 C 125.304688 432.507812 126.5 431.792969 127.621094 430.972656 C 128.628906 431.960938 129.648438 432.941406 130.613281 433.949219 C 131.710938 435.101562 133.644531 433.839844 132.691406 432.453125 C 131.871094 431.261719 131.097656 430.019531 130.285156 428.804688 C 131.207031 427.996094 132.136719 427.167969 133.078125 426.421875 C 134.253906 425.488281 132.65625 423.472656 131.367188 424.125 C 130.261719 424.695312 129.144531 425.210938 128.042969 425.765625 C 127.003906 424.527344 125.835938 423.414062 124.445312 422.507812 C 123.015625 421.59375 121.53125 423.058594 122.335938 424.539062 C 122.960938 425.707031 123.761719 426.761719 124.613281 427.765625 C 123.527344 428.546875 122.550781 429.453125 121.738281 430.613281 C 120.765625 432.011719 122.6875 433.457031 123.96875 432.988281 " fill-opacity="1" fill-rule="nonzero"/><path fill="#301647" d="M 189.121094 507.96875 C 190.28125 508.855469 191.5625 509.546875 192.851562 510.175781 C 192.121094 511.441406 191.550781 512.789062 191.261719 514.3125 C 190.914062 516.136719 193.488281 516.726562 194.558594 515.6875 C 195.671875 514.605469 196.546875 513.359375 197.304688 512.039062 C 198.753906 512.574219 200.210938 513.097656 201.632812 513.675781 C 203.246094 514.335938 204.609375 512.210938 203.039062 511.25 C 201.683594 510.425781 200.34375 509.53125 198.984375 508.679688 C 199.558594 507.453125 200.097656 506.222656 200.714844 505.042969 C 201.472656 503.585938 198.96875 502.292969 197.976562 503.515625 C 197.128906 504.574219 196.238281 505.601562 195.378906 506.640625 C 193.792969 505.871094 192.128906 505.273438 190.328125 504.996094 C 188.488281 504.722656 187.664062 506.847656 189.121094 507.96875 " fill-opacity="1" fill-rule="nonzero"/><path fill="#301647" d="M 143.902344 484.007812 C 143.304688 482.496094 140.707031 483.5 140.96875 485.035156 C 141.195312 486.359375 141.378906 487.691406 141.585938 489.015625 C 139.96875 489.683594 138.4375 490.523438 137.042969 491.679688 C 135.632812 492.867188 136.683594 494.875 138.472656 494.523438 C 139.894531 494.246094 141.242188 493.753906 142.566406 493.207031 C 143.023438 494.578125 143.648438 495.890625 144.59375 497.101562 C 145.734375 498.558594 147.863281 497.03125 147.789062 495.558594 C 147.714844 494.019531 147.359375 492.558594 146.871094 491.125 C 148.21875 490.402344 149.5625 489.667969 150.925781 488.996094 C 152.476562 488.226562 151.785156 485.824219 150.046875 486.351562 C 148.542969 486.820312 147.003906 487.230469 145.472656 487.679688 C 144.929688 486.453125 144.371094 485.234375 143.902344 484.007812 " fill-opacity="1" fill-rule="nonzero"/><path fill="#301647" d="M 137.148438 528.863281 C 137.960938 529.984375 139.59375 528.898438 139.578125 527.792969 C 139.570312 526.640625 139.335938 525.53125 139.007812 524.449219 C 140.035156 523.941406 141.0625 523.429688 142.101562 522.960938 C 143.28125 522.421875 142.820312 520.605469 141.511719 520.960938 C 140.363281 521.269531 139.195312 521.539062 138.046875 521.835938 C 137.671875 520.90625 137.289062 519.980469 136.964844 519.046875 C 136.558594 517.894531 134.578125 518.585938 134.738281 519.742188 C 134.878906 520.738281 134.980469 521.742188 135.105469 522.734375 C 133.878906 523.199219 132.714844 523.789062 131.636719 524.617188 C 130.554688 525.472656 131.28125 527 132.628906 526.78125 C 133.703125 526.609375 134.730469 526.277344 135.730469 525.902344 C 136.035156 526.933594 136.476562 527.9375 137.148438 528.863281 " fill-opacity="1" fill-rule="nonzero"/><path fill="#301647" d="M 141.59375 564.664062 C 141.089844 565.152344 140.570312 565.621094 140.0625 566.105469 C 139.296875 565.613281 138.476562 565.203125 137.570312 564.949219 C 136.632812 564.695312 136.085938 565.734375 136.769531 566.402344 C 137.308594 566.929688 137.914062 567.367188 138.539062 567.765625 C 138.09375 568.371094 137.710938 569.03125 137.46875 569.792969 C 137.175781 570.710938 138.464844 571.171875 139.082031 570.710938 C 139.714844 570.21875 140.242188 569.632812 140.71875 568.996094 C 141.4375 569.367188 142.144531 569.722656 142.839844 570.109375 C 143.632812 570.550781 144.460938 569.539062 143.714844 568.949219 C 143.070312 568.445312 142.4375 567.898438 141.789062 567.378906 C 142.15625 566.785156 142.519531 566.179688 142.902344 565.613281 C 143.378906 564.910156 142.175781 564.089844 141.59375 564.664062 " fill-opacity="1" fill-rule="nonzero"/><path fill="#301647" d="M 120.886719 497.023438 C 120.046875 496.34375 119.222656 495.625 118.382812 494.933594 C 118.867188 494.152344 119.355469 493.375 119.875 492.636719 C 120.511719 491.722656 118.941406 490.625 118.167969 491.359375 C 117.503906 492 116.8125 492.605469 116.136719 493.234375 C 115.128906 492.574219 114.074219 492.019531 112.882812 491.675781 C 111.667969 491.320312 110.921875 492.679688 111.804688 493.558594 C 112.507812 494.261719 113.300781 494.847656 114.113281 495.386719 C 113.515625 496.167969 113 497.027344 112.675781 498.027344 C 112.273438 499.230469 113.953125 499.851562 114.765625 499.246094 C 115.617188 498.625 116.316406 497.855469 116.945312 497.039062 C 117.878906 497.527344 118.804688 498.015625 119.707031 498.535156 C 120.734375 499.117188 121.847656 497.8125 120.886719 497.023438 " fill-opacity="1" fill-rule="nonzero"/><path fill="#301647" d="M 126.914062 541.824219 C 126.109375 541.832031 125.296875 541.8125 124.492188 541.8125 C 124.398438 541.136719 124.304688 540.464844 124.25 539.800781 C 124.175781 538.972656 122.765625 539.097656 122.671875 539.886719 C 122.597656 540.558594 122.492188 541.234375 122.402344 541.90625 C 121.519531 542.003906 120.652344 542.195312 119.8125 542.566406 C 118.953125 542.9375 119.167969 544.066406 120.09375 544.148438 C 120.832031 544.21875 121.558594 544.171875 122.277344 544.09375 C 122.304688 544.824219 122.425781 545.558594 122.707031 546.28125 C 123.054688 547.152344 124.304688 546.714844 124.484375 545.988281 C 124.671875 545.226562 124.707031 544.453125 124.679688 543.691406 C 125.433594 543.53125 126.203125 543.367188 126.960938 543.234375 C 127.828125 543.078125 127.835938 541.804688 126.914062 541.824219 " fill-opacity="1" fill-rule="nonzero"/><path fill="#301647" d="M 105.632812 541.609375 C 106.882812 541.148438 106.558594 539.246094 105.175781 539.507812 C 103.976562 539.742188 102.761719 539.929688 101.558594 540.152344 C 101.242188 539.164062 100.917969 538.1875 100.652344 537.207031 C 100.328125 535.996094 98.246094 536.546875 98.320312 537.753906 C 98.382812 538.789062 98.410156 539.828125 98.46875 540.855469 C 97.171875 541.238281 95.929688 541.757812 94.769531 542.53125 C 93.585938 543.324219 94.21875 544.953125 95.621094 544.828125 C 96.730469 544.730469 97.816406 544.464844 98.871094 544.152344 C 99.113281 545.242188 99.484375 546.300781 100.113281 547.308594 C 100.859375 548.523438 102.617188 547.523438 102.683594 546.382812 C 102.757812 545.203125 102.597656 544.050781 102.34375 542.910156 C 103.4375 542.464844 104.527344 542.011719 105.632812 541.609375 " fill-opacity="1" fill-rule="nonzero"/><path fill="#301647" d="M 86.183594 567.363281 C 86.640625 566.566406 86.921875 565.71875 87.136719 564.855469 C 88.046875 564.914062 88.953125 564.976562 89.847656 565.066406 C 90.867188 565.171875 91.285156 563.75 90.242188 563.46875 C 89.332031 563.226562 88.4375 562.941406 87.53125 562.6875 C 87.640625 561.898438 87.753906 561.113281 87.902344 560.351562 C 88.089844 559.40625 86.464844 559.082031 86.109375 559.941406 C 85.800781 560.671875 85.472656 561.402344 85.15625 562.128906 C 84.136719 561.957031 83.105469 561.886719 82.035156 562.03125 C 80.953125 562.179688 80.839844 563.511719 81.851562 563.90625 C 82.652344 564.214844 83.484375 564.394531 84.316406 564.535156 C 84.121094 565.367188 84.007812 566.222656 84.101562 567.128906 C 84.207031 568.21875 85.753906 568.125 86.183594 567.363281 " fill-opacity="1" fill-rule="nonzero"/><path fill="#301647" d="M 51.007812 569.023438 C 51.167969 568.019531 51.117188 567.023438 50.988281 566.027344 C 51.960938 565.730469 52.921875 565.425781 53.890625 565.164062 C 55.003906 564.867188 54.867188 563.21875 53.667969 563.339844 C 52.632812 563.445312 51.574219 563.515625 50.53125 563.609375 C 50.332031 562.742188 50.125 561.878906 49.976562 561.023438 C 49.792969 559.964844 47.96875 560.28125 47.941406 561.316406 C 47.914062 562.199219 47.855469 563.089844 47.832031 563.976562 C 46.691406 564.207031 45.589844 564.554688 44.53125 565.125 C 43.46875 565.710938 43.886719 567.152344 45.09375 567.152344 C 46.054688 567.15625 46.988281 567.011719 47.925781 566.824219 C 48.046875 567.769531 48.28125 568.710938 48.738281 569.617188 C 49.289062 570.710938 50.867188 569.992188 51.007812 569.023438 " fill-opacity="1" fill-rule="nonzero"/><path fill="#301647" d="M 171.925781 544.703125 C 170.523438 544.589844 169.113281 544.414062 167.714844 544.277344 C 167.667969 543.089844 167.609375 541.902344 167.628906 540.730469 C 167.644531 539.285156 165.164062 539.25 164.875 540.613281 C 164.617188 541.773438 164.320312 542.9375 164.0625 544.097656 C 162.5 544.113281 160.960938 544.300781 159.429688 544.796875 C 157.871094 545.304688 158.066406 547.308594 159.652344 547.609375 C 160.921875 547.855469 162.191406 547.894531 163.472656 547.882812 C 163.398438 549.164062 163.472656 550.457031 163.855469 551.769531 C 164.304688 553.347656 166.5625 552.789062 166.992188 551.550781 C 167.449219 550.257812 167.640625 548.933594 167.714844 547.589844 C 169.066406 547.441406 170.421875 547.28125 171.777344 547.179688 C 173.308594 547.054688 173.542969 544.84375 171.925781 544.703125 " fill-opacity="1" fill-rule="nonzero"/><path fill="#301647" d="M 154.253906 552.214844 C 152.90625 552.59375 151.535156 552.910156 150.183594 553.273438 C 149.730469 552.175781 149.265625 551.085938 148.882812 549.988281 C 148.394531 548.632812 146.070312 549.457031 146.265625 550.824219 C 146.433594 552 146.554688 553.175781 146.714844 554.351562 C 145.265625 554.90625 143.882812 555.609375 142.632812 556.59375 C 141.355469 557.605469 142.222656 559.40625 143.820312 559.140625 C 145.082031 558.933594 146.285156 558.535156 147.472656 558.082031 C 147.832031 559.304688 148.359375 560.480469 149.164062 561.574219 C 150.121094 562.890625 152.046875 561.597656 152.019531 560.289062 C 151.988281 558.933594 151.710938 557.628906 151.320312 556.351562 C 152.535156 555.746094 153.738281 555.132812 154.964844 554.570312 C 156.355469 553.933594 155.800781 551.785156 154.253906 552.214844 " fill-opacity="1" fill-rule="nonzero"/><path fill="#301647" d="M 177.464844 521.777344 C 175.859375 521.195312 174.253906 520.542969 172.644531 519.925781 C 172.980469 518.515625 173.296875 517.105469 173.691406 515.734375 C 174.175781 514.035156 171.261719 513.199219 170.488281 514.703125 C 169.816406 515.996094 169.09375 517.261719 168.414062 518.546875 C 166.574219 518.070312 164.695312 517.789062 162.734375 517.882812 C 160.734375 517.976562 160.328125 520.398438 162.101562 521.265625 C 163.511719 521.957031 164.996094 522.417969 166.5 522.804688 C 166.003906 524.289062 165.675781 525.835938 165.695312 527.496094 C 165.726562 529.496094 168.566406 529.570312 169.472656 528.25 C 170.414062 526.875 171.066406 525.378906 171.59375 523.820312 C 173.234375 524.074219 174.871094 524.328125 176.496094 524.636719 C 178.335938 524.988281 179.324219 522.457031 177.464844 521.777344 " fill-opacity="1" fill-rule="nonzero"/><path fill="#301647" d="M 204.863281 542.285156 C 203.40625 541.609375 201.957031 540.863281 200.5 540.15625 C 200.929688 538.863281 201.339844 537.5625 201.828125 536.3125 C 202.414062 534.761719 199.753906 533.742188 198.902344 535.089844 C 198.164062 536.242188 197.390625 537.371094 196.644531 538.515625 C 194.960938 537.921875 193.222656 537.507812 191.382812 537.433594 C 189.496094 537.367188 188.917969 539.59375 190.507812 540.554688 C 191.773438 541.3125 193.132812 541.871094 194.503906 542.351562 C 193.914062 543.707031 193.488281 545.128906 193.371094 546.6875 C 193.230469 548.5625 195.882812 548.863281 196.839844 547.699219 C 197.839844 546.488281 198.578125 545.132812 199.183594 543.722656 C 200.703125 544.09375 202.230469 544.460938 203.726562 544.878906 C 205.410156 545.359375 206.542969 543.074219 204.863281 542.285156 " fill-opacity="1" fill-rule="nonzero"/><path fill="#301647" d="M 188.476562 574.648438 C 188.039062 573.988281 187.617188 573.308594 187.179688 572.640625 C 187.683594 572.207031 188.195312 571.753906 188.722656 571.351562 C 189.355469 570.847656 188.496094 569.746094 187.796875 570.09375 C 187.1875 570.394531 186.574219 570.675781 185.964844 570.972656 C 185.40625 570.292969 184.78125 569.675781 184.011719 569.179688 C 183.238281 568.671875 182.425781 569.46875 182.855469 570.273438 C 183.191406 570.917969 183.628906 571.496094 184.085938 572.050781 C 183.488281 572.472656 182.945312 572.964844 182.5 573.59375 C 181.964844 574.351562 183.015625 575.152344 183.714844 574.898438 C 184.441406 574.644531 185.09375 574.253906 185.714844 573.8125 C 186.265625 574.355469 186.816406 574.898438 187.335938 575.453125 C 187.9375 576.085938 188.992188 575.40625 188.476562 574.648438 " fill-opacity="1" fill-rule="nonzero"/><path fill="#301647" d="M 229.316406 501.503906 C 228.394531 500.496094 227.503906 499.441406 226.589844 498.417969 C 227.34375 497.535156 228.09375 496.648438 228.886719 495.820312 C 229.855469 494.792969 228.101562 493.132812 226.988281 493.90625 C 226.039062 494.578125 225.058594 495.207031 224.09375 495.863281 C 222.964844 494.851562 221.730469 493.960938 220.3125 493.300781 C 218.855469 492.636719 217.667969 494.199219 218.613281 495.472656 C 219.347656 496.476562 220.238281 497.355469 221.160156 498.1875 C 220.253906 499.054688 219.453125 500.035156 218.855469 501.222656 C 218.125 502.648438 220.117188 503.75 221.246094 503.148438 C 222.421875 502.519531 223.449219 501.695312 224.394531 500.78125 C 225.457031 501.574219 226.53125 502.351562 227.570312 503.167969 C 228.75 504.097656 230.382812 502.671875 229.316406 501.503906 " fill-opacity="1" fill-rule="nonzero"/><path fill="#301647" d="M 184.304688 494.515625 C 185.339844 494.273438 185.265625 492.734375 184.144531 492.808594 C 183.179688 492.878906 182.199219 492.910156 181.21875 492.96875 C 181.058594 492.15625 180.902344 491.351562 180.789062 490.550781 C 180.652344 489.5625 178.941406 489.796875 178.886719 490.757812 C 178.835938 491.582031 178.761719 492.40625 178.707031 493.226562 C 177.640625 493.40625 176.605469 493.699219 175.613281 494.199219 C 174.597656 494.710938 174.941406 496.058594 176.066406 496.09375 C 176.960938 496.128906 177.835938 496.023438 178.707031 495.875 C 178.792969 496.761719 178.976562 497.640625 179.378906 498.496094 C 179.855469 499.527344 181.339844 498.90625 181.507812 498.007812 C 181.679688 497.085938 181.667969 496.15625 181.574219 495.230469 C 182.492188 494.980469 183.398438 494.730469 184.304688 494.515625 " fill-opacity="1" fill-rule="nonzero"/></svg>