<svg xmlns="http://www.w3.org/2000/svg" xmlns:xlink="http://www.w3.org/1999/xlink" width="360" zoomAndPan="magnify" viewBox="0 0 270 570" height="760" preserveAspectRatio="xMidYMid meet" version="1.0"><defs><g/><clipPath id="id1"><path d="M 0 288 L 270 288 L 270 570 L 0 570 Z M 0 288 " clip-rule="nonzero"/></clipPath><clipPath id="id2"><path d="M 186.25 197.34375 L 394.949219 444.195312 L 139.503906 660.15625 L -69.191406 413.304688 Z M 186.25 197.34375 " clip-rule="nonzero"/></clipPath><clipPath id="id3"><path d="M 186.25 197.34375 L 394.949219 444.195312 L 139.503906 660.15625 L -69.191406 413.304688 Z M 186.25 197.34375 " clip-rule="nonzero"/></clipPath><clipPath id="id4"><path d="M 67 213.476562 L 201 213.476562 L 201 570 L 67 570 Z M 67 213.476562 " clip-rule="nonzero"/></clipPath></defs><rect x="-27" width="324" fill="#ffffff" y="-57" height="684" fill-opacity="1"/><rect x="-27" width="324" fill="#012940" y="-57" height="684" fill-opacity="1"/><rect x="-27" width="324" fill="#ffffff" y="-57" height="684" fill-opacity="1"/><rect x="-27" width="324" fill="#012940" y="-57" height="684" fill-opacity="1"/><g clip-path="url(#id1)"><g clip-path="url(#id2)"><g clip-path="url(#id3)"><path fill="#ffcc99" d="M 272.828125 544.738281 C 294.09375 518.484375 304.449219 485.601562 310.59375 452.789062 C 315.988281 423.835938 317.324219 393.785156 310.007812 365.035156 C 306.5 351.101562 301.515625 336.238281 292.804688 324.699219 C 284.136719 313.210938 272.589844 303.980469 259.664062 297.660156 C 246.613281 291.183594 231.84375 287.726562 217.324219 288.070312 C 200.871094 288.390625 185.398438 293.890625 169.910156 299.058594 C 134.75 310.839844 97.605469 314.710938 62.273438 326.289062 C 31.019531 336.507812 0.59375 354.304688 -15.324219 384.3125 C -30.46875 412.96875 -25.464844 445.675781 -9.917969 473.128906 C 7.945312 504.460938 37.097656 527.8125 68.8125 544.207031 C 84.691406 552.476562 101.363281 559.117188 118.289062 565.019531 C 135.03125 570.8125 151.972656 576.527344 169.1875 580.613281 C 184.785156 584.328125 200.671875 585.707031 216.339844 581.78125 C 231.238281 578.070312 245.125 570.597656 256.945312 560.777344 C 262.832031 555.890625 268.054688 550.429688 272.828125 544.738281 " fill-opacity="1" fill-rule="nonzero"/></g></g></g><path fill="#f27406" d="M -45.753906 445.253906 C -78.011719 485.9375 -89.679688 555.84375 -45.753906 601.375 C -1.828125 646.910156 71.078125 629.023438 122.546875 637.148438 C 174.011719 645.269531 237.476562 645.269531 250.457031 573.726562 C 263.503906 502.183594 232.558594 484.300781 144.640625 433.851562 C 56.71875 383.40625 16.136719 367.160156 -45.753906 445.253906 Z M -45.753906 445.253906 " fill-opacity="1" fill-rule="nonzero"/><path fill="#e6e6e6" d="M 80.300781 217.425781 C 84.949219 214.226562 95.011719 220.832031 102.78125 232.175781 C 104.140625 234.160156 105.339844 236.160156 106.367188 238.125 C 102.988281 238.152344 99.582031 239.152344 96.589844 241.214844 C 93.597656 243.273438 91.441406 246.097656 90.203125 249.25 C 88.742188 247.582031 87.3125 245.742188 85.953125 243.757812 C 78.1875 232.414062 75.65625 220.621094 80.300781 217.425781 " fill-opacity="1" fill-rule="evenodd"/><path fill="#cccccc" d="M 84.46875 223.507812 C 87.050781 221.730469 92.640625 225.398438 96.957031 231.703125 C 98.695312 234.242188 99.964844 236.828125 100.6875 239.125 C 99.269531 239.621094 97.890625 240.320312 96.589844 241.214844 C 95.289062 242.109375 94.148438 243.148438 93.171875 244.292969 C 91.296875 242.789062 89.347656 240.679688 87.605469 238.132812 C 83.292969 231.832031 81.886719 225.289062 84.46875 223.507812 " fill-opacity="1" fill-rule="evenodd"/><path fill="#e6e6e6" d="M 186.839844 217.425781 C 182.191406 214.226562 172.128906 220.832031 164.363281 232.175781 C 163.003906 234.160156 161.804688 236.160156 160.777344 238.125 C 164.152344 238.152344 167.558594 239.152344 170.550781 241.214844 C 173.546875 243.273438 175.699219 246.097656 176.9375 249.25 C 178.398438 247.582031 179.828125 245.742188 181.1875 243.757812 C 188.957031 232.414062 191.488281 220.621094 186.839844 217.425781 " fill-opacity="1" fill-rule="evenodd"/><path fill="#cccccc" d="M 182.675781 223.507812 C 180.09375 221.730469 174.503906 225.398438 170.1875 231.703125 C 168.445312 234.242188 167.179688 236.828125 166.457031 239.125 C 167.875 239.621094 169.253906 240.320312 170.550781 241.214844 C 171.851562 242.109375 172.992188 243.148438 173.96875 244.292969 C 175.84375 242.789062 177.792969 240.679688 179.535156 238.132812 C 183.847656 231.832031 185.253906 225.289062 182.675781 223.507812 " fill-opacity="1" fill-rule="evenodd"/><g clip-path="url(#id4)"><path fill="#ffffff" d="M 192.675781 409.117188 C 196.941406 407.628906 200.003906 403.566406 200.003906 398.78125 C 200.003906 394 196.941406 389.9375 192.675781 388.449219 C 196.941406 386.964844 200.003906 382.902344 200.003906 378.121094 C 200.003906 373.335938 196.941406 369.273438 192.675781 367.789062 C 196.941406 366.304688 200.003906 362.238281 200.003906 357.457031 C 200.003906 352.671875 196.941406 348.609375 192.675781 347.121094 C 196.941406 345.636719 200.003906 341.574219 200.003906 336.792969 C 200.003906 332.007812 196.941406 327.945312 192.675781 326.460938 C 196.941406 324.976562 200.003906 320.910156 200.003906 316.128906 C 200.003906 311.347656 196.941406 307.28125 192.675781 305.796875 C 196.941406 304.3125 200.003906 300.246094 200.003906 295.464844 C 200.003906 290.636719 196.882812 286.542969 192.558594 285.09375 C 196.75 283.566406 199.746094 279.539062 199.746094 274.808594 C 199.746094 269.019531 195.257812 264.28125 189.578125 263.898438 C 192.277344 261.910156 194.03125 258.703125 194.03125 255.082031 C 194.03125 249.042969 189.148438 244.152344 183.128906 244.152344 C 181.992188 244.152344 180.902344 244.320312 179.875 244.640625 C 180.957031 242.949219 181.582031 240.929688 181.582031 238.761719 C 181.582031 232.722656 176.699219 227.828125 170.679688 227.828125 C 168.113281 227.828125 165.753906 228.71875 163.890625 230.203125 C 164.03125 229.503906 164.109375 228.777344 164.109375 228.03125 C 164.109375 221.992188 159.226562 217.101562 153.203125 217.101562 C 149.179688 217.101562 145.671875 219.28125 143.777344 222.527344 C 142.886719 217.386719 138.414062 213.476562 133.035156 213.476562 C 127.582031 213.476562 123.066406 217.488281 122.257812 222.726562 C 120.339844 219.582031 116.886719 217.480469 112.9375 217.480469 C 106.917969 217.480469 102.03125 222.375 102.03125 228.414062 C 102.03125 229.226562 102.121094 230.019531 102.289062 230.78125 C 100.453125 229.371094 98.160156 228.53125 95.667969 228.53125 C 89.644531 228.53125 84.761719 233.429688 84.761719 239.46875 C 84.761719 241.699219 85.429688 243.777344 86.578125 245.511719 C 85.601562 245.222656 84.570312 245.070312 83.5 245.070312 C 77.476562 245.070312 72.59375 249.964844 72.59375 256 C 72.59375 259.699219 74.425781 262.964844 77.226562 264.945312 C 71.648438 265.429688 67.273438 270.121094 67.273438 275.839844 C 67.273438 280.585938 70.289062 284.625 74.503906 286.136719 C 70.195312 287.597656 67.09375 291.683594 67.09375 296.496094 C 67.09375 301.28125 70.15625 305.34375 74.421875 306.828125 C 70.15625 308.3125 67.09375 312.378906 67.09375 317.160156 C 67.09375 321.941406 70.15625 326.007812 74.421875 327.492188 C 70.15625 328.976562 67.09375 333.042969 67.09375 337.824219 C 67.09375 342.605469 70.15625 346.671875 74.421875 348.15625 C 70.15625 349.640625 67.09375 353.707031 67.09375 358.488281 C 67.09375 363.269531 70.15625 367.335938 74.421875 368.820312 C 70.15625 370.304688 67.09375 374.371094 67.09375 379.152344 C 67.09375 383.933594 70.15625 388 74.421875 389.484375 C 70.15625 390.96875 67.09375 395.03125 67.09375 399.816406 C 67.09375 404.597656 70.15625 408.664062 74.421875 410.148438 C 74.042969 410.277344 73.675781 410.433594 73.316406 410.601562 L 73.300781 410.601562 C 69.628906 412.363281 67.09375 416.117188 67.09375 420.472656 L 67.09375 420.480469 C 67.09375 424.832031 69.628906 428.589844 73.300781 430.347656 L 73.316406 430.347656 C 73.675781 430.519531 74.042969 430.671875 74.421875 430.804688 C 70.15625 432.289062 67.09375 436.355469 67.09375 441.136719 C 67.09375 445.917969 70.15625 449.980469 74.421875 451.46875 C 70.15625 452.953125 67.09375 457.015625 67.09375 461.796875 C 67.09375 466.582031 70.15625 470.644531 74.421875 472.128906 C 70.15625 473.613281 67.09375 477.679688 67.09375 482.460938 C 67.09375 487.246094 70.15625 491.308594 74.421875 492.792969 C 70.15625 494.277344 67.09375 498.34375 67.09375 503.125 C 67.09375 507.910156 70.15625 511.972656 74.421875 513.457031 C 70.15625 514.941406 67.09375 519.007812 67.09375 523.789062 C 67.09375 528.570312 70.15625 532.636719 74.421875 534.121094 C 70.15625 535.605469 67.09375 539.671875 67.09375 544.453125 C 67.09375 549.269531 70.195312 553.351562 74.503906 554.8125 C 70.289062 556.328125 67.273438 560.367188 67.273438 565.113281 C 67.273438 570.828125 71.648438 575.519531 77.226562 576.003906 C 74.425781 577.984375 72.59375 581.25 72.59375 584.949219 C 72.59375 590.988281 77.476562 595.878906 83.5 595.878906 C 84.570312 595.878906 85.601562 595.730469 86.578125 595.441406 C 85.429688 597.175781 84.761719 599.25 84.761719 601.484375 C 84.761719 607.519531 89.644531 612.414062 95.667969 612.414062 C 98.160156 612.414062 100.453125 611.582031 102.289062 610.167969 C 102.121094 610.933594 102.03125 611.722656 102.03125 612.535156 C 102.03125 618.574219 106.917969 623.46875 112.9375 623.46875 C 116.886719 623.46875 120.339844 621.367188 122.257812 618.222656 C 123.066406 623.460938 127.582031 627.472656 133.035156 627.472656 C 138.414062 627.472656 142.886719 623.566406 143.777344 618.421875 C 145.671875 621.671875 149.179688 623.851562 153.203125 623.851562 C 159.226562 623.851562 164.109375 618.957031 164.109375 612.917969 C 164.109375 612.175781 164.03125 611.445312 163.890625 610.75 C 165.753906 612.230469 168.113281 613.125 170.679688 613.125 C 176.699219 613.125 181.582031 608.226562 181.582031 602.1875 C 181.582031 600.023438 180.957031 598.007812 179.875 596.304688 C 180.902344 596.628906 181.992188 596.804688 183.128906 596.804688 C 189.148438 596.804688 194.03125 591.90625 194.03125 585.867188 C 194.03125 582.25 192.277344 579.039062 189.578125 577.050781 C 195.257812 576.667969 199.746094 571.929688 199.746094 566.140625 C 199.746094 561.410156 196.75 557.382812 192.558594 555.859375 C 196.882812 554.410156 200.003906 550.3125 200.003906 545.484375 C 200.003906 540.703125 196.941406 536.636719 192.675781 535.152344 C 196.941406 533.667969 200.003906 529.605469 200.003906 524.820312 C 200.003906 520.039062 196.941406 515.976562 192.675781 514.492188 C 196.941406 513.003906 200.003906 508.941406 200.003906 504.160156 C 200.003906 499.378906 196.941406 495.3125 192.675781 493.828125 C 196.941406 492.34375 200.003906 488.277344 200.003906 483.496094 C 200.003906 478.710938 196.941406 474.648438 192.675781 473.164062 C 196.941406 471.675781 200.003906 467.613281 200.003906 462.832031 C 200.003906 458.050781 196.941406 453.984375 192.675781 452.5 C 196.941406 451.015625 200.003906 446.949219 200.003906 442.167969 C 200.003906 437.382812 196.941406 433.320312 192.675781 431.835938 C 202.507812 428.414062 202.507812 412.535156 192.675781 409.117188 " fill-opacity="1" fill-rule="evenodd"/></g><path fill="#e6e6e6" d="M 159.324219 270.125 C 158.203125 272.082031 157.5625 274.351562 157.5625 276.773438 C 157.5625 282.582031 161.257812 287.523438 166.421875 289.367188 C 161.742188 291.441406 158.480469 296.132812 158.480469 301.589844 C 158.480469 304.367188 159.324219 306.949219 160.773438 309.082031 C 159.847656 308.882812 158.886719 308.773438 157.902344 308.773438 C 150.710938 308.773438 144.851562 314.484375 144.585938 321.628906 C 142.144531 318.84375 138.5625 317.085938 134.574219 317.085938 C 130.34375 317.085938 126.578125 319.058594 124.132812 322.140625 C 123.542969 315.308594 117.824219 309.953125 110.859375 309.953125 C 109.640625 309.953125 108.464844 310.117188 107.34375 310.421875 C 108.570312 308.402344 109.277344 306.027344 109.277344 303.488281 C 109.277344 297.792969 105.726562 292.933594 100.722656 291.007812 C 105.558594 289.003906 108.960938 284.226562 108.960938 278.65625 C 108.960938 276 108.183594 273.519531 106.851562 271.4375 C 107.875 271.691406 108.945312 271.828125 110.050781 271.828125 C 117.132812 271.828125 122.925781 266.285156 123.351562 259.292969 C 125.796875 262.226562 129.46875 264.09375 133.582031 264.09375 C 137.042969 264.09375 140.195312 262.769531 142.5625 260.601562 C 144.019531 266.398438 149.253906 270.691406 155.488281 270.691406 C 156.824219 270.691406 158.109375 270.492188 159.324219 270.125 " fill-opacity="1" fill-rule="evenodd"/><path fill="#000000" d="M 113.046875 282.613281 C 113.046875 282.035156 113.511719 281.570312 114.089844 281.570312 C 114.667969 281.570312 115.132812 282.035156 115.132812 282.613281 C 115.132812 284.285156 115.4375 285.78125 115.925781 286.839844 C 116.300781 287.65625 116.730469 288.164062 117.125 288.164062 C 117.519531 288.164062 117.949219 287.65625 118.324219 286.839844 C 118.8125 285.78125 119.117188 284.289062 119.117188 282.613281 C 119.117188 282.035156 119.585938 281.570312 120.160156 281.570312 C 120.738281 281.570312 121.207031 282.035156 121.207031 282.613281 C 121.207031 284.585938 120.828125 286.390625 120.21875 287.71875 C 119.496094 289.289062 118.40625 290.257812 117.125 290.257812 C 115.84375 290.257812 114.753906 289.289062 114.035156 287.71875 C 113.421875 286.390625 113.046875 284.585938 113.046875 282.613281 " fill-opacity="1" fill-rule="evenodd"/><path fill="#000000" d="M 145.9375 282.613281 C 145.9375 282.035156 146.40625 281.570312 146.980469 281.570312 C 147.558594 281.570312 148.027344 282.035156 148.027344 282.613281 C 148.027344 284.289062 148.328125 285.78125 148.816406 286.839844 C 149.191406 287.65625 149.621094 288.164062 150.015625 288.164062 C 150.410156 288.164062 150.839844 287.65625 151.214844 286.839844 C 151.707031 285.78125 152.007812 284.285156 152.007812 282.613281 C 152.007812 282.035156 152.476562 281.570312 153.054688 281.570312 C 153.628906 281.570312 154.097656 282.035156 154.097656 282.613281 C 154.097656 284.585938 153.71875 286.390625 153.109375 287.71875 C 152.386719 289.289062 151.300781 290.257812 150.015625 290.257812 C 148.734375 290.257812 147.644531 289.289062 146.921875 287.71875 C 146.3125 286.390625 145.9375 284.585938 145.9375 282.613281 " fill-opacity="1" fill-rule="evenodd"/><path fill="#ff9999" d="M 134.632812 309.933594 L 138.484375 307.140625 L 138.863281 306.863281 C 139.511719 306.394531 139.773438 305.59375 139.527344 304.832031 C 139.277344 304.066406 138.601562 303.570312 137.800781 303.570312 L 129.34375 303.570312 C 128.542969 303.570312 127.863281 304.066406 127.617188 304.832031 C 127.371094 305.59375 127.632812 306.394531 128.28125 306.863281 L 128.65625 307.140625 L 132.507812 309.933594 C 133.152344 310.402344 133.988281 310.402344 134.632812 309.933594 " fill-opacity="1" fill-rule="evenodd"/><path fill="#ffffff" d="M 147.886719 298.121094 L 147.886719 297.109375 C 147.886719 294.601562 145.839844 292.546875 143.335938 292.546875 L 138.121094 292.546875 C 135.617188 292.546875 133.570312 294.601562 133.570312 297.109375 C 133.570312 294.601562 131.523438 292.546875 129.019531 292.546875 L 123.808594 292.546875 C 121.304688 292.546875 119.257812 294.601562 119.257812 297.109375 L 119.257812 304.589844 C 119.257812 307.097656 121.304688 309.152344 123.808594 309.152344 L 129.019531 309.152344 C 130.78125 309.152344 132.316406 308.136719 133.070312 306.660156 C 133.171875 306.46875 133.355469 306.355469 133.570312 306.355469 C 133.785156 306.355469 133.972656 306.46875 134.070312 306.660156 C 134.828125 308.136719 136.363281 309.152344 138.121094 309.152344 L 143.335938 309.152344 C 145.839844 309.152344 147.886719 307.097656 147.886719 304.589844 L 147.886719 298.121094 " fill-opacity="1" fill-rule="evenodd"/><path fill="#7b6a56" d="M 134.632812 297.769531 L 138.484375 294.972656 L 138.863281 294.699219 C 139.511719 294.230469 139.773438 293.429688 139.527344 292.667969 C 139.277344 291.902344 138.601562 291.40625 137.800781 291.40625 L 129.34375 291.40625 C 128.542969 291.40625 127.863281 291.902344 127.617188 292.667969 C 127.371094 293.429688 127.632812 294.230469 128.28125 294.699219 L 128.65625 294.972656 L 132.507812 297.769531 C 133.152344 298.238281 133.988281 298.238281 134.632812 297.769531 " fill-opacity="1" fill-rule="evenodd"/><path fill="#ffffff" d="M 135.050781 369.78125 C 135.050781 369.78125 161.65625 372.890625 163.828125 358.867188 C 164.757812 358.945312 165.695312 358.988281 166.640625 358.988281 C 184.960938 358.988281 199.816406 344.148438 199.816406 325.84375 C 199.816406 319.390625 197.964844 313.367188 194.769531 308.273438 C 191.628906 303.269531 190.078125 298.265625 189.835938 292.367188 C 189.492188 284.003906 189.269531 276.175781 188.714844 268.972656 C 187.652344 255.117188 188.636719 247.855469 178.765625 234.9375 C 168.890625 222.019531 159.789062 215.332031 159.789062 215.332031 C 151.445312 215.332031 143.085938 215.332031 134.742188 215.332031 C 126.394531 215.332031 118.050781 215.332031 109.707031 215.332031 C 109.707031 215.332031 101.175781 222.019531 91.324219 234.9375 C 81.46875 247.855469 82.414062 255.117188 81.34375 268.972656 C 80.789062 276.167969 80.570312 283.992188 80.234375 292.351562 C 79.992188 298.257812 78.441406 303.265625 75.300781 308.273438 C 72.105469 313.367188 70.253906 319.390625 70.253906 325.84375 C 70.253906 344.148438 85.109375 358.988281 103.429688 358.988281 C 104.378906 358.988281 105.316406 358.945312 106.246094 358.867188 C 108.433594 372.890625 135.050781 369.78125 135.050781 369.78125 " fill-opacity="1" fill-rule="evenodd"/><path fill="#ffcc99" d="M 135.035156 264.90625 C 182.117188 233.371094 188.960938 281.234375 177.664062 294.238281 C 169.210938 303.972656 152.753906 314.550781 153.023438 328.445312 C 153.289062 342.339844 138.871094 335.6875 135.035156 333.949219 C 131.199219 335.6875 116.78125 342.339844 117.046875 328.445312 C 117.316406 314.550781 100.859375 303.972656 92.40625 294.238281 C 81.109375 281.234375 87.953125 233.371094 135.035156 264.90625 " fill-opacity="1" fill-rule="evenodd"/><path fill="#dba36b" d="M 135.035156 359.582031 C 144.566406 359.582031 152.339844 353.132812 152.339844 345.230469 C 152.339844 337.324219 144.566406 330.878906 135.035156 330.878906 C 125.503906 330.878906 117.730469 337.324219 117.730469 345.230469 C 117.730469 353.132812 125.503906 359.582031 135.035156 359.582031 " fill-opacity="1" fill-rule="evenodd"/><path fill="#e6e6e6" d="M 135.035156 312.476562 C 138.164062 312.476562 141.292969 312.476562 144.425781 312.476562 C 147.554688 312.476562 150.6875 312.476562 153.824219 312.476562 C 157.40625 320.375 171.167969 349.828125 151.863281 349.828125 C 150.929688 349.828125 149.996094 349.828125 149.0625 349.828125 C 141.347656 349.828125 135.035156 343.578125 135.035156 335.816406 C 135.035156 331.925781 135.035156 328.039062 135.035156 324.152344 C 135.035156 320.261719 135.035156 316.371094 135.035156 312.476562 " fill-opacity="1" fill-rule="evenodd"/><path fill="#e6e6e6" d="M 135.035156 312.476562 C 131.90625 312.476562 128.777344 312.476562 125.644531 312.476562 C 122.515625 312.476562 119.382812 312.476562 116.246094 312.476562 C 112.664062 320.375 98.902344 349.828125 118.207031 349.828125 C 119.140625 349.828125 120.074219 349.828125 121.007812 349.828125 C 128.722656 349.828125 135.035156 343.578125 135.035156 335.816406 C 135.035156 331.925781 135.035156 328.039062 135.035156 324.152344 C 135.035156 320.261719 135.035156 316.371094 135.035156 312.476562 " fill-opacity="1" fill-rule="evenodd"/><path fill="#ffffff" d="M 130.5625 256.644531 C 132.054688 256.644531 133.539062 256.644531 135.027344 256.644531 C 136.515625 256.644531 138.007812 256.644531 139.5 256.644531 C 141.152344 256.644531 142.820312 257.800781 144.289062 259.59375 C 145.777344 261.421875 147.089844 263.910156 147.589844 266.664062 C 148.863281 273.699219 149.976562 280.730469 150.765625 287.773438 C 151.558594 294.796875 152.019531 301.84375 152.332031 308.878906 C 152.453125 311.632812 151.339844 314.148438 149.546875 315.953125 C 147.742188 317.769531 145.238281 318.894531 142.480469 318.894531 C 139.996094 318.894531 137.511719 318.894531 135.03125 318.894531 C 132.550781 318.894531 130.066406 318.894531 127.585938 318.894531 C 124.828125 318.894531 122.316406 317.769531 120.515625 315.953125 C 118.71875 314.148438 117.621094 311.632812 117.738281 308.878906 C 118.046875 301.839844 118.511719 294.796875 119.300781 287.773438 C 120.09375 280.730469 121.207031 273.699219 122.480469 266.664062 C 122.976562 263.90625 124.28125 261.421875 125.773438 259.59375 C 127.238281 257.800781 128.90625 256.644531 130.5625 256.644531 " fill-opacity="1" fill-rule="evenodd"/><path fill="#333333" d="M 134.289062 328.488281 C 134.351562 328.628906 134.417969 328.773438 134.472656 328.90625 C 134.652344 328.878906 134.84375 328.867188 135.035156 328.867188 C 135.226562 328.867188 135.414062 328.878906 135.597656 328.90625 C 135.652344 328.773438 135.714844 328.632812 135.78125 328.488281 C 140.476562 318.421875 152.957031 325.339844 153.671875 316.664062 L 153.671875 310.226562 L 150.777344 305.21875 C 120.550781 313.308594 149.519531 313.308594 119.292969 305.21875 L 116.402344 310.226562 L 116.402344 316.664062 C 117.113281 325.339844 129.59375 318.421875 134.289062 328.488281 " fill-opacity="1" fill-rule="evenodd"/><path fill="#000000" d="M 121.757812 311.101562 C 130.394531 314.945312 130.859375 329.195312 135.035156 329.058594 C 139.210938 329.195312 139.675781 314.945312 148.3125 311.101562 C 152.214844 314.347656 152.472656 317.375 151.40625 319.664062 C 151.265625 319.96875 151.359375 320.324219 151.632812 320.519531 C 151.90625 320.710938 152.273438 320.683594 152.511719 320.449219 C 156.019531 317.019531 155.414062 312.050781 153.617188 306.796875 C 151.660156 301.066406 138.949219 306.898438 135.035156 308.855469 C 131.121094 306.898438 118.410156 301.066406 116.453125 306.796875 C 114.65625 312.050781 114.050781 317.019531 117.558594 320.449219 C 117.796875 320.683594 118.164062 320.710938 118.4375 320.519531 C 118.714844 320.324219 118.804688 319.96875 118.664062 319.664062 C 117.59375 317.375 117.855469 314.347656 121.757812 311.101562 " fill-opacity="1" fill-rule="evenodd"/><path fill="#ffffff" d="M 190.375 136.703125 C 198.371094 140.601562 204.574219 153.601562 207.476562 164.734375 C 211.859375 181.578125 210.191406 191.390625 207.085938 204.710938 C 204.679688 215.015625 201.007812 225.339844 196.273438 232.960938 C 182.902344 254.480469 182.792969 250.070312 165.808594 235.804688 C 164.714844 234.886719 161.5625 229.21875 160.824219 227.644531 C 157.457031 220.464844 156.527344 215.550781 161.171875 215.402344 C 171.820312 215.070312 170.871094 171.636719 175.984375 148.914062 C 177.964844 140.121094 182.539062 132.882812 190.375 136.703125 " fill-opacity="1" fill-rule="evenodd"/><path fill="#ffcc99" d="M 190.839844 145.8125 C 195.417969 147.8125 200.847656 155.105469 203.96875 165.835938 C 210.082031 186.863281 202.105469 216.308594 192.703125 229.859375 C 187.894531 236.789062 183.332031 239.957031 181.214844 239.015625 C 179.089844 238.105469 180.082031 233.277344 181.578125 225.003906 C 185.710938 202.160156 183.222656 180.5 183.941406 157.089844 C 184.207031 148.347656 186.261719 143.816406 190.839844 145.8125 " fill-opacity="1" fill-rule="evenodd"/><path fill="#ffffff" d="M 79.730469 136.703125 C 71.730469 140.601562 65.527344 153.601562 62.628906 164.734375 C 58.242188 181.578125 59.914062 191.390625 63.019531 204.710938 C 65.421875 215.015625 69.09375 225.339844 73.828125 232.960938 C 87.199219 254.480469 87.308594 250.070312 104.296875 235.804688 C 105.386719 234.886719 108.539062 229.21875 109.277344 227.644531 C 112.648438 220.464844 113.574219 215.550781 108.929688 215.402344 C 98.28125 215.070312 99.230469 171.636719 94.117188 148.914062 C 92.136719 140.121094 87.5625 132.882812 79.730469 136.703125 " fill-opacity="1" fill-rule="evenodd"/><path fill="#ffcc99" d="M 79.261719 145.8125 C 74.683594 147.8125 69.253906 155.105469 66.132812 165.835938 C 60.019531 186.863281 67.996094 216.308594 77.398438 229.859375 C 82.207031 236.789062 86.769531 239.957031 88.886719 239.015625 C 91.011719 238.105469 90.023438 233.277344 88.523438 225.003906 C 84.390625 202.160156 86.878906 180.5 86.160156 157.089844 C 85.894531 148.347656 83.839844 143.816406 79.261719 145.8125 " fill-opacity="1" fill-rule="evenodd"/><path fill="#ffffff" d="M 83.394531 264.90625 C 89.828125 264.90625 95.074219 259.664062 95.074219 253.238281 C 95.074219 246.8125 89.828125 241.570312 83.394531 241.570312 C 76.960938 241.570312 71.714844 246.8125 71.714844 253.238281 C 71.714844 259.664062 76.960938 264.90625 83.394531 264.90625 " fill-opacity="1" fill-rule="evenodd"/><path fill="#ffffff" d="M 90.949219 249.121094 C 97.382812 249.121094 102.628906 243.878906 102.628906 237.449219 C 102.628906 231.023438 97.382812 225.78125 90.949219 225.78125 C 84.515625 225.78125 79.269531 231.023438 79.269531 237.449219 C 79.269531 243.878906 84.515625 249.121094 90.949219 249.121094 " fill-opacity="1" fill-rule="evenodd"/><path fill="#ffffff" d="M 99.417969 238.535156 C 105.851562 238.535156 111.097656 233.292969 111.097656 226.867188 C 111.097656 220.441406 105.851562 215.199219 99.417969 215.199219 C 92.984375 215.199219 87.734375 220.441406 87.734375 226.867188 C 87.734375 233.292969 92.984375 238.535156 99.417969 238.535156 " fill-opacity="1" fill-rule="evenodd"/><path fill="#ffffff" d="M 111.351562 227.1875 C 117.78125 227.1875 123.03125 221.945312 123.03125 215.519531 C 123.03125 209.089844 117.78125 203.847656 111.351562 203.847656 C 104.914062 203.847656 99.667969 209.089844 99.667969 215.519531 C 99.667969 221.945312 104.914062 227.1875 111.351562 227.1875 " fill-opacity="1" fill-rule="evenodd"/><path fill="#ffffff" d="M 186.675781 264.90625 C 193.109375 264.90625 198.355469 259.664062 198.355469 253.238281 C 198.355469 246.8125 193.109375 241.570312 186.675781 241.570312 C 180.242188 241.570312 174.996094 246.8125 174.996094 253.238281 C 174.996094 259.664062 180.242188 264.90625 186.675781 264.90625 " fill-opacity="1" fill-rule="evenodd"/><path fill="#ffffff" d="M 179.121094 249.121094 C 185.554688 249.121094 190.800781 243.878906 190.800781 237.449219 C 190.800781 231.023438 185.554688 225.78125 179.121094 225.78125 C 172.6875 225.78125 167.441406 231.023438 167.441406 237.449219 C 167.441406 243.878906 172.6875 249.121094 179.121094 249.121094 " fill-opacity="1" fill-rule="evenodd"/><path fill="#ffffff" d="M 170.652344 238.535156 C 177.085938 238.535156 182.332031 233.292969 182.332031 226.867188 C 182.332031 220.441406 177.085938 215.199219 170.652344 215.199219 C 164.21875 215.199219 158.972656 220.441406 158.972656 226.867188 C 158.972656 233.292969 164.21875 238.535156 170.652344 238.535156 " fill-opacity="1" fill-rule="evenodd"/><path fill="#ffffff" d="M 158.722656 227.1875 C 165.152344 227.1875 170.402344 221.945312 170.402344 215.519531 C 170.402344 209.089844 165.152344 203.847656 158.722656 203.847656 C 152.285156 203.847656 147.039062 209.089844 147.039062 215.519531 C 147.039062 221.945312 152.285156 227.1875 158.722656 227.1875 " fill-opacity="1" fill-rule="evenodd"/><path fill="#ffffff" d="M 126.867188 227.1875 C 133.304688 227.1875 138.550781 221.945312 138.550781 215.519531 C 138.550781 209.089844 133.304688 203.847656 126.867188 203.847656 C 120.4375 203.847656 115.1875 209.089844 115.1875 215.519531 C 115.1875 221.945312 120.4375 227.1875 126.867188 227.1875 " fill-opacity="1" fill-rule="evenodd"/><path fill="#ffffff" d="M 143.199219 227.1875 C 149.636719 227.1875 154.882812 221.945312 154.882812 215.519531 C 154.882812 209.089844 149.636719 203.847656 143.199219 203.847656 C 136.769531 203.847656 131.519531 209.089844 131.519531 215.519531 C 131.519531 221.945312 136.769531 227.1875 143.199219 227.1875 " fill-opacity="1" fill-rule="evenodd"/><path fill="#000000" d="M 171.253906 283.585938 C 176.390625 283.585938 180.578125 279.398438 180.578125 274.269531 C 180.578125 269.136719 176.390625 264.953125 171.253906 264.953125 C 166.117188 264.953125 161.925781 269.136719 161.925781 274.269531 C 161.925781 279.398438 166.117188 283.585938 171.253906 283.585938 " fill-opacity="1" fill-rule="evenodd"/><path fill="#000000" d="M 98.816406 283.585938 C 103.953125 283.585938 108.144531 279.398438 108.144531 274.269531 C 108.144531 269.136719 103.953125 264.953125 98.816406 264.953125 C 93.683594 264.953125 89.492188 269.136719 89.492188 274.269531 C 89.492188 279.398438 93.683594 283.585938 98.816406 283.585938 " fill-opacity="1" fill-rule="evenodd"/><path fill="#dba36b" d="M 100.621094 274.269531 L 85.328125 274.269531 C 85.328125 263.929688 92.175781 255.546875 100.621094 255.546875 C 109.066406 255.546875 115.910156 263.929688 115.910156 274.269531 L 100.621094 274.269531 " fill-opacity="1" fill-rule="evenodd"/><path fill="#ffffff" d="M 92.109375 277.632812 C 92.464844 277.632812 92.757812 276.953125 92.757812 276.121094 C 92.757812 275.289062 92.464844 274.609375 92.109375 274.609375 C 91.75 274.609375 91.457031 275.289062 91.457031 276.121094 C 91.457031 276.953125 91.75 277.632812 92.109375 277.632812 " fill-opacity="1" fill-rule="evenodd"/><path fill="#dba36b" d="M 169.449219 274.269531 L 154.160156 274.269531 C 154.160156 263.929688 161.003906 255.546875 169.449219 255.546875 C 177.894531 255.546875 184.738281 263.929688 184.738281 274.269531 L 169.449219 274.269531 " fill-opacity="1" fill-rule="evenodd"/><path fill="#ffffff" d="M 165.410156 277.632812 C 165.769531 277.632812 166.0625 276.953125 166.0625 276.121094 C 166.0625 275.289062 165.769531 274.609375 165.410156 274.609375 C 165.050781 274.609375 164.757812 275.289062 164.757812 276.121094 C 164.757812 276.953125 165.050781 277.632812 165.410156 277.632812 " fill-opacity="1" fill-rule="evenodd"/><g fill="#ffffff" fill-opacity="1"><g transform="translate(102.033939, 66.261961)"><g><path d="M 0.03125 -20.078125 C 0.03125 -21.265625 0.515625 -22.03125 1.484375 -22.375 C 2.003906 -22.570312 2.40625 -22.425781 2.6875 -21.9375 C 3.226562 -21 3.644531 -19.832031 3.9375 -18.4375 C 4.03125 -17.976562 4.140625 -17.367188 4.265625 -16.609375 L 4.5625 -14.78125 L 4.59375 -14.5 C 4.625 -14.382812 4.664062 -14.296875 4.71875 -14.234375 L 4.90625 -14.421875 L 5.0625 -14.625 C 5.3125 -14.988281 5.632812 -15.421875 6.03125 -15.921875 L 7 -17.203125 C 7.8125 -18.265625 8.425781 -19.15625 8.84375 -19.875 C 8.925781 -20.03125 9.070312 -20.164062 9.28125 -20.28125 L 9.53125 -20.4375 L 9.8125 -20.578125 C 9.957031 -20.660156 10.113281 -20.601562 10.28125 -20.40625 C 10.4375 -20.238281 10.445312 -20.046875 10.3125 -19.828125 L 9.671875 -18.859375 C 9.410156 -18.453125 9.207031 -18.117188 9.0625 -17.859375 C 8.914062 -17.609375 8.753906 -17.289062 8.578125 -16.90625 L 8.109375 -15.9375 C 7.734375 -15.164062 7.367188 -14.554688 7.015625 -14.109375 L 6.484375 -13.46875 L 5.953125 -12.8125 C 5.804688 -12.644531 5.816406 -12.519531 5.984375 -12.4375 C 7.742188 -11.539062 9.785156 -9.789062 12.109375 -7.1875 L 12.71875 -6.53125 L 13.296875 -5.875 C 13.722656 -5.351562 14.023438 -4.859375 14.203125 -4.390625 C 14.296875 -4.109375 14.375 -3.753906 14.4375 -3.328125 L 14.59375 -2.234375 C 14.613281 -2.148438 14.601562 -2.078125 14.5625 -2.015625 C 14.53125 -1.953125 14.472656 -1.910156 14.390625 -1.890625 C 13.160156 -1.671875 12.125 -1.988281 11.28125 -2.84375 C 10.226562 -3.914062 9.070312 -5.351562 7.8125 -7.15625 L 7.28125 -7.921875 L 6.75 -8.671875 C 6.332031 -9.242188 5.9375 -9.71875 5.5625 -10.09375 L 5.515625 -10.15625 L 5.453125 -10.21875 C 5.398438 -10.269531 5.347656 -10.28125 5.296875 -10.25 C 5.273438 -10.226562 5.257812 -10.179688 5.25 -10.109375 C 5.238281 -10.054688 5.238281 -10 5.25 -9.9375 C 5.5 -8 5.597656 -5.425781 5.546875 -2.21875 L 5.515625 -1.703125 L 5.4375 -1.203125 C 5.375 -0.773438 5.132812 -0.53125 4.71875 -0.46875 C 4.226562 -0.382812 3.96875 -0.0820312 3.9375 0.4375 C 3.914062 0.832031 3.726562 0.929688 3.375 0.734375 C 3.03125 0.546875 2.707031 0.457031 2.40625 0.46875 C 2.238281 0.476562 2.109375 0.421875 2.015625 0.296875 L 1.859375 -0.109375 C 1.566406 -1.097656 1.394531 -2.367188 1.34375 -3.921875 C 1.300781 -4.960938 1.148438 -6.414062 0.890625 -8.28125 L 0.59375 -10.453125 C 0.5 -11.265625 0.429688 -11.992188 0.390625 -12.640625 L 0.140625 -15.140625 C 0.046875 -16.140625 0.0078125 -16.972656 0.03125 -17.640625 Z M 0.03125 -20.078125 "/></g></g></g><g fill="#ffffff" fill-opacity="1"><g transform="translate(119.350317, 66.261961)"><g><path d="M 5.5625 -11.21875 C 5.65625 -11.488281 5.753906 -11.820312 5.859375 -12.21875 L 6.09375 -13.234375 C 6.289062 -14.054688 6.5625 -14.695312 6.90625 -15.15625 L 6.953125 -15.21875 L 6.96875 -15.296875 C 7.050781 -16.066406 7.363281 -16.484375 7.90625 -16.546875 C 8.226562 -16.585938 8.597656 -16.453125 9.015625 -16.140625 C 9.410156 -15.828125 9.660156 -15.503906 9.765625 -15.171875 L 9.859375 -14.859375 L 9.953125 -14.5 C 10.003906 -14.238281 10.023438 -13.984375 10.015625 -13.734375 C 9.722656 -12.773438 9.078125 -12.03125 8.078125 -11.5 C 7.785156 -11.34375 7.4375 -11.222656 7.03125 -11.140625 L 6.46875 -11.015625 L 5.890625 -10.921875 C 5.742188 -10.898438 5.644531 -10.90625 5.59375 -10.9375 C 5.507812 -10.96875 5.5 -11.0625 5.5625 -11.21875 Z M 14.625 -8.140625 C 14.46875 -8.253906 14.328125 -8.257812 14.203125 -8.15625 L 14.046875 -8 L 13.90625 -7.84375 L 13.265625 -7.125 L 12.640625 -6.390625 C 12.140625 -5.847656 11.660156 -5.441406 11.203125 -5.171875 L 10.671875 -4.859375 L 10.125 -4.5625 C 9.6875 -4.363281 9.289062 -4.316406 8.9375 -4.421875 C 8.007812 -4.691406 7.1875 -5.300781 6.46875 -6.25 C 5.769531 -7.175781 5.394531 -8.140625 5.34375 -9.140625 C 5.3125 -9.796875 5.5625 -10.132812 6.09375 -10.15625 C 7.988281 -10.226562 9.644531 -10.890625 11.0625 -12.140625 C 11.59375 -12.617188 11.929688 -13.210938 12.078125 -13.921875 C 12.222656 -14.617188 12.128906 -15.195312 11.796875 -15.65625 C 10.710938 -17.09375 9.410156 -17.851562 7.890625 -17.9375 L 7.703125 -17.96875 L 7.5625 -18 L 7.3125 -18.03125 L 6.6875 -18.078125 L 6.046875 -18.078125 C 5.578125 -18.054688 5.191406 -17.90625 4.890625 -17.625 C 4.296875 -17.050781 3.6875 -16.300781 3.0625 -15.375 C 1.019531 -12.332031 0.160156 -9.628906 0.484375 -7.265625 C 0.878906 -4.367188 1.945312 -2.296875 3.6875 -1.046875 C 4.726562 -0.285156 5.875 0.0546875 7.125 -0.015625 C 8.34375 -0.078125 9.335938 -0.515625 10.109375 -1.328125 C 11.929688 -3.265625 13.390625 -5.300781 14.484375 -7.4375 L 14.609375 -7.578125 L 14.75 -7.75 C 14.832031 -7.875 14.789062 -8.003906 14.625 -8.140625 Z M 14.625 -8.140625 "/></g></g></g><g fill="#ffffff" fill-opacity="1"><g transform="translate(136.795346, 66.261961)"><g><path d="M 5.5625 -11.21875 C 5.65625 -11.488281 5.753906 -11.820312 5.859375 -12.21875 L 6.09375 -13.234375 C 6.289062 -14.054688 6.5625 -14.695312 6.90625 -15.15625 L 6.953125 -15.21875 L 6.96875 -15.296875 C 7.050781 -16.066406 7.363281 -16.484375 7.90625 -16.546875 C 8.226562 -16.585938 8.597656 -16.453125 9.015625 -16.140625 C 9.410156 -15.828125 9.660156 -15.503906 9.765625 -15.171875 L 9.859375 -14.859375 L 9.953125 -14.5 C 10.003906 -14.238281 10.023438 -13.984375 10.015625 -13.734375 C 9.722656 -12.773438 9.078125 -12.03125 8.078125 -11.5 C 7.785156 -11.34375 7.4375 -11.222656 7.03125 -11.140625 L 6.46875 -11.015625 L 5.890625 -10.921875 C 5.742188 -10.898438 5.644531 -10.90625 5.59375 -10.9375 C 5.507812 -10.96875 5.5 -11.0625 5.5625 -11.21875 Z M 14.625 -8.140625 C 14.46875 -8.253906 14.328125 -8.257812 14.203125 -8.15625 L 14.046875 -8 L 13.90625 -7.84375 L 13.265625 -7.125 L 12.640625 -6.390625 C 12.140625 -5.847656 11.660156 -5.441406 11.203125 -5.171875 L 10.671875 -4.859375 L 10.125 -4.5625 C 9.6875 -4.363281 9.289062 -4.316406 8.9375 -4.421875 C 8.007812 -4.691406 7.1875 -5.300781 6.46875 -6.25 C 5.769531 -7.175781 5.394531 -8.140625 5.34375 -9.140625 C 5.3125 -9.796875 5.5625 -10.132812 6.09375 -10.15625 C 7.988281 -10.226562 9.644531 -10.890625 11.0625 -12.140625 C 11.59375 -12.617188 11.929688 -13.210938 12.078125 -13.921875 C 12.222656 -14.617188 12.128906 -15.195312 11.796875 -15.65625 C 10.710938 -17.09375 9.410156 -17.851562 7.890625 -17.9375 L 7.703125 -17.96875 L 7.5625 -18 L 7.3125 -18.03125 L 6.6875 -18.078125 L 6.046875 -18.078125 C 5.578125 -18.054688 5.191406 -17.90625 4.890625 -17.625 C 4.296875 -17.050781 3.6875 -16.300781 3.0625 -15.375 C 1.019531 -12.332031 0.160156 -9.628906 0.484375 -7.265625 C 0.878906 -4.367188 1.945312 -2.296875 3.6875 -1.046875 C 4.726562 -0.285156 5.875 0.0546875 7.125 -0.015625 C 8.34375 -0.078125 9.335938 -0.515625 10.109375 -1.328125 C 11.929688 -3.265625 13.390625 -5.300781 14.484375 -7.4375 L 14.609375 -7.578125 L 14.75 -7.75 C 14.832031 -7.875 14.789062 -8.003906 14.625 -8.140625 Z M 14.625 -8.140625 "/></g></g></g><g fill="#ffffff" fill-opacity="1"><g transform="translate(154.240375, 66.261961)"><g><path d="M 8.125 -8.140625 C 8.039062 -9.273438 7.664062 -10.4375 7 -11.625 C 6.90625 -11.789062 6.769531 -11.90625 6.59375 -11.96875 L 3.9375 -12.8125 C 3.757812 -12.863281 3.640625 -12.84375 3.578125 -12.75 C 3.515625 -12.664062 3.523438 -12.566406 3.609375 -12.453125 C 3.765625 -12.253906 3.867188 -12.03125 3.921875 -11.78125 C 3.960938 -11.59375 3.984375 -11.351562 3.984375 -11.0625 C 3.992188 -10.789062 4.035156 -10.492188 4.109375 -10.171875 L 4.3125 -9.296875 C 4.519531 -8.523438 4.628906 -7.929688 4.640625 -7.515625 L 4.6875 -6.28125 L 4.796875 -5.03125 C 4.890625 -3.976562 4.925781 -3.148438 4.90625 -2.546875 C 4.894531 -2.222656 5.046875 -2.144531 5.359375 -2.3125 C 6.578125 -3.019531 7.335938 -3.90625 7.640625 -4.96875 C 7.921875 -6.007812 8.082031 -7.066406 8.125 -8.140625 Z M 5.125 0.25 C 5.082031 0.738281 5.125 1.390625 5.25 2.203125 L 5.390625 3.125 C 5.421875 3.457031 5.4375 3.757812 5.4375 4.03125 C 5.382812 5.175781 5.351562 6.066406 5.34375 6.703125 C 5.34375 7.503906 5 8.082031 4.3125 8.4375 C 4.132812 8.519531 3.957031 8.644531 3.78125 8.8125 L 3.5625 9.03125 L 3.328125 9.28125 C 2.941406 9.6875 2.613281 9.691406 2.34375 9.296875 C 2.25 9.160156 2.109375 9.070312 1.921875 9.03125 C 1.160156 8.894531 0.757812 8.378906 0.71875 7.484375 L 0.625 6.609375 L 0.515625 5.734375 C 0.390625 4.953125 0.320312 4.363281 0.3125 3.96875 C 0.144531 0.726562 0.0507812 -2.015625 0.03125 -4.265625 C 0.0078125 -8.015625 0.113281 -11.109375 0.34375 -13.546875 C 0.414062 -14.273438 0.765625 -14.703125 1.390625 -14.828125 C 2.046875 -14.953125 2.488281 -14.660156 2.71875 -13.953125 C 2.78125 -13.710938 2.9375 -13.578125 3.1875 -13.546875 C 3.28125 -13.523438 3.394531 -13.519531 3.53125 -13.53125 L 3.84375 -13.546875 C 6.019531 -13.785156 7.890625 -12.8125 9.453125 -10.625 C 10.273438 -9.488281 10.773438 -8.113281 10.953125 -6.5 C 11.078125 -5.300781 10.628906 -4.113281 9.609375 -2.9375 C 8.566406 -1.726562 7.429688 -1.101562 6.203125 -1.0625 C 5.253906 -1.039062 4.894531 -0.601562 5.125 0.25 Z M 5.125 0.25 "/></g></g></g><g fill="#ffffff" fill-opacity="1"><g transform="translate(77.52629, 96.939042)"><g><path d="M 9.890625 -4.75 L 9.890625 -4.703125 L 9.75 -2.703125 L 9.703125 -1.78125 L 9.671875 -1.546875 L 9.671875 -1.296875 C 9.691406 -0.941406 9.617188 -0.570312 9.453125 -0.1875 C 9.398438 -0.0390625 9.351562 0.101562 9.3125 0.25 C 9.195312 0.8125 8.898438 1.410156 8.421875 2.046875 L 7.921875 2.75 C 7.796875 2.945312 7.65625 3.082031 7.5 3.15625 C 7.269531 3.257812 7.0625 3.410156 6.875 3.609375 C 6.71875 3.765625 6.5 3.851562 6.21875 3.875 C 5.695312 3.894531 5.125 3.773438 4.5 3.515625 C 4.238281 3.390625 3.9375 3.226562 3.59375 3.03125 L 3.140625 2.75 L 2.703125 2.46875 C 2.285156 2.207031 1.941406 1.894531 1.671875 1.53125 C 1.117188 0.769531 0.753906 0.03125 0.578125 -0.6875 C 0.296875 -1.9375 0.128906 -3.203125 0.078125 -4.484375 L 0.03125 -6.328125 L 0 -8.203125 L 0 -9.875 L 0.03125 -11.5625 L 0.03125 -11.640625 L 0.171875 -13.265625 C 0.222656 -13.921875 0.28125 -14.46875 0.34375 -14.90625 C 0.550781 -16.414062 1.195312 -17.703125 2.28125 -18.765625 C 2.507812 -18.984375 2.789062 -19.226562 3.125 -19.5 L 4 -20.171875 C 4.125 -20.265625 4.242188 -20.332031 4.359375 -20.375 C 4.984375 -20.59375 5.546875 -20.660156 6.046875 -20.578125 C 6.285156 -20.546875 6.476562 -20.441406 6.625 -20.265625 L 6.953125 -19.828125 L 7.234375 -19.390625 C 7.460938 -19.097656 7.625 -18.71875 7.71875 -18.25 C 7.8125 -17.8125 7.847656 -17.414062 7.828125 -17.0625 C 7.804688 -16.925781 7.8125 -16.769531 7.84375 -16.59375 L 8 -15.421875 L 8.015625 -14.71875 C 8.035156 -14.4375 8 -14.21875 7.90625 -14.0625 C 7.875 -14.007812 7.835938 -13.984375 7.796875 -13.984375 L 7.734375 -14 L 7.703125 -14.0625 L 7.546875 -14.53125 L 7.484375 -14.84375 L 7.40625 -15.15625 L 7.359375 -15.375 L 7.28125 -15.59375 L 7.03125 -16.171875 L 6.796875 -16.75 C 6.472656 -17.519531 6.082031 -18.128906 5.625 -18.578125 C 5.519531 -18.679688 5.410156 -18.6875 5.296875 -18.59375 C 4.972656 -18.34375 4.726562 -18.050781 4.5625 -17.71875 L 4.4375 -17.46875 L 4.328125 -17.203125 C 4.242188 -16.992188 4.191406 -16.800781 4.171875 -16.625 L 4.1875 -16.25 L 4.203125 -15.890625 L 4.171875 -15.734375 L 4.125 -15.578125 C 4.082031 -15.441406 4.0625 -15.328125 4.0625 -15.234375 C 4.0625 -15.015625 4.03125 -14.726562 3.96875 -14.375 C 3.90625 -14.0625 3.894531 -13.703125 3.9375 -13.296875 L 4 -12.34375 L 4.046875 -11.390625 L 4.125 -9.5 L 4.171875 -8.65625 L 4.203125 -7.8125 L 4.296875 -6.46875 L 4.40625 -5.09375 L 4.421875 -4.765625 L 4.4375 -4.421875 L 4.46875 -3.984375 L 4.515625 -3.5625 L 4.640625 -2.6875 C 4.703125 -2.363281 4.773438 -2.078125 4.859375 -1.828125 C 5.003906 -1.421875 5.164062 -1.082031 5.34375 -0.8125 C 5.550781 -0.46875 5.753906 -0.207031 5.953125 -0.03125 C 6.222656 0.226562 6.507812 0.242188 6.8125 0.015625 C 7.289062 -0.335938 7.644531 -0.664062 7.875 -0.96875 C 8.082031 -1.238281 8.226562 -1.585938 8.3125 -2.015625 C 8.394531 -2.503906 8.519531 -3.078125 8.6875 -3.734375 L 8.765625 -4.125 C 8.835938 -4.582031 8.925781 -4.953125 9.03125 -5.234375 C 9.070312 -5.328125 9.109375 -5.457031 9.140625 -5.625 L 9.1875 -6.03125 L 9.21875 -6.1875 C 9.226562 -6.25 9.257812 -6.289062 9.3125 -6.3125 C 9.375 -6.320312 9.429688 -6.304688 9.484375 -6.265625 L 9.53125 -6.1875 L 9.609375 -6.125 L 9.671875 -6.03125 L 9.734375 -5.953125 C 9.941406 -5.691406 10.015625 -5.375 9.953125 -5 L 9.921875 -4.921875 L 9.890625 -4.78125 Z M 9.890625 -4.75 "/></g></g></g><g fill="#ffffff" fill-opacity="1"><g transform="translate(90.14692, 96.939042)"><g><path d="M 9.703125 -6.96875 C 9.597656 -5.519531 8.867188 -4.523438 7.515625 -3.984375 C 7.210938 -3.867188 6.957031 -3.875 6.75 -4 C 6.582031 -4.101562 6.441406 -4.285156 6.328125 -4.546875 C 5.742188 -5.878906 5.566406 -7.175781 5.796875 -8.4375 C 5.835938 -8.707031 5.863281 -9.050781 5.875 -9.46875 L 5.890625 -10 L 5.921875 -10.515625 C 5.941406 -10.972656 6.046875 -11.546875 6.234375 -12.234375 L 6.46875 -13.046875 L 6.65625 -13.890625 C 6.78125 -14.585938 7.164062 -15.132812 7.8125 -15.53125 C 8.269531 -15.820312 8.890625 -16.050781 9.671875 -16.21875 C 10.140625 -16.3125 10.382812 -16.046875 10.40625 -15.421875 C 10.363281 -14.367188 10.265625 -12.976562 10.109375 -11.25 L 9.890625 -9.125 Z M 15.515625 -9.484375 C 15.535156 -10.335938 15.410156 -11.296875 15.140625 -12.359375 L 14.71875 -13.734375 L 14.28125 -15.09375 C 14.101562 -15.65625 13.929688 -16.082031 13.765625 -16.375 C 13.503906 -16.832031 13.160156 -17.1875 12.734375 -17.4375 C 12.179688 -17.757812 11.691406 -17.890625 11.265625 -17.828125 C 10.816406 -17.753906 10.554688 -17.476562 10.484375 -17 C 10.441406 -16.644531 10.25 -16.539062 9.90625 -16.6875 C 8.914062 -17.101562 7.722656 -17.003906 6.328125 -16.390625 C 4.066406 -15.378906 2.507812 -13.457031 1.65625 -10.625 C 0.550781 -6.96875 1.007812 -4.128906 3.03125 -2.109375 C 4.101562 -1.046875 4.984375 -0.425781 5.671875 -0.25 C 6.710938 0.0195312 7.894531 -0.382812 9.21875 -1.46875 L 9.3125 -1.546875 C 9.351562 -1.566406 9.378906 -1.570312 9.390625 -1.5625 C 9.472656 -1.539062 9.519531 -1.492188 9.53125 -1.421875 L 9.53125 -1.3125 L 9.515625 -1.21875 L 9.328125 2.078125 C 9.304688 2.460938 9.425781 2.78125 9.6875 3.03125 C 9.957031 3.289062 10.273438 3.410156 10.640625 3.390625 L 11.015625 3.328125 L 11.40625 3.28125 C 11.707031 3.25 11.960938 3.253906 12.171875 3.296875 C 12.722656 3.410156 13.289062 3.289062 13.875 2.9375 C 14.445312 2.570312 14.804688 2.125 14.953125 1.59375 L 15.15625 0.78125 C 15.21875 0.476562 15.257812 0.207031 15.28125 -0.03125 C 15.488281 -3.257812 15.566406 -6.410156 15.515625 -9.484375 Z M 15.515625 -9.484375 "/></g></g></g><g fill="#ffffff" fill-opacity="1"><g transform="translate(108.299528, 96.939042)"><g><path d="M 0.171875 -15.046875 C 0.0546875 -15.835938 0.0234375 -16.894531 0.078125 -18.21875 L 0.15625 -19.84375 C 0.175781 -20.46875 0.179688 -21.015625 0.171875 -21.484375 C 0.160156 -21.742188 0.273438 -21.921875 0.515625 -22.015625 C 0.710938 -22.109375 0.921875 -22.128906 1.140625 -22.078125 C 1.960938 -21.878906 2.59375 -21.519531 3.03125 -21 C 3.613281 -20.289062 4.050781 -19.390625 4.34375 -18.296875 C 4.445312 -17.898438 4.550781 -17.410156 4.65625 -16.828125 L 4.78125 -16.09375 L 4.921875 -15.359375 C 5.046875 -14.753906 5.144531 -14.054688 5.21875 -13.265625 L 5.375 -11.171875 C 5.414062 -10.453125 5.390625 -9.414062 5.296875 -8.0625 L 5.203125 -6.5 C 5.171875 -5.914062 5.164062 -5.394531 5.1875 -4.9375 C 5.257812 -3.425781 5.210938 -1.722656 5.046875 0.171875 C 5.003906 0.679688 4.753906 1.15625 4.296875 1.59375 C 3.835938 2.019531 3.351562 2.234375 2.84375 2.234375 C 2.726562 2.234375 2.617188 2.164062 2.515625 2.03125 C 2.128906 1.46875 1.898438 0.945312 1.828125 0.46875 L 1.546875 -1.1875 L 1.25 -2.84375 C 1.019531 -4.144531 0.859375 -5.25 0.765625 -6.15625 C 0.398438 -9.507812 0.203125 -12.472656 0.171875 -15.046875 Z M 0.171875 -15.046875 "/></g></g></g><g fill="#ffffff" fill-opacity="1"><g transform="translate(116.314464, 96.939042)"><g><path d="M 1.953125 -4.296875 C 1.890625 -3.546875 1.859375 -2.625 1.859375 -1.53125 L 1.921875 1.25 L 1.90625 1.390625 L 1.875 1.53125 C 1.84375 1.632812 1.769531 1.675781 1.65625 1.65625 C 1.164062 1.5625 0.851562 1.363281 0.71875 1.0625 C 0.59375 0.78125 0.507812 0.4375 0.46875 0.03125 L 0.4375 -0.46875 L 0.40625 -1 C 0.132812 -3.632812 0.0195312 -5.765625 0.0625 -7.390625 L 0.140625 -9.734375 L 0.265625 -12.078125 C 0.273438 -12.234375 0.320312 -12.445312 0.40625 -12.71875 C 0.445312 -12.914062 0.570312 -13.007812 0.78125 -13 C 0.96875 -12.988281 1.082031 -12.878906 1.125 -12.671875 C 1.175781 -12.347656 1.328125 -12.054688 1.578125 -11.796875 L 1.84375 -12.171875 L 2.078125 -12.546875 C 3.242188 -14.523438 5.003906 -15.394531 7.359375 -15.15625 C 7.734375 -15.113281 8.050781 -14.953125 8.3125 -14.671875 C 8.488281 -14.472656 8.671875 -14.171875 8.859375 -13.765625 C 8.972656 -13.523438 9.082031 -13.40625 9.1875 -13.40625 C 9.257812 -13.40625 9.390625 -13.5 9.578125 -13.6875 C 11.109375 -15.113281 12.53125 -15.914062 13.84375 -16.09375 C 14.425781 -16.175781 14.863281 -16.144531 15.15625 -16 C 15.445312 -15.84375 15.710938 -15.503906 15.953125 -14.984375 C 16.410156 -13.960938 16.71875 -12.71875 16.875 -11.25 C 16.925781 -10.78125 16.976562 -10.144531 17.03125 -9.34375 L 17.15625 -7.421875 L 17.296875 -5.765625 L 17.421875 -4.109375 C 17.472656 -2.867188 17.472656 -1.753906 17.421875 -0.765625 C 17.285156 1.304688 16.847656 2.9375 16.109375 4.125 C 15.765625 4.6875 15.304688 4.800781 14.734375 4.46875 L 14.25 4.171875 L 13.765625 3.84375 C 13.421875 3.59375 13.148438 3.328125 12.953125 3.046875 C 12.492188 2.390625 12.320312 1.613281 12.4375 0.71875 C 12.457031 0.519531 12.460938 0.285156 12.453125 0.015625 L 12.375 -0.703125 C 12.300781 -1.585938 12.273438 -2.628906 12.296875 -3.828125 L 12.3125 -5.40625 L 12.359375 -6.96875 L 12.40625 -8.15625 L 12.46875 -9.34375 C 12.519531 -10.289062 12.523438 -11.082031 12.484375 -11.71875 L 12.46875 -11.921875 L 12.453125 -12.140625 C 12.421875 -12.296875 12.347656 -12.398438 12.234375 -12.453125 C 12.097656 -12.492188 11.972656 -12.46875 11.859375 -12.375 L 11.71875 -12.234375 L 11.578125 -12.078125 L 11.234375 -11.6875 L 10.890625 -11.3125 C 10.617188 -11.039062 10.359375 -10.820312 10.109375 -10.65625 C 9.890625 -10.519531 9.78125 -10.320312 9.78125 -10.0625 L 9.796875 -6.59375 C 9.796875 -5.238281 9.851562 -4.09375 9.96875 -3.15625 C 10.125 -1.726562 10.003906 -0.300781 9.609375 1.125 C 9.515625 1.4375 9.316406 1.738281 9.015625 2.03125 C 8.679688 2.351562 8.316406 2.566406 7.921875 2.671875 L 7.140625 2.890625 C 6.421875 3.109375 6.035156 2.816406 5.984375 2.015625 C 5.898438 0.503906 5.84375 -1.546875 5.8125 -4.140625 L 5.78125 -7.234375 L 5.703125 -10.3125 C 5.691406 -10.613281 5.648438 -10.960938 5.578125 -11.359375 L 5.375 -12.375 C 5.320312 -12.625 5.179688 -12.679688 4.953125 -12.546875 C 4.304688 -12.160156 3.910156 -11.710938 3.765625 -11.203125 C 3.671875 -10.890625 3.492188 -10.519531 3.234375 -10.09375 L 2.890625 -9.578125 L 2.578125 -9.046875 C 2.328125 -8.585938 2.160156 -8.046875 2.078125 -7.421875 L 2.015625 -6.609375 L 1.96875 -5.78125 L 1.9375 -5.046875 Z M 1.953125 -4.296875 "/></g></g></g><g fill="#ffffff" fill-opacity="1"><g transform="translate(136.383966, 96.939042)"><g/></g></g><g fill="#ffffff" fill-opacity="1"><g transform="translate(144.103006, 96.939042)"><g><path d="M 9.703125 -6.96875 C 9.597656 -5.519531 8.867188 -4.523438 7.515625 -3.984375 C 7.210938 -3.867188 6.957031 -3.875 6.75 -4 C 6.582031 -4.101562 6.441406 -4.285156 6.328125 -4.546875 C 5.742188 -5.878906 5.566406 -7.175781 5.796875 -8.4375 C 5.835938 -8.707031 5.863281 -9.050781 5.875 -9.46875 L 5.890625 -10 L 5.921875 -10.515625 C 5.941406 -10.972656 6.046875 -11.546875 6.234375 -12.234375 L 6.46875 -13.046875 L 6.65625 -13.890625 C 6.78125 -14.585938 7.164062 -15.132812 7.8125 -15.53125 C 8.269531 -15.820312 8.890625 -16.050781 9.671875 -16.21875 C 10.140625 -16.3125 10.382812 -16.046875 10.40625 -15.421875 C 10.363281 -14.367188 10.265625 -12.976562 10.109375 -11.25 L 9.890625 -9.125 Z M 15.515625 -9.484375 C 15.535156 -10.335938 15.410156 -11.296875 15.140625 -12.359375 L 14.71875 -13.734375 L 14.28125 -15.09375 C 14.101562 -15.65625 13.929688 -16.082031 13.765625 -16.375 C 13.503906 -16.832031 13.160156 -17.1875 12.734375 -17.4375 C 12.179688 -17.757812 11.691406 -17.890625 11.265625 -17.828125 C 10.816406 -17.753906 10.554688 -17.476562 10.484375 -17 C 10.441406 -16.644531 10.25 -16.539062 9.90625 -16.6875 C 8.914062 -17.101562 7.722656 -17.003906 6.328125 -16.390625 C 4.066406 -15.378906 2.507812 -13.457031 1.65625 -10.625 C 0.550781 -6.96875 1.007812 -4.128906 3.03125 -2.109375 C 4.101562 -1.046875 4.984375 -0.425781 5.671875 -0.25 C 6.710938 0.0195312 7.894531 -0.382812 9.21875 -1.46875 L 9.3125 -1.546875 C 9.351562 -1.566406 9.378906 -1.570312 9.390625 -1.5625 C 9.472656 -1.539062 9.519531 -1.492188 9.53125 -1.421875 L 9.53125 -1.3125 L 9.515625 -1.21875 L 9.328125 2.078125 C 9.304688 2.460938 9.425781 2.78125 9.6875 3.03125 C 9.957031 3.289062 10.273438 3.410156 10.640625 3.390625 L 11.015625 3.328125 L 11.40625 3.28125 C 11.707031 3.25 11.960938 3.253906 12.171875 3.296875 C 12.722656 3.410156 13.289062 3.289062 13.875 2.9375 C 14.445312 2.570312 14.804688 2.125 14.953125 1.59375 L 15.15625 0.78125 C 15.21875 0.476562 15.257812 0.207031 15.28125 -0.03125 C 15.488281 -3.257812 15.566406 -6.410156 15.515625 -9.484375 Z M 15.515625 -9.484375 "/></g></g></g><g fill="#ffffff" fill-opacity="1"><g transform="translate(162.255614, 96.939042)"><g><path d="M 13.859375 -6.09375 C 13.796875 -5.320312 13.769531 -4.625 13.78125 -4 C 13.789062 -3.132812 13.859375 -2.34375 13.984375 -1.625 C 14.128906 -0.6875 13.695312 0.253906 12.6875 1.203125 C 12.363281 1.503906 11.988281 1.601562 11.5625 1.5 C 11.382812 1.457031 11.269531 1.351562 11.21875 1.1875 L 11.171875 0.953125 L 11.140625 0.71875 C 11.035156 0.164062 11.003906 -0.492188 11.046875 -1.265625 L 11.125 -2.25 L 11.1875 -3.25 C 11.25 -4.125 11.234375 -5.296875 11.140625 -6.765625 L 11.03125 -8.53125 L 10.984375 -10.3125 L 10.984375 -13.140625 C 10.984375 -14.234375 10.925781 -15.175781 10.8125 -15.96875 L 10.71875 -16.421875 C 10.507812 -17.441406 9.835938 -17.769531 8.703125 -17.40625 L 8.609375 -17.34375 L 8.5 -17.296875 C 8.425781 -17.265625 8.351562 -17.269531 8.28125 -17.3125 L 8.453125 -17.453125 L 8.640625 -17.5625 L 8.9375 -17.671875 L 9.25 -17.75 C 9.039062 -17.800781 8.773438 -17.769531 8.453125 -17.65625 C 7.628906 -17.375 6.945312 -16.800781 6.40625 -15.9375 C 6.269531 -15.71875 6.25 -15.441406 6.34375 -15.109375 L 6.484375 -14.703125 L 6.609375 -14.28125 C 7.285156 -11.332031 7.25 -8.179688 6.5 -4.828125 C 6.414062 -4.453125 6.378906 -4.144531 6.390625 -3.90625 C 6.441406 -2.925781 5.894531 -1.84375 4.75 -0.65625 C 4.332031 -0.226562 3.972656 0.0703125 3.671875 0.25 C 3.304688 0.457031 2.96875 0.46875 2.65625 0.28125 L 1.875 -0.171875 L 1.078125 -0.609375 C 0.671875 -0.804688 0.421875 -1.132812 0.328125 -1.59375 C 0.296875 -1.738281 0.273438 -1.941406 0.265625 -2.203125 L 0.25 -2.796875 C 0.0703125 -4.648438 0.0625 -7.054688 0.21875 -10.015625 L 0.421875 -13.609375 C 0.503906 -15.003906 0.546875 -16.203125 0.546875 -17.203125 C 0.546875 -18.066406 0.703125 -18.597656 1.015625 -18.796875 C 1.285156 -18.960938 1.957031 -19.015625 3.03125 -18.953125 C 3.65625 -18.921875 4.164062 -18.734375 4.5625 -18.390625 C 4.707031 -18.253906 4.859375 -18.082031 5.015625 -17.875 L 5.421875 -17.28125 C 5.628906 -16.945312 5.828125 -16.78125 6.015625 -16.78125 C 6.171875 -16.78125 6.375 -16.925781 6.625 -17.21875 C 7.25 -17.9375 8.191406 -18.296875 9.453125 -18.296875 C 10.523438 -18.296875 11.3125 -18.0625 11.8125 -17.59375 C 12.226562 -17.207031 12.566406 -16.515625 12.828125 -15.515625 C 13.390625 -13.335938 13.734375 -10.195312 13.859375 -6.09375 Z M 13.859375 -6.09375 "/></g></g></g><g fill="#ffffff" fill-opacity="1"><g transform="translate(179.03166, 96.939042)"><g><path d="M 5.953125 -6.328125 L 5.984375 -7.84375 L 6.03125 -9.328125 C 6.050781 -9.753906 5.859375 -9.898438 5.453125 -9.765625 C 4.835938 -9.554688 4.175781 -9.222656 3.46875 -8.765625 C 3.007812 -8.460938 2.75 -8.132812 2.6875 -7.78125 C 2.507812 -6.78125 2.457031 -5.941406 2.53125 -5.265625 C 2.675781 -4.003906 3.359375 -3.503906 4.578125 -3.765625 L 4.890625 -3.84375 L 5.1875 -3.9375 C 5.644531 -4.050781 5.875 -4.34375 5.875 -4.8125 L 5.9375 -5.578125 L 5.984375 -6.328125 Z M 10.546875 -9.15625 C 10.546875 -7.90625 10.585938 -6.460938 10.671875 -4.828125 C 10.804688 -2.210938 10.445312 -0.0820312 9.59375 1.5625 L 9.40625 1.96875 L 9.234375 2.375 C 9.066406 2.695312 8.914062 2.976562 8.78125 3.21875 C 8.582031 3.53125 8.390625 3.800781 8.203125 4.03125 C 7.703125 4.59375 7.203125 4.832031 6.703125 4.75 C 6.503906 4.71875 6.347656 4.460938 6.234375 3.984375 C 6.117188 3.515625 6.101562 3.140625 6.1875 2.859375 C 6.226562 2.679688 6.195312 2.476562 6.09375 2.25 L 5.953125 1.984375 C 5.910156 1.867188 5.890625 1.769531 5.890625 1.6875 L 5.8125 0.53125 L 5.71875 -0.625 C 5.707031 -0.851562 5.585938 -0.941406 5.359375 -0.890625 C 4.410156 -0.703125 3.40625 -0.988281 2.34375 -1.75 C 1.289062 -2.507812 0.671875 -3.375 0.484375 -4.34375 C 0.160156 -5.976562 0.390625 -7.234375 1.171875 -8.109375 C 2.316406 -9.398438 3.765625 -10.285156 5.515625 -10.765625 C 5.890625 -10.867188 6.082031 -11.101562 6.09375 -11.46875 C 6.238281 -14.375 6.382812 -17.039062 6.53125 -19.46875 C 6.5625 -19.851562 6.820312 -20.21875 7.3125 -20.5625 C 7.789062 -20.90625 8.269531 -21.066406 8.75 -21.046875 C 9.164062 -21.023438 9.519531 -20.890625 9.8125 -20.640625 C 10.09375 -20.390625 10.226562 -20.085938 10.21875 -19.734375 C 10.195312 -19.410156 10.210938 -19.03125 10.265625 -18.59375 L 10.390625 -17.46875 C 10.671875 -14.601562 10.722656 -11.832031 10.546875 -9.15625 Z M 10.546875 -9.15625 "/></g></g></g><g fill="#ffffff" fill-opacity="1"><g transform="translate(102.451419, 127.616124)"><g><path d="M 4.921875 -13.78125 L 4.921875 -13.328125 C 4.929688 -13.179688 4.957031 -13.046875 5 -12.921875 C 5.050781 -12.765625 5.148438 -12.71875 5.296875 -12.78125 L 5.71875 -12.953125 L 6.125 -13.171875 C 6.4375 -13.328125 6.691406 -13.5 6.890625 -13.6875 C 7.148438 -13.9375 7.300781 -14.21875 7.34375 -14.53125 C 7.414062 -15.25 7.382812 -15.882812 7.25 -16.4375 C 7.019531 -17.3125 6.515625 -18.003906 5.734375 -18.515625 C 5.503906 -18.648438 5.289062 -18.671875 5.09375 -18.578125 L 4.953125 -18.53125 L 4.796875 -18.484375 C 4.679688 -18.441406 4.628906 -18.351562 4.640625 -18.21875 L 4.84375 -15.328125 Z M 5.109375 -8.984375 C 4.941406 -7.847656 4.878906 -6.878906 4.921875 -6.078125 C 4.921875 -5.847656 4.898438 -5.570312 4.859375 -5.25 C 4.804688 -4.988281 4.785156 -4.703125 4.796875 -4.390625 L 4.78125 -3.46875 L 4.71875 -2.59375 L 4.703125 1.1875 C 4.703125 1.59375 4.640625 1.925781 4.515625 2.1875 L 4.421875 2.421875 L 4.328125 2.671875 C 4.253906 2.859375 4.179688 3.007812 4.109375 3.125 L 4 3.28125 L 3.90625 3.421875 C 3.71875 3.628906 3.5 3.675781 3.25 3.5625 L 2.515625 3.234375 L 1.796875 2.890625 C 1.316406 2.679688 1.046875 2.273438 0.984375 1.671875 L 0.890625 0.65625 L 0.796875 -0.265625 L 0.75 -1.203125 L 0.703125 -2 L 0.625 -2.796875 L 0.328125 -5.296875 C 0.273438 -5.722656 0.234375 -6.25 0.203125 -6.875 L 0.109375 -8.4375 C 0.0351562 -9.445312 0.00390625 -10.625 0.015625 -11.96875 L 0.03125 -13.734375 L 0.0625 -15.5 L 0.109375 -17.71875 L 0.140625 -19.9375 C 0.148438 -20.382812 0.273438 -20.753906 0.515625 -21.046875 C 0.722656 -21.296875 0.972656 -21.421875 1.265625 -21.421875 C 1.628906 -21.410156 1.898438 -21.390625 2.078125 -21.359375 L 3.296875 -21.109375 C 3.535156 -21.054688 3.710938 -20.910156 3.828125 -20.671875 C 4.003906 -20.316406 4.175781 -20.054688 4.34375 -19.890625 L 4.421875 -19.796875 L 4.484375 -19.671875 C 4.585938 -19.453125 4.765625 -19.367188 5.015625 -19.421875 L 5.125 -19.4375 L 5.21875 -19.453125 C 5.632812 -19.597656 6.070312 -19.523438 6.53125 -19.234375 C 6.976562 -18.960938 7.476562 -18.429688 8.03125 -17.640625 C 8.4375 -17.054688 8.6875 -16.472656 8.78125 -15.890625 C 8.90625 -15.109375 8.785156 -14.363281 8.421875 -13.65625 C 8.335938 -13.5 8.207031 -13.316406 8.03125 -13.109375 L 7.828125 -12.859375 L 7.625 -12.59375 C 7.539062 -12.46875 7.394531 -12.351562 7.1875 -12.25 L 6.84375 -12.109375 C 6.632812 -12.003906 6.582031 -11.851562 6.6875 -11.65625 L 7 -11.015625 L 7.34375 -10.375 L 8.21875 -8.96875 L 8.3125 -8.8125 L 8.40625 -8.671875 C 8.695312 -8.128906 9.09375 -7.46875 9.59375 -6.6875 L 10.1875 -5.734375 L 10.8125 -4.765625 L 11.015625 -4.46875 C 11.234375 -4.1875 11.46875 -3.851562 11.71875 -3.46875 L 12.375 -2.453125 L 13.171875 -1.203125 C 13.328125 -0.941406 13.460938 -0.660156 13.578125 -0.359375 C 13.703125 -0.00390625 13.71875 0.273438 13.625 0.484375 C 13.59375 0.578125 13.59375 0.675781 13.625 0.78125 C 13.65625 0.914062 13.648438 1.0625 13.609375 1.21875 L 13.546875 1.421875 L 13.46875 1.640625 C 13.4375 1.710938 13.375 1.765625 13.28125 1.796875 C 13.050781 1.890625 12.90625 1.929688 12.84375 1.921875 C 12.769531 1.898438 12.660156 1.789062 12.515625 1.59375 L 12.296875 1.25 C 12.191406 1.050781 12.046875 0.882812 11.859375 0.75 C 11.671875 0.59375 11.492188 0.382812 11.328125 0.125 L 10.734375 -0.765625 L 10.546875 -1.015625 C 10.304688 -1.273438 10.019531 -1.625 9.6875 -2.0625 L 9.296875 -2.59375 L 8.890625 -3.125 C 8.285156 -3.882812 7.816406 -4.523438 7.484375 -5.046875 L 6.921875 -5.90625 L 6.34375 -6.75 C 6.03125 -7.21875 5.753906 -7.710938 5.515625 -8.234375 L 5.328125 -8.609375 Z M 5.109375 -8.984375 "/></g></g></g><g fill="#ffffff" fill-opacity="1"><g transform="translate(118.494156, 127.616124)"><g><path d="M 5.5625 -11.21875 C 5.65625 -11.488281 5.753906 -11.820312 5.859375 -12.21875 L 6.09375 -13.234375 C 6.289062 -14.054688 6.5625 -14.695312 6.90625 -15.15625 L 6.953125 -15.21875 L 6.96875 -15.296875 C 7.050781 -16.066406 7.363281 -16.484375 7.90625 -16.546875 C 8.226562 -16.585938 8.597656 -16.453125 9.015625 -16.140625 C 9.410156 -15.828125 9.660156 -15.503906 9.765625 -15.171875 L 9.859375 -14.859375 L 9.953125 -14.5 C 10.003906 -14.238281 10.023438 -13.984375 10.015625 -13.734375 C 9.722656 -12.773438 9.078125 -12.03125 8.078125 -11.5 C 7.785156 -11.34375 7.4375 -11.222656 7.03125 -11.140625 L 6.46875 -11.015625 L 5.890625 -10.921875 C 5.742188 -10.898438 5.644531 -10.90625 5.59375 -10.9375 C 5.507812 -10.96875 5.5 -11.0625 5.5625 -11.21875 Z M 14.625 -8.140625 C 14.46875 -8.253906 14.328125 -8.257812 14.203125 -8.15625 L 14.046875 -8 L 13.90625 -7.84375 L 13.265625 -7.125 L 12.640625 -6.390625 C 12.140625 -5.847656 11.660156 -5.441406 11.203125 -5.171875 L 10.671875 -4.859375 L 10.125 -4.5625 C 9.6875 -4.363281 9.289062 -4.316406 8.9375 -4.421875 C 8.007812 -4.691406 7.1875 -5.300781 6.46875 -6.25 C 5.769531 -7.175781 5.394531 -8.140625 5.34375 -9.140625 C 5.3125 -9.796875 5.5625 -10.132812 6.09375 -10.15625 C 7.988281 -10.226562 9.644531 -10.890625 11.0625 -12.140625 C 11.59375 -12.617188 11.929688 -13.210938 12.078125 -13.921875 C 12.222656 -14.617188 12.128906 -15.195312 11.796875 -15.65625 C 10.710938 -17.09375 9.410156 -17.851562 7.890625 -17.9375 L 7.703125 -17.96875 L 7.5625 -18 L 7.3125 -18.03125 L 6.6875 -18.078125 L 6.046875 -18.078125 C 5.578125 -18.054688 5.191406 -17.90625 4.890625 -17.625 C 4.296875 -17.050781 3.6875 -16.300781 3.0625 -15.375 C 1.019531 -12.332031 0.160156 -9.628906 0.484375 -7.265625 C 0.878906 -4.367188 1.945312 -2.296875 3.6875 -1.046875 C 4.726562 -0.285156 5.875 0.0546875 7.125 -0.015625 C 8.34375 -0.078125 9.335938 -0.515625 10.109375 -1.328125 C 11.929688 -3.265625 13.390625 -5.300781 14.484375 -7.4375 L 14.609375 -7.578125 L 14.75 -7.75 C 14.832031 -7.875 14.789062 -8.003906 14.625 -8.140625 Z M 14.625 -8.140625 "/></g></g></g><g fill="#ffffff" fill-opacity="1"><g transform="translate(135.939185, 127.616124)"><g><path d="M 9.703125 -6.96875 C 9.597656 -5.519531 8.867188 -4.523438 7.515625 -3.984375 C 7.210938 -3.867188 6.957031 -3.875 6.75 -4 C 6.582031 -4.101562 6.441406 -4.285156 6.328125 -4.546875 C 5.742188 -5.878906 5.566406 -7.175781 5.796875 -8.4375 C 5.835938 -8.707031 5.863281 -9.050781 5.875 -9.46875 L 5.890625 -10 L 5.921875 -10.515625 C 5.941406 -10.972656 6.046875 -11.546875 6.234375 -12.234375 L 6.46875 -13.046875 L 6.65625 -13.890625 C 6.78125 -14.585938 7.164062 -15.132812 7.8125 -15.53125 C 8.269531 -15.820312 8.890625 -16.050781 9.671875 -16.21875 C 10.140625 -16.3125 10.382812 -16.046875 10.40625 -15.421875 C 10.363281 -14.367188 10.265625 -12.976562 10.109375 -11.25 L 9.890625 -9.125 Z M 15.515625 -9.484375 C 15.535156 -10.335938 15.410156 -11.296875 15.140625 -12.359375 L 14.71875 -13.734375 L 14.28125 -15.09375 C 14.101562 -15.65625 13.929688 -16.082031 13.765625 -16.375 C 13.503906 -16.832031 13.160156 -17.1875 12.734375 -17.4375 C 12.179688 -17.757812 11.691406 -17.890625 11.265625 -17.828125 C 10.816406 -17.753906 10.554688 -17.476562 10.484375 -17 C 10.441406 -16.644531 10.25 -16.539062 9.90625 -16.6875 C 8.914062 -17.101562 7.722656 -17.003906 6.328125 -16.390625 C 4.066406 -15.378906 2.507812 -13.457031 1.65625 -10.625 C 0.550781 -6.96875 1.007812 -4.128906 3.03125 -2.109375 C 4.101562 -1.046875 4.984375 -0.425781 5.671875 -0.25 C 6.710938 0.0195312 7.894531 -0.382812 9.21875 -1.46875 L 9.3125 -1.546875 C 9.351562 -1.566406 9.378906 -1.570312 9.390625 -1.5625 C 9.472656 -1.539062 9.519531 -1.492188 9.53125 -1.421875 L 9.53125 -1.3125 L 9.515625 -1.21875 L 9.328125 2.078125 C 9.304688 2.460938 9.425781 2.78125 9.6875 3.03125 C 9.957031 3.289062 10.273438 3.410156 10.640625 3.390625 L 11.015625 3.328125 L 11.40625 3.28125 C 11.707031 3.25 11.960938 3.253906 12.171875 3.296875 C 12.722656 3.410156 13.289062 3.289062 13.875 2.9375 C 14.445312 2.570312 14.804688 2.125 14.953125 1.59375 L 15.15625 0.78125 C 15.21875 0.476562 15.257812 0.207031 15.28125 -0.03125 C 15.488281 -3.257812 15.566406 -6.410156 15.515625 -9.484375 Z M 15.515625 -9.484375 "/></g></g></g><g fill="#ffffff" fill-opacity="1"><g transform="translate(154.091793, 127.616124)"><g><path d="M 5.953125 -6.328125 L 5.984375 -7.84375 L 6.03125 -9.328125 C 6.050781 -9.753906 5.859375 -9.898438 5.453125 -9.765625 C 4.835938 -9.554688 4.175781 -9.222656 3.46875 -8.765625 C 3.007812 -8.460938 2.75 -8.132812 2.6875 -7.78125 C 2.507812 -6.78125 2.457031 -5.941406 2.53125 -5.265625 C 2.675781 -4.003906 3.359375 -3.503906 4.578125 -3.765625 L 4.890625 -3.84375 L 5.1875 -3.9375 C 5.644531 -4.050781 5.875 -4.34375 5.875 -4.8125 L 5.9375 -5.578125 L 5.984375 -6.328125 Z M 10.546875 -9.15625 C 10.546875 -7.90625 10.585938 -6.460938 10.671875 -4.828125 C 10.804688 -2.210938 10.445312 -0.0820312 9.59375 1.5625 L 9.40625 1.96875 L 9.234375 2.375 C 9.066406 2.695312 8.914062 2.976562 8.78125 3.21875 C 8.582031 3.53125 8.390625 3.800781 8.203125 4.03125 C 7.703125 4.59375 7.203125 4.832031 6.703125 4.75 C 6.503906 4.71875 6.347656 4.460938 6.234375 3.984375 C 6.117188 3.515625 6.101562 3.140625 6.1875 2.859375 C 6.226562 2.679688 6.195312 2.476562 6.09375 2.25 L 5.953125 1.984375 C 5.910156 1.867188 5.890625 1.769531 5.890625 1.6875 L 5.8125 0.53125 L 5.71875 -0.625 C 5.707031 -0.851562 5.585938 -0.941406 5.359375 -0.890625 C 4.410156 -0.703125 3.40625 -0.988281 2.34375 -1.75 C 1.289062 -2.507812 0.671875 -3.375 0.484375 -4.34375 C 0.160156 -5.976562 0.390625 -7.234375 1.171875 -8.109375 C 2.316406 -9.398438 3.765625 -10.285156 5.515625 -10.765625 C 5.890625 -10.867188 6.082031 -11.101562 6.09375 -11.46875 C 6.238281 -14.375 6.382812 -17.039062 6.53125 -19.46875 C 6.5625 -19.851562 6.820312 -20.21875 7.3125 -20.5625 C 7.789062 -20.90625 8.269531 -21.066406 8.75 -21.046875 C 9.164062 -21.023438 9.519531 -20.890625 9.8125 -20.640625 C 10.09375 -20.390625 10.226562 -20.085938 10.21875 -19.734375 C 10.195312 -19.410156 10.210938 -19.03125 10.265625 -18.59375 L 10.390625 -17.46875 C 10.671875 -14.601562 10.722656 -11.832031 10.546875 -9.15625 Z M 10.546875 -9.15625 "/></g></g></g></svg>