<svg xmlns="http://www.w3.org/2000/svg" xmlns:xlink="http://www.w3.org/1999/xlink" width="360" zoomAndPan="magnify" viewBox="0 0 270 570" height="760" preserveAspectRatio="xMidYMid meet" version="1.0"><defs><g/><clipPath id="id1"><path d="M 0 288 L 270 288 L 270 570 L 0 570 Z M 0 288 " clip-rule="nonzero"/></clipPath><clipPath id="id2"><path d="M 186.25 197.34375 L 394.949219 444.195312 L 139.503906 660.15625 L -69.191406 413.304688 Z M 186.25 197.34375 " clip-rule="nonzero"/></clipPath><clipPath id="id3"><path d="M 186.25 197.34375 L 394.949219 444.195312 L 139.503906 660.15625 L -69.191406 413.304688 Z M 186.25 197.34375 " clip-rule="nonzero"/></clipPath><clipPath id="id4"><path d="M 67 213.476562 L 201 213.476562 L 201 570 L 67 570 Z M 67 213.476562 " clip-rule="nonzero"/></clipPath></defs><rect x="-27" width="324" fill="#ffffff" y="-57" height="684" fill-opacity="1"/><rect x="-27" width="324" fill="#d95202" y="-57" height="684" fill-opacity="1"/><rect x="-27" width="324" fill="#ffffff" y="-57" height="684" fill-opacity="1"/><rect x="-27" width="324" fill="#d95202" y="-57" height="684" fill-opacity="1"/><g clip-path="url(#id1)"><g clip-path="url(#id2)"><g clip-path="url(#id3)"><path fill="#f27406" d="M 272.828125 544.738281 C 294.09375 518.484375 304.449219 485.601562 310.59375 452.789062 C 315.988281 423.835938 317.324219 393.785156 310.007812 365.035156 C 306.5 351.101562 301.515625 336.238281 292.804688 324.699219 C 284.136719 313.210938 272.589844 303.980469 259.664062 297.660156 C 246.613281 291.183594 231.84375 287.726562 217.324219 288.070312 C 200.871094 288.390625 185.398438 293.890625 169.910156 299.058594 C 134.75 310.839844 97.605469 314.710938 62.273438 326.289062 C 31.019531 336.507812 0.59375 354.304688 -15.324219 384.3125 C -30.46875 412.96875 -25.464844 445.675781 -9.917969 473.128906 C 7.945312 504.460938 37.097656 527.8125 68.8125 544.207031 C 84.691406 552.476562 101.363281 559.117188 118.289062 565.019531 C 135.03125 570.8125 151.972656 576.527344 169.1875 580.613281 C 184.785156 584.328125 200.671875 585.707031 216.339844 581.78125 C 231.238281 578.070312 245.125 570.597656 256.945312 560.777344 C 262.832031 555.890625 268.054688 550.429688 272.828125 544.738281 " fill-opacity="1" fill-rule="nonzero"/></g></g></g><path fill="#ffcc99" d="M -45.753906 445.253906 C -78.011719 485.9375 -89.679688 555.84375 -45.753906 601.375 C -1.828125 646.910156 71.078125 629.023438 122.546875 637.148438 C 174.011719 645.269531 237.476562 645.269531 250.457031 573.726562 C 263.503906 502.183594 232.558594 484.300781 144.640625 433.851562 C 56.71875 383.40625 16.136719 367.160156 -45.753906 445.253906 Z M -45.753906 445.253906 " fill-opacity="1" fill-rule="nonzero"/><path fill="#e6e6e6" d="M 80.300781 217.425781 C 84.949219 214.226562 95.011719 220.832031 102.78125 232.175781 C 104.140625 234.160156 105.339844 236.160156 106.367188 238.125 C 102.988281 238.152344 99.582031 239.152344 96.589844 241.214844 C 93.597656 243.273438 91.441406 246.097656 90.203125 249.25 C 88.742188 247.582031 87.3125 245.742188 85.953125 243.757812 C 78.1875 232.414062 75.65625 220.621094 80.300781 217.425781 " fill-opacity="1" fill-rule="evenodd"/><path fill="#cccccc" d="M 84.46875 223.507812 C 87.050781 221.730469 92.640625 225.398438 96.957031 231.703125 C 98.695312 234.242188 99.964844 236.828125 100.6875 239.125 C 99.269531 239.621094 97.890625 240.320312 96.589844 241.214844 C 95.289062 242.109375 94.148438 243.148438 93.171875 244.292969 C 91.296875 242.789062 89.347656 240.679688 87.605469 238.132812 C 83.292969 231.832031 81.886719 225.289062 84.46875 223.507812 " fill-opacity="1" fill-rule="evenodd"/><path fill="#e6e6e6" d="M 186.839844 217.425781 C 182.191406 214.226562 172.128906 220.832031 164.363281 232.175781 C 163.003906 234.160156 161.804688 236.160156 160.777344 238.125 C 164.152344 238.152344 167.558594 239.152344 170.550781 241.214844 C 173.546875 243.273438 175.699219 246.097656 176.9375 249.25 C 178.398438 247.582031 179.828125 245.742188 181.1875 243.757812 C 188.957031 232.414062 191.488281 220.621094 186.839844 217.425781 " fill-opacity="1" fill-rule="evenodd"/><path fill="#cccccc" d="M 182.675781 223.507812 C 180.09375 221.730469 174.503906 225.398438 170.1875 231.703125 C 168.445312 234.242188 167.179688 236.828125 166.457031 239.125 C 167.875 239.621094 169.253906 240.320312 170.550781 241.214844 C 171.851562 242.109375 172.992188 243.148438 173.96875 244.292969 C 175.84375 242.789062 177.792969 240.679688 179.535156 238.132812 C 183.847656 231.832031 185.253906 225.289062 182.675781 223.507812 " fill-opacity="1" fill-rule="evenodd"/><g clip-path="url(#id4)"><path fill="#ffffff" d="M 192.675781 409.117188 C 196.941406 407.628906 200.003906 403.566406 200.003906 398.78125 C 200.003906 394 196.941406 389.9375 192.675781 388.449219 C 196.941406 386.964844 200.003906 382.902344 200.003906 378.121094 C 200.003906 373.335938 196.941406 369.273438 192.675781 367.789062 C 196.941406 366.304688 200.003906 362.238281 200.003906 357.457031 C 200.003906 352.671875 196.941406 348.609375 192.675781 347.121094 C 196.941406 345.636719 200.003906 341.574219 200.003906 336.792969 C 200.003906 332.007812 196.941406 327.945312 192.675781 326.460938 C 196.941406 324.976562 200.003906 320.910156 200.003906 316.128906 C 200.003906 311.347656 196.941406 307.28125 192.675781 305.796875 C 196.941406 304.3125 200.003906 300.246094 200.003906 295.464844 C 200.003906 290.636719 196.882812 286.542969 192.558594 285.09375 C 196.75 283.566406 199.746094 279.539062 199.746094 274.808594 C 199.746094 269.019531 195.257812 264.28125 189.578125 263.898438 C 192.277344 261.910156 194.03125 258.703125 194.03125 255.082031 C 194.03125 249.042969 189.148438 244.152344 183.128906 244.152344 C 181.992188 244.152344 180.902344 244.320312 179.875 244.640625 C 180.957031 242.949219 181.582031 240.929688 181.582031 238.761719 C 181.582031 232.722656 176.699219 227.828125 170.679688 227.828125 C 168.113281 227.828125 165.753906 228.71875 163.890625 230.203125 C 164.03125 229.503906 164.109375 228.777344 164.109375 228.03125 C 164.109375 221.992188 159.226562 217.101562 153.203125 217.101562 C 149.179688 217.101562 145.671875 219.28125 143.777344 222.527344 C 142.886719 217.386719 138.414062 213.476562 133.035156 213.476562 C 127.582031 213.476562 123.066406 217.488281 122.257812 222.726562 C 120.339844 219.582031 116.886719 217.480469 112.9375 217.480469 C 106.917969 217.480469 102.03125 222.375 102.03125 228.414062 C 102.03125 229.226562 102.121094 230.019531 102.289062 230.78125 C 100.453125 229.371094 98.160156 228.53125 95.667969 228.53125 C 89.644531 228.53125 84.761719 233.429688 84.761719 239.46875 C 84.761719 241.699219 85.429688 243.777344 86.578125 245.511719 C 85.601562 245.222656 84.570312 245.070312 83.5 245.070312 C 77.476562 245.070312 72.59375 249.964844 72.59375 256 C 72.59375 259.699219 74.425781 262.964844 77.226562 264.945312 C 71.648438 265.429688 67.273438 270.121094 67.273438 275.839844 C 67.273438 280.585938 70.289062 284.625 74.503906 286.136719 C 70.195312 287.597656 67.09375 291.683594 67.09375 296.496094 C 67.09375 301.28125 70.15625 305.34375 74.421875 306.828125 C 70.15625 308.3125 67.09375 312.378906 67.09375 317.160156 C 67.09375 321.941406 70.15625 326.007812 74.421875 327.492188 C 70.15625 328.976562 67.09375 333.042969 67.09375 337.824219 C 67.09375 342.605469 70.15625 346.671875 74.421875 348.15625 C 70.15625 349.640625 67.09375 353.707031 67.09375 358.488281 C 67.09375 363.269531 70.15625 367.335938 74.421875 368.820312 C 70.15625 370.304688 67.09375 374.371094 67.09375 379.152344 C 67.09375 383.933594 70.15625 388 74.421875 389.484375 C 70.15625 390.96875 67.09375 395.03125 67.09375 399.816406 C 67.09375 404.597656 70.15625 408.664062 74.421875 410.148438 C 74.042969 410.277344 73.675781 410.433594 73.316406 410.601562 L 73.300781 410.601562 C 69.628906 412.363281 67.09375 416.117188 67.09375 420.472656 L 67.09375 420.480469 C 67.09375 424.832031 69.628906 428.589844 73.300781 430.347656 L 73.316406 430.347656 C 73.675781 430.519531 74.042969 430.671875 74.421875 430.804688 C 70.15625 432.289062 67.09375 436.355469 67.09375 441.136719 C 67.09375 445.917969 70.15625 449.980469 74.421875 451.46875 C 70.15625 452.953125 67.09375 457.015625 67.09375 461.796875 C 67.09375 466.582031 70.15625 470.644531 74.421875 472.128906 C 70.15625 473.613281 67.09375 477.679688 67.09375 482.460938 C 67.09375 487.246094 70.15625 491.308594 74.421875 492.792969 C 70.15625 494.277344 67.09375 498.34375 67.09375 503.125 C 67.09375 507.910156 70.15625 511.972656 74.421875 513.457031 C 70.15625 514.941406 67.09375 519.007812 67.09375 523.789062 C 67.09375 528.570312 70.15625 532.636719 74.421875 534.121094 C 70.15625 535.605469 67.09375 539.671875 67.09375 544.453125 C 67.09375 549.269531 70.195312 553.351562 74.503906 554.8125 C 70.289062 556.328125 67.273438 560.367188 67.273438 565.113281 C 67.273438 570.828125 71.648438 575.519531 77.226562 576.003906 C 74.425781 577.984375 72.59375 581.25 72.59375 584.949219 C 72.59375 590.988281 77.476562 595.878906 83.5 595.878906 C 84.570312 595.878906 85.601562 595.730469 86.578125 595.441406 C 85.429688 597.175781 84.761719 599.25 84.761719 601.484375 C 84.761719 607.519531 89.644531 612.414062 95.667969 612.414062 C 98.160156 612.414062 100.453125 611.582031 102.289062 610.167969 C 102.121094 610.933594 102.03125 611.722656 102.03125 612.535156 C 102.03125 618.574219 106.917969 623.46875 112.9375 623.46875 C 116.886719 623.46875 120.339844 621.367188 122.257812 618.222656 C 123.066406 623.460938 127.582031 627.472656 133.035156 627.472656 C 138.414062 627.472656 142.886719 623.566406 143.777344 618.421875 C 145.671875 621.671875 149.179688 623.851562 153.203125 623.851562 C 159.226562 623.851562 164.109375 618.957031 164.109375 612.917969 C 164.109375 612.175781 164.03125 611.445312 163.890625 610.75 C 165.753906 612.230469 168.113281 613.125 170.679688 613.125 C 176.699219 613.125 181.582031 608.226562 181.582031 602.1875 C 181.582031 600.023438 180.957031 598.007812 179.875 596.304688 C 180.902344 596.628906 181.992188 596.804688 183.128906 596.804688 C 189.148438 596.804688 194.03125 591.90625 194.03125 585.867188 C 194.03125 582.25 192.277344 579.039062 189.578125 577.050781 C 195.257812 576.667969 199.746094 571.929688 199.746094 566.140625 C 199.746094 561.410156 196.75 557.382812 192.558594 555.859375 C 196.882812 554.410156 200.003906 550.3125 200.003906 545.484375 C 200.003906 540.703125 196.941406 536.636719 192.675781 535.152344 C 196.941406 533.667969 200.003906 529.605469 200.003906 524.820312 C 200.003906 520.039062 196.941406 515.976562 192.675781 514.492188 C 196.941406 513.003906 200.003906 508.941406 200.003906 504.160156 C 200.003906 499.378906 196.941406 495.3125 192.675781 493.828125 C 196.941406 492.34375 200.003906 488.277344 200.003906 483.496094 C 200.003906 478.710938 196.941406 474.648438 192.675781 473.164062 C 196.941406 471.675781 200.003906 467.613281 200.003906 462.832031 C 200.003906 458.050781 196.941406 453.984375 192.675781 452.5 C 196.941406 451.015625 200.003906 446.949219 200.003906 442.167969 C 200.003906 437.382812 196.941406 433.320312 192.675781 431.835938 C 202.507812 428.414062 202.507812 412.535156 192.675781 409.117188 " fill-opacity="1" fill-rule="evenodd"/></g><path fill="#e6e6e6" d="M 159.324219 270.125 C 158.203125 272.082031 157.5625 274.351562 157.5625 276.773438 C 157.5625 282.582031 161.257812 287.523438 166.421875 289.367188 C 161.742188 291.441406 158.480469 296.132812 158.480469 301.589844 C 158.480469 304.367188 159.324219 306.949219 160.773438 309.082031 C 159.847656 308.882812 158.886719 308.773438 157.902344 308.773438 C 150.710938 308.773438 144.851562 314.484375 144.585938 321.628906 C 142.144531 318.84375 138.5625 317.085938 134.574219 317.085938 C 130.34375 317.085938 126.578125 319.058594 124.132812 322.140625 C 123.542969 315.308594 117.824219 309.953125 110.859375 309.953125 C 109.640625 309.953125 108.464844 310.117188 107.34375 310.421875 C 108.570312 308.402344 109.277344 306.027344 109.277344 303.488281 C 109.277344 297.792969 105.726562 292.933594 100.722656 291.007812 C 105.558594 289.003906 108.960938 284.226562 108.960938 278.65625 C 108.960938 276 108.183594 273.519531 106.851562 271.4375 C 107.875 271.691406 108.945312 271.828125 110.050781 271.828125 C 117.132812 271.828125 122.925781 266.285156 123.351562 259.292969 C 125.796875 262.226562 129.46875 264.09375 133.582031 264.09375 C 137.042969 264.09375 140.195312 262.769531 142.5625 260.601562 C 144.019531 266.398438 149.253906 270.691406 155.488281 270.691406 C 156.824219 270.691406 158.109375 270.492188 159.324219 270.125 " fill-opacity="1" fill-rule="evenodd"/><path fill="#000000" d="M 113.046875 282.613281 C 113.046875 282.035156 113.511719 281.570312 114.089844 281.570312 C 114.667969 281.570312 115.132812 282.035156 115.132812 282.613281 C 115.132812 284.285156 115.4375 285.78125 115.925781 286.839844 C 116.300781 287.65625 116.730469 288.164062 117.125 288.164062 C 117.519531 288.164062 117.949219 287.65625 118.324219 286.839844 C 118.8125 285.78125 119.117188 284.289062 119.117188 282.613281 C 119.117188 282.035156 119.585938 281.570312 120.160156 281.570312 C 120.738281 281.570312 121.207031 282.035156 121.207031 282.613281 C 121.207031 284.585938 120.828125 286.390625 120.21875 287.71875 C 119.496094 289.289062 118.40625 290.257812 117.125 290.257812 C 115.84375 290.257812 114.753906 289.289062 114.035156 287.71875 C 113.421875 286.390625 113.046875 284.585938 113.046875 282.613281 " fill-opacity="1" fill-rule="evenodd"/><path fill="#000000" d="M 145.9375 282.613281 C 145.9375 282.035156 146.40625 281.570312 146.980469 281.570312 C 147.558594 281.570312 148.027344 282.035156 148.027344 282.613281 C 148.027344 284.289062 148.328125 285.78125 148.816406 286.839844 C 149.191406 287.65625 149.621094 288.164062 150.015625 288.164062 C 150.410156 288.164062 150.839844 287.65625 151.214844 286.839844 C 151.707031 285.78125 152.007812 284.285156 152.007812 282.613281 C 152.007812 282.035156 152.476562 281.570312 153.054688 281.570312 C 153.628906 281.570312 154.097656 282.035156 154.097656 282.613281 C 154.097656 284.585938 153.71875 286.390625 153.109375 287.71875 C 152.386719 289.289062 151.300781 290.257812 150.015625 290.257812 C 148.734375 290.257812 147.644531 289.289062 146.921875 287.71875 C 146.3125 286.390625 145.9375 284.585938 145.9375 282.613281 " fill-opacity="1" fill-rule="evenodd"/><path fill="#ff9999" d="M 134.632812 309.933594 L 138.484375 307.140625 L 138.863281 306.863281 C 139.511719 306.394531 139.773438 305.59375 139.527344 304.832031 C 139.277344 304.066406 138.601562 303.570312 137.800781 303.570312 L 129.34375 303.570312 C 128.542969 303.570312 127.863281 304.066406 127.617188 304.832031 C 127.371094 305.59375 127.632812 306.394531 128.28125 306.863281 L 128.65625 307.140625 L 132.507812 309.933594 C 133.152344 310.402344 133.988281 310.402344 134.632812 309.933594 " fill-opacity="1" fill-rule="evenodd"/><path fill="#ffffff" d="M 147.886719 298.121094 L 147.886719 297.109375 C 147.886719 294.601562 145.839844 292.546875 143.335938 292.546875 L 138.121094 292.546875 C 135.617188 292.546875 133.570312 294.601562 133.570312 297.109375 C 133.570312 294.601562 131.523438 292.546875 129.019531 292.546875 L 123.808594 292.546875 C 121.304688 292.546875 119.257812 294.601562 119.257812 297.109375 L 119.257812 304.589844 C 119.257812 307.097656 121.304688 309.152344 123.808594 309.152344 L 129.019531 309.152344 C 130.78125 309.152344 132.316406 308.136719 133.070312 306.660156 C 133.171875 306.46875 133.355469 306.355469 133.570312 306.355469 C 133.785156 306.355469 133.972656 306.46875 134.070312 306.660156 C 134.828125 308.136719 136.363281 309.152344 138.121094 309.152344 L 143.335938 309.152344 C 145.839844 309.152344 147.886719 307.097656 147.886719 304.589844 L 147.886719 298.121094 " fill-opacity="1" fill-rule="evenodd"/><path fill="#7b6a56" d="M 134.632812 297.769531 L 138.484375 294.972656 L 138.863281 294.699219 C 139.511719 294.230469 139.773438 293.429688 139.527344 292.667969 C 139.277344 291.902344 138.601562 291.40625 137.800781 291.40625 L 129.34375 291.40625 C 128.542969 291.40625 127.863281 291.902344 127.617188 292.667969 C 127.371094 293.429688 127.632812 294.230469 128.28125 294.699219 L 128.65625 294.972656 L 132.507812 297.769531 C 133.152344 298.238281 133.988281 298.238281 134.632812 297.769531 " fill-opacity="1" fill-rule="evenodd"/><path fill="#ffffff" d="M 164.03125 361.070312 C 164.96875 361.148438 165.914062 361.195312 166.871094 361.195312 C 185.367188 361.195312 200.363281 346.210938 200.363281 327.730469 C 200.363281 321.210938 198.496094 315.128906 195.269531 309.984375 C 192.101562 304.933594 190.535156 299.882812 190.289062 293.925781 C 189.941406 285.480469 189.714844 277.574219 189.160156 270.300781 C 188.085938 256.3125 189.082031 248.976562 179.109375 235.933594 C 169.140625 222.890625 159.957031 216.140625 159.957031 216.140625 C 151.53125 216.140625 143.089844 216.140625 134.664062 216.140625 C 126.242188 216.140625 117.816406 216.140625 109.390625 216.140625 C 109.390625 216.140625 100.78125 222.890625 90.832031 235.933594 C 80.882812 248.976562 81.835938 256.3125 80.753906 270.300781 C 80.195312 277.570312 79.976562 285.46875 79.632812 293.90625 C 79.390625 299.871094 77.824219 304.929688 74.652344 309.988281 C 71.425781 315.128906 69.5625 321.210938 69.5625 327.730469 C 69.5625 346.210938 84.554688 361.195312 103.054688 361.195312 C 104.011719 361.195312 104.960938 361.148438 105.898438 361.070312 C 109.722656 385.621094 160.222656 385.636719 164.03125 361.070312 " fill-opacity="1" fill-rule="evenodd"/><path fill="#ffcc99" d="M 134.960938 266.195312 C 182.496094 234.351562 189.40625 282.683594 178 295.816406 C 169.46875 305.640625 152.851562 316.324219 153.121094 330.355469 C 153.394531 344.382812 138.835938 337.667969 134.960938 335.914062 C 131.089844 337.667969 116.53125 344.382812 116.800781 330.355469 C 117.070312 316.324219 100.457031 305.640625 91.921875 295.816406 C 80.519531 282.683594 87.429688 234.351562 134.960938 266.195312 " fill-opacity="1" fill-rule="evenodd"/><path fill="#e6e6e6" d="M 144.527344 366.882812 C 140.886719 369.269531 138.539062 371.320312 137.011719 373.03125 C 135.578125 374.640625 134.960938 376.300781 134.960938 377.347656 C 134.960938 376.300781 134.460938 374.675781 133.082031 373.105469 C 131.613281 371.429688 129.265625 369.425781 125.398438 366.882812 C 127.007812 367.960938 128.546875 368.875 130.226562 369.402344 C 131.773438 369.886719 133.445312 370.027344 135.054688 370.089844 C 136.632812 370.011719 138.277344 369.859375 139.792969 369.375 C 141.441406 368.847656 142.949219 367.941406 144.527344 366.882812 " fill-opacity="1" fill-rule="evenodd"/><path fill="#dba36b" d="M 134.960938 367.964844 C 140.898438 367.960938 146.394531 362.691406 149.992188 356.296875 C 154.085938 349.011719 156.21875 341.203125 156.21875 336.339844 C 156.21875 331.46875 153.945312 330.890625 149.992188 331.363281 C 146.171875 331.820312 140.898438 334.347656 134.960938 334.34375 C 129.027344 334.34375 123.746094 331.820312 119.929688 331.359375 C 115.972656 330.882812 113.707031 331.46875 113.707031 336.339844 C 113.707031 341.203125 115.832031 349.007812 119.929688 356.296875 C 123.527344 362.695312 129.027344 367.964844 134.960938 367.964844 " fill-opacity="1" fill-rule="evenodd"/><path fill="#ffffff" d="M 119.609375 343.441406 C 119.558594 343.964844 119.53125 344.492188 119.53125 345.03125 C 119.53125 353.546875 126.4375 360.449219 134.960938 360.449219 C 143.484375 360.449219 150.394531 353.546875 150.394531 345.03125 C 150.394531 344.492188 150.367188 343.964844 150.3125 343.441406 L 119.609375 343.441406 " fill-opacity="1" fill-rule="evenodd"/><path fill="#a80403" d="M 119.839844 348.121094 C 124.359375 347 129.503906 346.363281 134.960938 346.363281 C 140.421875 346.363281 145.566406 347 150.085938 348.121094 C 149.363281 351.667969 147.421875 354.773438 144.71875 356.976562 C 141.765625 356.003906 138.457031 355.457031 134.960938 355.457031 C 131.46875 355.457031 128.15625 356.003906 125.207031 356.976562 C 122.503906 354.773438 120.5625 351.667969 119.839844 348.121094 " fill-opacity="1" fill-rule="evenodd"/><path fill="#e6e6e6" d="M 134.960938 314.230469 L 115.996094 314.230469 C 112.375 322.207031 98.484375 351.945312 117.972656 351.945312 C 118.917969 351.945312 119.859375 351.945312 120.800781 351.945312 C 128.589844 351.945312 134.960938 345.636719 134.960938 337.796875 C 134.960938 345.636719 141.335938 351.945312 149.121094 351.945312 C 150.066406 351.945312 151.007812 351.945312 151.949219 351.945312 C 171.441406 351.945312 157.546875 322.207031 153.929688 314.230469 L 134.960938 314.230469 " fill-opacity="1" fill-rule="evenodd"/><path fill="#ffffff" d="M 130.449219 257.855469 C 131.953125 257.855469 133.453125 257.855469 134.957031 257.855469 C 136.457031 257.855469 137.960938 257.855469 139.46875 257.855469 C 141.136719 257.855469 142.824219 259.019531 144.304688 260.832031 C 145.808594 262.679688 147.132812 265.1875 147.640625 267.972656 C 148.921875 275.078125 150.046875 282.175781 150.847656 289.289062 C 151.644531 296.378906 152.113281 303.492188 152.421875 310.597656 C 152.546875 313.378906 151.425781 315.917969 149.613281 317.742188 C 147.792969 319.574219 145.261719 320.710938 142.480469 320.710938 C 139.96875 320.710938 137.464844 320.710938 134.960938 320.710938 C 132.453125 320.710938 129.949219 320.710938 127.441406 320.710938 C 124.65625 320.710938 122.121094 319.574219 120.304688 317.742188 C 118.488281 315.917969 117.378906 313.378906 117.5 310.597656 C 117.808594 303.492188 118.28125 296.378906 119.078125 289.289062 C 119.878906 282.175781 121 275.074219 122.285156 267.972656 C 122.789062 265.1875 124.105469 262.679688 125.613281 260.832031 C 127.09375 259.023438 128.777344 257.855469 130.449219 257.855469 " fill-opacity="1" fill-rule="evenodd"/><path fill="#333333" d="M 134.207031 330.480469 C 134.273438 330.625 134.335938 330.765625 134.394531 330.902344 C 134.578125 330.875 134.769531 330.863281 134.960938 330.863281 C 135.15625 330.863281 135.347656 330.875 135.53125 330.902344 C 135.585938 330.765625 135.648438 330.628906 135.71875 330.480469 C 140.460938 320.316406 153.058594 327.21875 153.777344 318.457031 L 153.777344 311.957031 L 150.855469 306.902344 C 120.339844 315.070312 149.585938 315.070312 119.070312 306.902344 L 116.148438 311.957031 L 116.148438 318.457031 C 116.867188 327.21875 129.464844 320.316406 134.207031 330.480469 " fill-opacity="1" fill-rule="evenodd"/><path fill="#000000" d="M 121.558594 312.84375 C 130.277344 316.722656 130.75 331.113281 134.960938 330.972656 C 139.175781 331.113281 139.648438 316.722656 148.367188 312.84375 C 152.308594 316.117188 152.570312 319.175781 151.492188 321.488281 C 151.347656 321.796875 151.441406 322.15625 151.71875 322.351562 C 151.996094 322.546875 152.363281 322.515625 152.609375 322.28125 C 156.148438 318.816406 155.535156 313.800781 153.722656 308.496094 C 151.746094 302.707031 138.914062 308.597656 134.960938 310.574219 C 131.011719 308.597656 118.179688 302.707031 116.199219 308.496094 C 114.386719 313.800781 113.777344 318.816406 117.316406 322.28125 C 117.558594 322.515625 117.929688 322.546875 118.207031 322.351562 C 118.484375 322.15625 118.578125 321.796875 118.433594 321.488281 C 117.355469 319.175781 117.617188 316.117188 121.558594 312.84375 " fill-opacity="1" fill-rule="evenodd"/><path fill="#ffffff" d="M 190.832031 136.746094 C 198.90625 140.679688 205.171875 153.804688 208.097656 165.046875 C 212.527344 182.054688 210.839844 191.964844 207.703125 205.414062 C 205.277344 215.820312 201.570312 226.242188 196.789062 233.9375 C 183.289062 255.667969 183.179688 251.214844 166.03125 236.808594 C 164.929688 235.886719 161.746094 230.164062 161 228.574219 C 157.597656 221.320312 156.664062 216.359375 161.347656 216.210938 C 172.101562 215.875 171.144531 172.019531 176.308594 149.074219 C 178.304688 140.195312 182.921875 132.886719 190.832031 136.746094 " fill-opacity="1" fill-rule="evenodd"/><path fill="#ffcc99" d="M 191.304688 145.941406 C 195.921875 147.960938 201.40625 155.324219 204.558594 166.160156 C 210.730469 187.394531 202.675781 217.125 193.183594 230.808594 C 188.332031 237.804688 183.722656 241.003906 181.585938 240.050781 C 179.441406 239.136719 180.441406 234.257812 181.953125 225.902344 C 186.128906 202.839844 183.613281 180.96875 184.335938 157.328125 C 184.605469 148.503906 186.683594 143.925781 191.304688 145.941406 " fill-opacity="1" fill-rule="evenodd"/><path fill="#ffffff" d="M 79.125 136.746094 C 71.050781 140.679688 64.785156 153.804688 61.859375 165.046875 C 57.429688 182.054688 59.117188 191.964844 62.253906 205.414062 C 64.679688 215.820312 68.386719 226.242188 73.167969 233.9375 C 86.667969 255.667969 86.777344 251.214844 103.925781 236.808594 C 105.027344 235.886719 108.210938 230.164062 108.957031 228.574219 C 112.359375 221.320312 113.292969 216.359375 108.605469 216.210938 C 97.855469 215.875 98.8125 172.019531 93.652344 149.074219 C 91.652344 140.195312 87.035156 132.886719 79.125 136.746094 " fill-opacity="1" fill-rule="evenodd"/><path fill="#ffcc99" d="M 78.65625 145.941406 C 74.035156 147.960938 68.546875 155.324219 65.398438 166.160156 C 59.226562 187.394531 67.28125 217.125 76.773438 230.808594 C 81.625 237.804688 86.234375 241.003906 88.371094 240.050781 C 90.515625 239.136719 89.515625 234.257812 88.003906 225.902344 C 83.832031 202.839844 86.34375 180.96875 85.621094 157.328125 C 85.347656 148.503906 83.277344 143.925781 78.65625 145.941406 " fill-opacity="1" fill-rule="evenodd"/><path fill="#ffffff" d="M 82.824219 266.195312 C 89.320312 266.195312 94.617188 260.90625 94.617188 254.414062 C 94.617188 247.925781 89.320312 242.632812 82.824219 242.632812 C 76.332031 242.632812 71.03125 247.925781 71.03125 254.414062 C 71.03125 260.90625 76.332031 266.195312 82.824219 266.195312 " fill-opacity="1" fill-rule="evenodd"/><path fill="#ffffff" d="M 90.453125 250.257812 C 96.949219 250.257812 102.246094 244.964844 102.246094 238.472656 C 102.246094 231.984375 96.949219 226.691406 90.453125 226.691406 C 83.957031 226.691406 78.660156 231.984375 78.660156 238.472656 C 78.660156 244.964844 83.957031 250.257812 90.453125 250.257812 " fill-opacity="1" fill-rule="evenodd"/><path fill="#ffffff" d="M 99 239.570312 C 105.496094 239.570312 110.792969 234.277344 110.792969 227.785156 C 110.792969 221.296875 105.496094 216.003906 99 216.003906 C 92.507812 216.003906 87.207031 221.296875 87.207031 227.785156 C 87.207031 234.277344 92.507812 239.570312 99 239.570312 " fill-opacity="1" fill-rule="evenodd"/><path fill="#ffffff" d="M 111.050781 228.109375 C 117.542969 228.109375 122.839844 222.816406 122.839844 216.328125 C 122.839844 209.835938 117.542969 204.546875 111.050781 204.546875 C 104.554688 204.546875 99.257812 209.835938 99.257812 216.328125 C 99.257812 222.816406 104.554688 228.109375 111.050781 228.109375 " fill-opacity="1" fill-rule="evenodd"/><path fill="#ffffff" d="M 187.101562 266.195312 C 193.59375 266.195312 198.890625 260.90625 198.890625 254.414062 C 198.890625 247.925781 193.59375 242.632812 187.101562 242.632812 C 180.605469 242.632812 175.308594 247.925781 175.308594 254.414062 C 175.308594 260.90625 180.605469 266.195312 187.101562 266.195312 " fill-opacity="1" fill-rule="evenodd"/><path fill="#ffffff" d="M 179.472656 250.257812 C 185.964844 250.257812 191.265625 244.964844 191.265625 238.472656 C 191.265625 231.984375 185.964844 226.691406 179.472656 226.691406 C 172.976562 226.691406 167.679688 231.984375 167.679688 238.472656 C 167.679688 244.964844 172.976562 250.257812 179.472656 250.257812 " fill-opacity="1" fill-rule="evenodd"/><path fill="#ffffff" d="M 170.921875 239.570312 C 177.417969 239.570312 182.714844 234.277344 182.714844 227.785156 C 182.714844 221.296875 177.417969 216.003906 170.921875 216.003906 C 164.429688 216.003906 159.132812 221.296875 159.132812 227.785156 C 159.132812 234.277344 164.429688 239.570312 170.921875 239.570312 " fill-opacity="1" fill-rule="evenodd"/><path fill="#ffffff" d="M 158.875 228.109375 C 165.371094 228.109375 170.667969 222.816406 170.667969 216.328125 C 170.667969 209.835938 165.371094 204.546875 158.875 204.546875 C 152.378906 204.546875 147.082031 209.835938 147.082031 216.328125 C 147.082031 222.816406 152.378906 228.109375 158.875 228.109375 " fill-opacity="1" fill-rule="evenodd"/><path fill="#ffffff" d="M 126.71875 228.109375 C 133.210938 228.109375 138.511719 222.816406 138.511719 216.328125 C 138.511719 209.835938 133.210938 204.546875 126.71875 204.546875 C 120.222656 204.546875 114.925781 209.835938 114.925781 216.328125 C 114.925781 222.816406 120.222656 228.109375 126.71875 228.109375 " fill-opacity="1" fill-rule="evenodd"/><path fill="#ffffff" d="M 143.207031 228.109375 C 149.703125 228.109375 155 222.816406 155 216.328125 C 155 209.835938 149.703125 204.546875 143.207031 204.546875 C 136.710938 204.546875 131.414062 209.835938 131.414062 216.328125 C 131.414062 222.816406 136.710938 228.109375 143.207031 228.109375 " fill-opacity="1" fill-rule="evenodd"/><path fill="#ffffff" d="M 105.773438 297.796875 C 112.214844 297.796875 117.46875 291.269531 117.46875 283.269531 C 117.46875 275.269531 112.214844 268.742188 105.773438 268.742188 C 99.332031 268.742188 94.078125 275.269531 94.078125 283.269531 C 94.078125 291.269531 99.332031 297.796875 105.773438 297.796875 " fill-opacity="1" fill-rule="evenodd"/><path fill="#00ccff" d="M 104.109375 290.128906 C 107.171875 290.128906 109.671875 287.632812 109.671875 284.574219 C 109.671875 281.515625 107.171875 279.019531 104.109375 279.019531 C 101.046875 279.019531 98.550781 281.515625 98.550781 284.574219 C 98.550781 287.632812 101.046875 290.128906 104.109375 290.128906 " fill-opacity="1" fill-rule="evenodd"/><path fill="#ffffff" d="M 107.703125 283.378906 C 109.035156 283.378906 110.121094 282.292969 110.121094 280.964844 C 110.121094 279.632812 109.035156 278.550781 107.703125 278.550781 C 106.371094 278.550781 105.285156 279.632812 105.285156 280.964844 C 105.285156 282.292969 106.371094 283.378906 107.703125 283.378906 " fill-opacity="1" fill-rule="evenodd"/><path fill="#ffffff" d="M 102.582031 289.25 C 103.425781 289.25 104.109375 288.566406 104.109375 287.722656 C 104.109375 286.882812 103.425781 286.195312 102.582031 286.195312 C 101.738281 286.195312 101.054688 286.882812 101.054688 287.722656 C 101.054688 288.566406 101.738281 289.25 102.582031 289.25 " fill-opacity="1" fill-rule="evenodd"/><path fill="#000000" d="M 104.109375 287.375 C 105.78125 287.375 107.148438 286.015625 107.148438 284.34375 C 107.148438 282.671875 105.78125 281.3125 104.109375 281.3125 C 102.4375 281.3125 101.078125 282.671875 101.078125 284.34375 C 101.078125 286.015625 102.4375 287.375 104.109375 287.375 " fill-opacity="1" fill-rule="evenodd"/><path fill="#dba36b" d="M 105.660156 267.816406 C 100.714844 267.816406 96.371094 271.046875 93.929688 275.90625 C 97.585938 277.527344 102.746094 278.847656 108.539062 279.46875 C 112.238281 279.867188 115.746094 279.933594 118.820312 279.71875 C 117.03125 272.8125 111.816406 267.816406 105.660156 267.816406 " fill-opacity="1" fill-rule="evenodd"/><path fill="#ffffff" d="M 108.539062 279.46875 C 108.363281 279.433594 108.175781 279.410156 107.988281 279.410156 L 108.539062 279.46875 " fill-opacity="1" fill-rule="evenodd"/><path fill="#ffffff" d="M 162.945312 297.796875 C 169.386719 297.796875 174.640625 291.269531 174.640625 283.269531 C 174.640625 275.269531 169.386719 268.742188 162.945312 268.742188 C 156.503906 268.742188 151.25 275.269531 151.25 283.269531 C 151.25 291.269531 156.503906 297.796875 162.945312 297.796875 " fill-opacity="1" fill-rule="evenodd"/><path fill="#00ccff" d="M 161.285156 290.128906 C 164.347656 290.128906 166.84375 287.632812 166.84375 284.574219 C 166.84375 281.515625 164.347656 279.019531 161.285156 279.019531 C 158.222656 279.019531 155.726562 281.515625 155.726562 284.574219 C 155.726562 287.632812 158.222656 290.128906 161.285156 290.128906 " fill-opacity="1" fill-rule="evenodd"/><path fill="#ffffff" d="M 164.875 283.378906 C 166.207031 283.378906 167.292969 282.292969 167.292969 280.964844 C 167.292969 279.632812 166.207031 278.550781 164.875 278.550781 C 163.542969 278.550781 162.457031 279.632812 162.457031 280.964844 C 162.457031 282.292969 163.542969 283.378906 164.875 283.378906 " fill-opacity="1" fill-rule="evenodd"/><path fill="#ffffff" d="M 159.753906 289.25 C 160.597656 289.25 161.285156 288.566406 161.285156 287.722656 C 161.285156 286.882812 160.597656 286.195312 159.753906 286.195312 C 158.914062 286.195312 158.226562 286.882812 158.226562 287.722656 C 158.226562 288.566406 158.914062 289.25 159.753906 289.25 " fill-opacity="1" fill-rule="evenodd"/><path fill="#000000" d="M 161.285156 287.375 C 162.957031 287.375 164.320312 286.015625 164.320312 284.34375 C 164.320312 282.671875 162.957031 281.3125 161.285156 281.3125 C 159.613281 281.3125 158.25 282.671875 158.25 284.34375 C 158.25 286.015625 159.613281 287.375 161.285156 287.375 " fill-opacity="1" fill-rule="evenodd"/><path fill="#dba36b" d="M 162.835938 267.816406 C 157.886719 267.816406 153.542969 271.046875 151.101562 275.90625 C 154.761719 277.527344 159.921875 278.847656 165.710938 279.46875 C 169.410156 279.867188 172.921875 279.933594 175.996094 279.71875 C 174.207031 272.8125 168.988281 267.816406 162.835938 267.816406 " fill-opacity="1" fill-rule="evenodd"/><path fill="#ffffff" d="M 165.710938 279.46875 C 165.535156 279.433594 165.351562 279.410156 165.164062 279.410156 L 165.710938 279.46875 " fill-opacity="1" fill-rule="evenodd"/><path fill="#cccccc" d="M 168.414062 272.058594 L 153.503906 268.070312 C 156.207031 257.984375 165.074219 251.59375 173.308594 253.800781 C 181.546875 256.003906 186.027344 265.96875 183.324219 276.050781 L 168.414062 272.058594 " fill-opacity="1" fill-rule="evenodd"/><path fill="#cccccc" d="M 101.511719 272.058594 L 116.421875 268.070312 C 113.71875 257.984375 104.851562 251.59375 96.613281 253.800781 C 88.378906 256.003906 83.894531 265.96875 86.601562 276.050781 L 101.511719 272.058594 " fill-opacity="1" fill-rule="evenodd"/><g fill="#ffffff" fill-opacity="1"><g transform="translate(110.275312, 66.261961)"><g><path d="M 8.484375 -4.3125 C 8.753906 -4.332031 8.957031 -4.367188 9.09375 -4.421875 C 9.65625 -4.628906 10.097656 -5.023438 10.421875 -5.609375 L 10.640625 -6.046875 L 10.84375 -6.5 C 10.9375 -6.71875 11.035156 -7 11.140625 -7.34375 L 11.40625 -8.21875 C 11.613281 -8.9375 11.742188 -9.585938 11.796875 -10.171875 L 11.796875 -11.4375 L 11.8125 -11.9375 C 11.820312 -12.332031 11.785156 -12.671875 11.703125 -12.953125 L 11.6875 -13.046875 L 11.671875 -13.15625 C 11.609375 -13.75 11.472656 -14.203125 11.265625 -14.515625 C 11.222656 -14.585938 11.179688 -14.679688 11.140625 -14.796875 C 11.097656 -14.929688 11.015625 -15.125 10.890625 -15.375 L 10.578125 -15.96875 C 10.460938 -16.207031 10.382812 -16.421875 10.34375 -16.609375 L 10.296875 -16.71875 L 9.4375 -17.921875 C 9.289062 -18.117188 9.097656 -18.21875 8.859375 -18.21875 C 8.554688 -18.226562 8.316406 -18.203125 8.140625 -18.140625 L 7.953125 -18.09375 L 7.765625 -18.078125 C 7.359375 -18.054688 6.96875 -17.851562 6.59375 -17.46875 C 6.351562 -17.21875 6.078125 -16.863281 5.765625 -16.40625 C 5.304688 -15.738281 5.019531 -15.175781 4.90625 -14.71875 L 4.78125 -14.21875 L 4.65625 -13.6875 L 4.609375 -13.4375 L 4.546875 -13.171875 L 4.484375 -13 L 4.453125 -12.828125 L 4.390625 -12.25 L 4.34375 -11.65625 C 4.300781 -10.863281 4.320312 -10.085938 4.40625 -9.328125 C 4.488281 -8.429688 4.644531 -7.695312 4.875 -7.125 C 5.195312 -6.289062 5.582031 -5.6875 6.03125 -5.3125 L 6.09375 -5.265625 L 6.140625 -5.203125 C 6.753906 -4.578125 7.535156 -4.28125 8.484375 -4.3125 Z M 12.9375 -14.03125 C 12.925781 -13.894531 12.9375 -13.734375 12.96875 -13.546875 L 13.046875 -13.0625 L 13.125 -12.484375 L 13.171875 -11.890625 L 13.25 -10.703125 C 13.257812 -10.515625 13.257812 -10.34375 13.25 -10.1875 L 13.1875 -9.453125 L 13.109375 -8.6875 L 13.078125 -8.09375 L 13.03125 -7.5 L 13 -7.296875 L 12.953125 -7.09375 C 12.785156 -6.257812 12.546875 -5.429688 12.234375 -4.609375 C 12.054688 -4.148438 11.820312 -3.71875 11.53125 -3.3125 C 11.269531 -2.945312 10.894531 -2.609375 10.40625 -2.296875 C 10.113281 -2.109375 9.898438 -1.945312 9.765625 -1.8125 C 9.640625 -1.6875 9.488281 -1.582031 9.3125 -1.5 L 8.765625 -1.296875 L 8.203125 -1.09375 C 7.679688 -0.925781 7.125 -0.914062 6.53125 -1.0625 C 5.726562 -1.269531 5.054688 -1.519531 4.515625 -1.8125 L 4.328125 -1.921875 L 3.046875 -2.890625 C 2.835938 -3.078125 2.59375 -3.316406 2.3125 -3.609375 C 2.007812 -3.921875 1.757812 -4.257812 1.5625 -4.625 C 1.164062 -5.382812 0.859375 -6.09375 0.640625 -6.75 L 0.34375 -7.6875 C 0.238281 -8.039062 0.160156 -8.351562 0.109375 -8.625 L 0.046875 -9 L 0.015625 -10.3125 L 0 -11.625 C 0.0195312 -12.320312 0.101562 -13.035156 0.25 -13.765625 L 0.5625 -15.34375 C 0.601562 -15.46875 0.65625 -15.628906 0.71875 -15.828125 L 0.890625 -16.3125 C 1.054688 -16.800781 1.410156 -17.46875 1.953125 -18.3125 C 2.390625 -19.007812 2.945312 -19.535156 3.625 -19.890625 C 3.882812 -20.035156 4.160156 -20.144531 4.453125 -20.21875 L 5.03125 -20.34375 C 5.25 -20.40625 5.4375 -20.46875 5.59375 -20.53125 C 5.757812 -20.601562 5.953125 -20.617188 6.171875 -20.578125 C 6.410156 -20.535156 6.675781 -20.535156 6.96875 -20.578125 C 7.65625 -20.660156 8.296875 -20.609375 8.890625 -20.421875 C 9.097656 -20.359375 9.269531 -20.289062 9.40625 -20.21875 C 9.976562 -19.882812 10.40625 -19.5625 10.6875 -19.25 C 11.269531 -18.601562 11.695312 -17.992188 11.96875 -17.421875 L 12.015625 -17.34375 L 12.03125 -17.265625 C 12.113281 -16.878906 12.28125 -16.414062 12.53125 -15.875 C 12.613281 -15.71875 12.679688 -15.503906 12.734375 -15.234375 L 12.796875 -14.90625 L 12.84375 -14.5625 Z M 12.9375 -14.03125 "/></g></g></g><g fill="#ffffff" fill-opacity="1"><g transform="translate(125.494685, 66.261961)"><g><path d="M 13.859375 -6.09375 C 13.796875 -5.320312 13.769531 -4.625 13.78125 -4 C 13.789062 -3.132812 13.859375 -2.34375 13.984375 -1.625 C 14.128906 -0.6875 13.695312 0.253906 12.6875 1.203125 C 12.363281 1.503906 11.988281 1.601562 11.5625 1.5 C 11.382812 1.457031 11.269531 1.351562 11.21875 1.1875 L 11.171875 0.953125 L 11.140625 0.71875 C 11.035156 0.164062 11.003906 -0.492188 11.046875 -1.265625 L 11.125 -2.25 L 11.1875 -3.25 C 11.25 -4.125 11.234375 -5.296875 11.140625 -6.765625 L 11.03125 -8.53125 L 10.984375 -10.3125 L 10.984375 -13.140625 C 10.984375 -14.234375 10.925781 -15.175781 10.8125 -15.96875 L 10.71875 -16.421875 C 10.507812 -17.441406 9.835938 -17.769531 8.703125 -17.40625 L 8.609375 -17.34375 L 8.5 -17.296875 C 8.425781 -17.265625 8.351562 -17.269531 8.28125 -17.3125 L 8.453125 -17.453125 L 8.640625 -17.5625 L 8.9375 -17.671875 L 9.25 -17.75 C 9.039062 -17.800781 8.773438 -17.769531 8.453125 -17.65625 C 7.628906 -17.375 6.945312 -16.800781 6.40625 -15.9375 C 6.269531 -15.71875 6.25 -15.441406 6.34375 -15.109375 L 6.484375 -14.703125 L 6.609375 -14.28125 C 7.285156 -11.332031 7.25 -8.179688 6.5 -4.828125 C 6.414062 -4.453125 6.378906 -4.144531 6.390625 -3.90625 C 6.441406 -2.925781 5.894531 -1.84375 4.75 -0.65625 C 4.332031 -0.226562 3.972656 0.0703125 3.671875 0.25 C 3.304688 0.457031 2.96875 0.46875 2.65625 0.28125 L 1.875 -0.171875 L 1.078125 -0.609375 C 0.671875 -0.804688 0.421875 -1.132812 0.328125 -1.59375 C 0.296875 -1.738281 0.273438 -1.941406 0.265625 -2.203125 L 0.25 -2.796875 C 0.0703125 -4.648438 0.0625 -7.054688 0.21875 -10.015625 L 0.421875 -13.609375 C 0.503906 -15.003906 0.546875 -16.203125 0.546875 -17.203125 C 0.546875 -18.066406 0.703125 -18.597656 1.015625 -18.796875 C 1.285156 -18.960938 1.957031 -19.015625 3.03125 -18.953125 C 3.65625 -18.921875 4.164062 -18.734375 4.5625 -18.390625 C 4.707031 -18.253906 4.859375 -18.082031 5.015625 -17.875 L 5.421875 -17.28125 C 5.628906 -16.945312 5.828125 -16.78125 6.015625 -16.78125 C 6.171875 -16.78125 6.375 -16.925781 6.625 -17.21875 C 7.25 -17.9375 8.191406 -18.296875 9.453125 -18.296875 C 10.523438 -18.296875 11.3125 -18.0625 11.8125 -17.59375 C 12.226562 -17.207031 12.566406 -16.515625 12.828125 -15.515625 C 13.390625 -13.335938 13.734375 -10.195312 13.859375 -6.09375 Z M 13.859375 -6.09375 "/></g></g></g><g fill="#ffffff" fill-opacity="1"><g transform="translate(142.27073, 66.261961)"><g><path d="M 5.5625 -11.21875 C 5.65625 -11.488281 5.753906 -11.820312 5.859375 -12.21875 L 6.09375 -13.234375 C 6.289062 -14.054688 6.5625 -14.695312 6.90625 -15.15625 L 6.953125 -15.21875 L 6.96875 -15.296875 C 7.050781 -16.066406 7.363281 -16.484375 7.90625 -16.546875 C 8.226562 -16.585938 8.597656 -16.453125 9.015625 -16.140625 C 9.410156 -15.828125 9.660156 -15.503906 9.765625 -15.171875 L 9.859375 -14.859375 L 9.953125 -14.5 C 10.003906 -14.238281 10.023438 -13.984375 10.015625 -13.734375 C 9.722656 -12.773438 9.078125 -12.03125 8.078125 -11.5 C 7.785156 -11.34375 7.4375 -11.222656 7.03125 -11.140625 L 6.46875 -11.015625 L 5.890625 -10.921875 C 5.742188 -10.898438 5.644531 -10.90625 5.59375 -10.9375 C 5.507812 -10.96875 5.5 -11.0625 5.5625 -11.21875 Z M 14.625 -8.140625 C 14.46875 -8.253906 14.328125 -8.257812 14.203125 -8.15625 L 14.046875 -8 L 13.90625 -7.84375 L 13.265625 -7.125 L 12.640625 -6.390625 C 12.140625 -5.847656 11.660156 -5.441406 11.203125 -5.171875 L 10.671875 -4.859375 L 10.125 -4.5625 C 9.6875 -4.363281 9.289062 -4.316406 8.9375 -4.421875 C 8.007812 -4.691406 7.1875 -5.300781 6.46875 -6.25 C 5.769531 -7.175781 5.394531 -8.140625 5.34375 -9.140625 C 5.3125 -9.796875 5.5625 -10.132812 6.09375 -10.15625 C 7.988281 -10.226562 9.644531 -10.890625 11.0625 -12.140625 C 11.59375 -12.617188 11.929688 -13.210938 12.078125 -13.921875 C 12.222656 -14.617188 12.128906 -15.195312 11.796875 -15.65625 C 10.710938 -17.09375 9.410156 -17.851562 7.890625 -17.9375 L 7.703125 -17.96875 L 7.5625 -18 L 7.3125 -18.03125 L 6.6875 -18.078125 L 6.046875 -18.078125 C 5.578125 -18.054688 5.191406 -17.90625 4.890625 -17.625 C 4.296875 -17.050781 3.6875 -16.300781 3.0625 -15.375 C 1.019531 -12.332031 0.160156 -9.628906 0.484375 -7.265625 C 0.878906 -4.367188 1.945312 -2.296875 3.6875 -1.046875 C 4.726562 -0.285156 5.875 0.0546875 7.125 -0.015625 C 8.34375 -0.078125 9.335938 -0.515625 10.109375 -1.328125 C 11.929688 -3.265625 13.390625 -5.300781 14.484375 -7.4375 L 14.609375 -7.578125 L 14.75 -7.75 C 14.832031 -7.875 14.789062 -8.003906 14.625 -8.140625 Z M 14.625 -8.140625 "/></g></g></g><g fill="#ffffff" fill-opacity="1"><g transform="translate(102.606041, 96.939042)"><g><path d="M 18.78125 -2.734375 L 18.640625 -4.984375 L 18.640625 -5.09375 L 18.625 -5.65625 L 18.578125 -6.1875 C 18.503906 -6.832031 18.476562 -7.675781 18.5 -8.71875 L 18.53125 -10.765625 C 18.539062 -11.265625 18.585938 -11.660156 18.671875 -11.953125 C 18.796875 -12.347656 18.8125 -12.734375 18.71875 -13.109375 C 18.644531 -13.347656 18.628906 -13.597656 18.671875 -13.859375 C 18.722656 -14.171875 18.71875 -14.519531 18.65625 -14.90625 L 18.578125 -15.5625 C 18.484375 -16.351562 18.320312 -17.222656 18.09375 -18.171875 C 18.03125 -18.492188 17.898438 -18.8125 17.703125 -19.125 L 17.53125 -19.390625 L 17.390625 -19.65625 C 17.234375 -19.957031 16.988281 -20.164062 16.65625 -20.28125 L 16.421875 -20.359375 C 16.335938 -20.390625 16.269531 -20.429688 16.21875 -20.484375 C 16.082031 -20.648438 15.878906 -20.722656 15.609375 -20.703125 C 15.078125 -20.640625 14.457031 -20.625 13.75 -20.65625 L 13.40625 -20.625 C 13.238281 -20.59375 13.144531 -20.492188 13.125 -20.328125 L 13.109375 -20.09375 L 13.09375 -19.84375 C 13.101562 -19.582031 13.019531 -19.347656 12.84375 -19.140625 C 12.476562 -18.691406 12.140625 -17.984375 11.828125 -17.015625 L 11.65625 -16.546875 L 10.984375 -14.625 C 10.734375 -13.894531 10.539062 -13.242188 10.40625 -12.671875 L 9.9375 -10.921875 L 9.859375 -10.625 C 9.828125 -10.519531 9.769531 -10.429688 9.6875 -10.359375 C 9.601562 -10.429688 9.523438 -10.519531 9.453125 -10.625 L 9.25 -10.921875 L 8.4375 -12.296875 C 8.1875 -12.742188 8.015625 -13.085938 7.921875 -13.328125 L 7.15625 -15.203125 C 6.851562 -15.910156 6.578125 -16.519531 6.328125 -17.03125 C 5.929688 -17.8125 5.523438 -18.398438 5.109375 -18.796875 L 5 -18.875 L 4.9375 -19 C 4.90625 -19.125 4.828125 -19.273438 4.703125 -19.453125 L 4.5625 -19.671875 L 4.453125 -19.90625 C 4.273438 -20.351562 3.941406 -20.644531 3.453125 -20.78125 C 3.035156 -20.90625 2.578125 -20.957031 2.078125 -20.9375 C 1.660156 -20.925781 1.335938 -20.820312 1.109375 -20.625 C 0.785156 -20.375 0.523438 -20.144531 0.328125 -19.9375 C 0.179688 -19.78125 0.113281 -19.597656 0.125 -19.390625 L 0.1875 -18.515625 L 0.234375 -15.90625 L 0.25 -15.296875 L 0.296875 -14.671875 C 0.335938 -14.148438 0.351562 -13.738281 0.34375 -13.4375 L 0.40625 -11.84375 L 0.390625 -10.75 L 0.359375 -9.640625 L 0.359375 -8.28125 L 0.328125 -6.9375 C 0.285156 -5.351562 0.320312 -4.109375 0.4375 -3.203125 C 0.457031 -3.003906 0.46875 -2.820312 0.46875 -2.65625 C 0.457031 -2.351562 0.507812 -2.023438 0.625 -1.671875 L 0.84375 -0.984375 C 0.894531 -0.796875 1.019531 -0.597656 1.21875 -0.390625 C 1.4375 -0.148438 1.785156 -0.00390625 2.265625 0.046875 C 2.753906 0.109375 3.140625 0.0351562 3.421875 -0.171875 C 3.796875 -0.421875 4.054688 -0.671875 4.203125 -0.921875 C 4.585938 -1.535156 4.828125 -2.050781 4.921875 -2.46875 C 5.046875 -2.988281 5.128906 -3.71875 5.171875 -4.65625 L 5.21875 -5.875 L 5.234375 -7.078125 L 5.296875 -8.015625 L 5.359375 -8.9375 L 5.421875 -9.640625 L 5.4375 -10.328125 L 5.453125 -11.390625 L 5.4375 -12.46875 L 5.375 -13.875 C 5.34375 -14.394531 5.300781 -14.859375 5.25 -15.265625 L 5.21875 -15.734375 L 5.421875 -15.328125 L 5.578125 -14.9375 L 5.953125 -14.125 C 6.546875 -12.820312 7.148438 -11.726562 7.765625 -10.84375 L 8.0625 -10.453125 L 8.34375 -10.046875 C 8.46875 -9.835938 8.640625 -9.613281 8.859375 -9.375 L 9.453125 -8.75 C 9.597656 -8.59375 9.742188 -8.53125 9.890625 -8.5625 C 10.265625 -8.625 10.53125 -8.742188 10.6875 -8.921875 C 11.007812 -9.304688 11.269531 -9.703125 11.46875 -10.109375 L 11.84375 -10.90625 C 11.914062 -11.050781 11.972656 -11.203125 12.015625 -11.359375 L 12.546875 -13.328125 L 12.921875 -14.640625 C 12.941406 -14.054688 12.941406 -13.445312 12.921875 -12.8125 L 12.890625 -11.609375 L 12.890625 -10.40625 C 12.941406 -9.40625 12.953125 -8.539062 12.921875 -7.8125 L 12.9375 -7.484375 C 13.019531 -6.910156 13.035156 -6.34375 12.984375 -5.78125 L 12.96875 -5.4375 C 13.007812 -4.988281 13.007812 -4.3125 12.96875 -3.40625 C 12.957031 -3.050781 12.972656 -2.707031 13.015625 -2.375 C 13.078125 -1.957031 13.15625 -1.578125 13.25 -1.234375 C 13.375 -0.828125 13.398438 -0.242188 13.328125 0.515625 L 13.21875 1.8125 L 13.140625 3.109375 C 13.097656 3.679688 13.351562 3.945312 13.90625 3.90625 C 14.238281 3.882812 14.640625 3.925781 15.109375 4.03125 L 15.71875 4.125 C 16.332031 4.226562 16.875 4.128906 17.34375 3.828125 C 17.738281 3.566406 18.007812 3.273438 18.15625 2.953125 C 18.5 2.171875 18.695312 1.453125 18.75 0.796875 C 18.78125 0.390625 18.796875 -0.160156 18.796875 -0.859375 L 18.796875 -2.515625 Z M 18.78125 -2.734375 "/></g></g></g><g fill="#ffffff" fill-opacity="1"><g transform="translate(124.026376, 96.939042)"><g><path d="M 8.53125 -9.15625 C 8.5 -10.195312 8.050781 -10.992188 7.1875 -11.546875 C 6.769531 -11.804688 6.289062 -11.835938 5.75 -11.640625 C 5.207031 -11.429688 4.910156 -11.082031 4.859375 -10.59375 C 4.816406 -10.332031 4.765625 -10.035156 4.703125 -9.703125 L 4.484375 -8.828125 C 4.316406 -8.085938 4.222656 -7.5 4.203125 -7.0625 C 4.148438 -6.21875 4.316406 -5.429688 4.703125 -4.703125 C 5.097656 -3.972656 5.644531 -3.441406 6.34375 -3.109375 C 6.863281 -2.847656 7.25 -2.945312 7.5 -3.40625 C 8.320312 -4.90625 8.679688 -6.46875 8.578125 -8.09375 Z M 0 -7.046875 C -0.0195312 -9.335938 0.585938 -11.222656 1.828125 -12.703125 C 2.410156 -13.390625 3.128906 -13.859375 3.984375 -14.109375 C 4.878906 -14.367188 5.757812 -14.328125 6.625 -13.984375 C 8.039062 -13.410156 9.039062 -12.234375 9.625 -10.453125 C 9.78125 -9.984375 9.867188 -9.429688 9.890625 -8.796875 L 9.890625 -7.9375 L 9.875 -7.078125 C 9.832031 -4.398438 9.328125 -2.414062 8.359375 -1.125 C 7.597656 -0.0820312 6.648438 0.234375 5.515625 -0.171875 L 3.828125 -0.703125 C 3.160156 -0.929688 2.628906 -1.222656 2.234375 -1.578125 C 0.773438 -2.910156 0.03125 -4.734375 0 -7.046875 Z M 0 -7.046875 "/></g></g></g><g fill="#ffffff" fill-opacity="1"><g transform="translate(136.492625, 96.939042)"><g><path d="M 0.25 -14.03125 C 0.207031 -14.53125 0.15625 -14.957031 0.09375 -15.3125 C 0.03125 -15.65625 0.132812 -15.898438 0.40625 -16.046875 C 0.5 -16.097656 0.617188 -16.140625 0.765625 -16.171875 L 0.953125 -16.203125 L 1.125 -16.234375 L 1.421875 -16.28125 L 1.75 -16.34375 C 2.007812 -16.382812 2.222656 -16.40625 2.390625 -16.40625 C 2.878906 -16.394531 3.265625 -16.179688 3.546875 -15.765625 C 3.609375 -15.671875 3.679688 -15.660156 3.765625 -15.734375 L 3.921875 -15.953125 C 4.953125 -16.941406 6.046875 -17.414062 7.203125 -17.375 C 7.816406 -17.351562 8.367188 -17.078125 8.859375 -16.546875 C 10.460938 -14.835938 11.082031 -12.882812 10.71875 -10.6875 C 10.707031 -10.539062 10.648438 -10.445312 10.546875 -10.40625 C 10.359375 -10.332031 10.082031 -10.398438 9.71875 -10.609375 C 9.363281 -10.796875 9.128906 -10.976562 9.015625 -11.15625 C 8.734375 -11.625 8.445312 -12.3125 8.15625 -13.21875 L 7.828125 -14.28125 C 7.679688 -14.664062 7.53125 -15.003906 7.375 -15.296875 C 6.945312 -16.097656 6.285156 -16.4375 5.390625 -16.3125 C 5.117188 -16.269531 4.847656 -15.988281 4.578125 -15.46875 C 4.328125 -14.957031 4.25 -14.546875 4.34375 -14.234375 C 5.113281 -11.859375 5.519531 -9.429688 5.5625 -6.953125 L 5.59375 -5.8125 L 5.640625 -4.703125 C 5.648438 -3.828125 5.613281 -3.078125 5.53125 -2.453125 C 5.457031 -1.847656 5.320312 -1.40625 5.125 -1.125 C 4.988281 -0.957031 4.890625 -0.726562 4.828125 -0.4375 L 4.734375 -0.078125 L 4.640625 0.296875 C 4.515625 0.703125 4.300781 0.832031 4 0.6875 C 3.84375 0.613281 3.648438 0.554688 3.421875 0.515625 L 2.8125 0.40625 C 2.3125 0.300781 1.921875 0.128906 1.640625 -0.109375 C 1.359375 -0.359375 1.1875 -0.765625 1.125 -1.328125 C 0.957031 -2.859375 0.800781 -4.757812 0.65625 -7.03125 L 0.484375 -9.875 L 0.3125 -12.734375 Z M 0.25 -14.03125 "/></g></g></g><g fill="#ffffff" fill-opacity="1"><g transform="translate(149.936618, 96.939042)"><g><path d="M 5.5625 -11.21875 C 5.65625 -11.488281 5.753906 -11.820312 5.859375 -12.21875 L 6.09375 -13.234375 C 6.289062 -14.054688 6.5625 -14.695312 6.90625 -15.15625 L 6.953125 -15.21875 L 6.96875 -15.296875 C 7.050781 -16.066406 7.363281 -16.484375 7.90625 -16.546875 C 8.226562 -16.585938 8.597656 -16.453125 9.015625 -16.140625 C 9.410156 -15.828125 9.660156 -15.503906 9.765625 -15.171875 L 9.859375 -14.859375 L 9.953125 -14.5 C 10.003906 -14.238281 10.023438 -13.984375 10.015625 -13.734375 C 9.722656 -12.773438 9.078125 -12.03125 8.078125 -11.5 C 7.785156 -11.34375 7.4375 -11.222656 7.03125 -11.140625 L 6.46875 -11.015625 L 5.890625 -10.921875 C 5.742188 -10.898438 5.644531 -10.90625 5.59375 -10.9375 C 5.507812 -10.96875 5.5 -11.0625 5.5625 -11.21875 Z M 14.625 -8.140625 C 14.46875 -8.253906 14.328125 -8.257812 14.203125 -8.15625 L 14.046875 -8 L 13.90625 -7.84375 L 13.265625 -7.125 L 12.640625 -6.390625 C 12.140625 -5.847656 11.660156 -5.441406 11.203125 -5.171875 L 10.671875 -4.859375 L 10.125 -4.5625 C 9.6875 -4.363281 9.289062 -4.316406 8.9375 -4.421875 C 8.007812 -4.691406 7.1875 -5.300781 6.46875 -6.25 C 5.769531 -7.175781 5.394531 -8.140625 5.34375 -9.140625 C 5.3125 -9.796875 5.5625 -10.132812 6.09375 -10.15625 C 7.988281 -10.226562 9.644531 -10.890625 11.0625 -12.140625 C 11.59375 -12.617188 11.929688 -13.210938 12.078125 -13.921875 C 12.222656 -14.617188 12.128906 -15.195312 11.796875 -15.65625 C 10.710938 -17.09375 9.410156 -17.851562 7.890625 -17.9375 L 7.703125 -17.96875 L 7.5625 -18 L 7.3125 -18.03125 L 6.6875 -18.078125 L 6.046875 -18.078125 C 5.578125 -18.054688 5.191406 -17.90625 4.890625 -17.625 C 4.296875 -17.050781 3.6875 -16.300781 3.0625 -15.375 C 1.019531 -12.332031 0.160156 -9.628906 0.484375 -7.265625 C 0.878906 -4.367188 1.945312 -2.296875 3.6875 -1.046875 C 4.726562 -0.285156 5.875 0.0546875 7.125 -0.015625 C 8.34375 -0.078125 9.335938 -0.515625 10.109375 -1.328125 C 11.929688 -3.265625 13.390625 -5.300781 14.484375 -7.4375 L 14.609375 -7.578125 L 14.75 -7.75 C 14.832031 -7.875 14.789062 -8.003906 14.625 -8.140625 Z M 14.625 -8.140625 "/></g></g></g><g fill="#ffffff" fill-opacity="1"><g transform="translate(103.14722, 127.616124)"><g><path d="M 10.1875 -17.859375 C 10.132812 -17.335938 9.972656 -16.6875 9.703125 -15.90625 C 9.585938 -15.59375 9.414062 -15.320312 9.1875 -15.09375 C 8.800781 -14.707031 8.429688 -14.320312 8.078125 -13.9375 C 7.484375 -13.28125 6.753906 -12.726562 5.890625 -12.28125 L 5.75 -12.203125 C 5.601562 -12.128906 5.523438 -12.179688 5.515625 -12.359375 L 5.484375 -12.5625 C 5.546875 -13.101562 5.492188 -13.75 5.328125 -14.5 L 5.296875 -14.75 L 5.28125 -15 L 5.21875 -15.640625 C 5.1875 -15.878906 5.140625 -16.085938 5.078125 -16.265625 L 5.046875 -16.46875 C 4.984375 -17.164062 4.738281 -18.125 4.3125 -19.34375 L 3.953125 -20.359375 C 3.796875 -20.734375 3.640625 -21.0625 3.484375 -21.34375 C 3.222656 -21.789062 3.265625 -22.207031 3.609375 -22.59375 C 4.128906 -23.1875 4.59375 -23.550781 5 -23.6875 C 5.195312 -23.75 5.484375 -23.800781 5.859375 -23.84375 C 6.554688 -23.945312 7.25 -23.726562 7.9375 -23.1875 C 8.726562 -22.582031 9.335938 -21.789062 9.765625 -20.8125 C 9.835938 -20.65625 9.90625 -20.453125 9.96875 -20.203125 L 10.125 -19.578125 C 10.257812 -19.160156 10.28125 -18.585938 10.1875 -17.859375 Z M 11.9375 -17.921875 C 11.9375 -18.171875 11.894531 -18.425781 11.8125 -18.6875 C 11.726562 -19.007812 11.65625 -19.328125 11.59375 -19.640625 C 11.4375 -20.503906 11.113281 -21.3125 10.625 -22.0625 C 10.09375 -22.882812 9.441406 -23.5 8.671875 -23.90625 C 8.484375 -24.007812 8.257812 -24.097656 8 -24.171875 L 7.328125 -24.375 C 6.609375 -24.582031 5.910156 -24.644531 5.234375 -24.5625 C 4.347656 -24.425781 3.585938 -24.070312 2.953125 -23.5 L 2.609375 -23.1875 C 2.441406 -22.988281 2.257812 -22.960938 2.0625 -23.109375 C 1.78125 -23.304688 1.441406 -23.316406 1.046875 -23.140625 L 0.875 -23.09375 L 0.703125 -23.03125 C 0.523438 -22.957031 0.375 -22.847656 0.25 -22.703125 C 0.0820312 -22.523438 0.03125 -22.34375 0.09375 -22.15625 L 0.15625 -21.875 L 0.203125 -21.59375 C 0.484375 -20.425781 0.601562 -19.328125 0.5625 -18.296875 L 0.578125 -17.984375 L 0.625 -17.671875 L 0.640625 -17.515625 L 0.671875 -17.359375 L 0.71875 -15.421875 L 0.75 -14.4375 L 1.0625 -10.453125 C 1.082031 -10.148438 1.085938 -9.890625 1.078125 -9.671875 C 1.046875 -9.234375 1.035156 -8.710938 1.046875 -8.109375 L 1.078125 -6.546875 L 1.109375 -4.234375 L 1.125 -2.515625 C 1.132812 -1.878906 1.164062 -1.304688 1.21875 -0.796875 L 1.34375 0.734375 L 1.34375 0.90625 L 1.375 1.09375 C 1.457031 1.4375 1.664062 1.59375 2 1.5625 C 2.175781 1.53125 2.40625 1.460938 2.6875 1.359375 L 3.328125 1.078125 C 3.578125 0.960938 3.796875 0.882812 3.984375 0.84375 C 4.085938 0.8125 4.195312 0.753906 4.3125 0.671875 L 4.59375 0.40625 L 4.71875 0.25 L 4.859375 0.078125 C 5.441406 -0.597656 5.75 -1.359375 5.78125 -2.203125 C 5.800781 -2.847656 5.875 -3.460938 6 -4.046875 C 6.09375 -4.472656 6.101562 -4.976562 6.03125 -5.5625 C 5.988281 -5.914062 5.988281 -6.222656 6.03125 -6.484375 C 6.09375 -6.953125 6.101562 -7.398438 6.0625 -7.828125 L 6.03125 -8.125 L 6.03125 -8.4375 C 6.0625 -8.90625 6.035156 -9.554688 5.953125 -10.390625 L 5.90625 -10.78125 C 5.894531 -11 6.003906 -11.125 6.234375 -11.15625 L 6.484375 -11.203125 C 6.835938 -11.210938 7.195312 -11.316406 7.5625 -11.515625 C 7.894531 -11.703125 8.15625 -11.832031 8.34375 -11.90625 C 8.882812 -12.113281 9.414062 -12.472656 9.9375 -12.984375 L 11.0625 -14.1875 C 11.476562 -14.625 11.71875 -15.03125 11.78125 -15.40625 L 11.8125 -15.53125 L 11.875 -15.65625 C 11.957031 -15.800781 11.992188 -15.976562 11.984375 -16.1875 Z M 11.9375 -17.921875 "/></g></g></g><g fill="#ffffff" fill-opacity="1"><g transform="translate(116.848515, 127.616124)"><g><path d="M 9.703125 -6.96875 C 9.597656 -5.519531 8.867188 -4.523438 7.515625 -3.984375 C 7.210938 -3.867188 6.957031 -3.875 6.75 -4 C 6.582031 -4.101562 6.441406 -4.285156 6.328125 -4.546875 C 5.742188 -5.878906 5.566406 -7.175781 5.796875 -8.4375 C 5.835938 -8.707031 5.863281 -9.050781 5.875 -9.46875 L 5.890625 -10 L 5.921875 -10.515625 C 5.941406 -10.972656 6.046875 -11.546875 6.234375 -12.234375 L 6.46875 -13.046875 L 6.65625 -13.890625 C 6.78125 -14.585938 7.164062 -15.132812 7.8125 -15.53125 C 8.269531 -15.820312 8.890625 -16.050781 9.671875 -16.21875 C 10.140625 -16.3125 10.382812 -16.046875 10.40625 -15.421875 C 10.363281 -14.367188 10.265625 -12.976562 10.109375 -11.25 L 9.890625 -9.125 Z M 15.515625 -9.484375 C 15.535156 -10.335938 15.410156 -11.296875 15.140625 -12.359375 L 14.71875 -13.734375 L 14.28125 -15.09375 C 14.101562 -15.65625 13.929688 -16.082031 13.765625 -16.375 C 13.503906 -16.832031 13.160156 -17.1875 12.734375 -17.4375 C 12.179688 -17.757812 11.691406 -17.890625 11.265625 -17.828125 C 10.816406 -17.753906 10.554688 -17.476562 10.484375 -17 C 10.441406 -16.644531 10.25 -16.539062 9.90625 -16.6875 C 8.914062 -17.101562 7.722656 -17.003906 6.328125 -16.390625 C 4.066406 -15.378906 2.507812 -13.457031 1.65625 -10.625 C 0.550781 -6.96875 1.007812 -4.128906 3.03125 -2.109375 C 4.101562 -1.046875 4.984375 -0.425781 5.671875 -0.25 C 6.710938 0.0195312 7.894531 -0.382812 9.21875 -1.46875 L 9.3125 -1.546875 C 9.351562 -1.566406 9.378906 -1.570312 9.390625 -1.5625 C 9.472656 -1.539062 9.519531 -1.492188 9.53125 -1.421875 L 9.53125 -1.3125 L 9.515625 -1.21875 L 9.328125 2.078125 C 9.304688 2.460938 9.425781 2.78125 9.6875 3.03125 C 9.957031 3.289062 10.273438 3.410156 10.640625 3.390625 L 11.015625 3.328125 L 11.40625 3.28125 C 11.707031 3.25 11.960938 3.253906 12.171875 3.296875 C 12.722656 3.410156 13.289062 3.289062 13.875 2.9375 C 14.445312 2.570312 14.804688 2.125 14.953125 1.59375 L 15.15625 0.78125 C 15.21875 0.476562 15.257812 0.207031 15.28125 -0.03125 C 15.488281 -3.257812 15.566406 -6.410156 15.515625 -9.484375 Z M 15.515625 -9.484375 "/></g></g></g><g fill="#ffffff" fill-opacity="1"><g transform="translate(135.001123, 127.616124)"><g><path d="M 2.203125 -9.453125 C 2.085938 -7.890625 2.726562 -6.632812 4.125 -5.6875 C 4.65625 -5.332031 5.066406 -5.394531 5.359375 -5.875 C 6.390625 -7.53125 6.894531 -9.085938 6.875 -10.546875 C 6.851562 -11.390625 6.738281 -11.957031 6.53125 -12.25 C 6.3125 -12.550781 5.832031 -12.785156 5.09375 -12.953125 C 4.5 -13.078125 3.898438 -12.925781 3.296875 -12.5 C 2.703125 -12.070312 2.367188 -11.546875 2.296875 -10.921875 L 2.234375 -10.1875 Z M 11.75 -3.28125 C 11.8125 -2.21875 11.734375 -1.039062 11.515625 0.25 C 11.429688 0.738281 11.316406 1.300781 11.171875 1.9375 L 10.765625 3.625 C 10.515625 4.6875 10.078125 5.644531 9.453125 6.5 C 9.015625 7.125 8.328125 7.5625 7.390625 7.8125 C 6.453125 8.070312 5.53125 8.066406 4.625 7.796875 C 3.238281 7.390625 2.234375 6.460938 1.609375 5.015625 C 1.097656 3.835938 0.726562 2.601562 0.5 1.3125 L 0.46875 1.203125 L 0.46875 1.0625 C 0.46875 0.96875 0.5 0.90625 0.5625 0.875 C 0.59375 0.851562 0.648438 0.863281 0.734375 0.90625 L 0.84375 0.96875 L 0.921875 1.03125 C 1.222656 1.15625 1.421875 1.4375 1.515625 1.875 C 1.628906 2.40625 1.832031 2.972656 2.125 3.578125 L 2.53125 4.375 L 2.953125 5.15625 L 3.171875 5.484375 C 3.660156 6.191406 4.222656 6.503906 4.859375 6.421875 C 5.128906 6.390625 5.347656 6.234375 5.515625 5.953125 C 5.578125 5.847656 5.640625 5.710938 5.703125 5.546875 L 5.859375 5.140625 C 6.015625 4.691406 6.109375 4.125 6.140625 3.4375 L 6.15625 2.578125 L 6.203125 1.71875 L 6.390625 -0.1875 L 6.578125 -2.078125 C 6.609375 -2.390625 6.460938 -2.609375 6.140625 -2.734375 C 3.765625 -3.566406 2.046875 -4.890625 0.984375 -6.703125 C 0.328125 -7.816406 0.148438 -9.195312 0.453125 -10.84375 C 0.753906 -12.601562 1.515625 -13.863281 2.734375 -14.625 C 3.023438 -14.800781 3.335938 -14.878906 3.671875 -14.859375 L 5.25 -14.796875 C 5.863281 -14.765625 6.390625 -14.722656 6.828125 -14.671875 C 7.753906 -14.554688 8.671875 -13.925781 9.578125 -12.78125 C 10.515625 -11.601562 11.140625 -9.617188 11.453125 -6.828125 L 11.578125 -5.9375 L 11.71875 -5.03125 C 11.800781 -4.332031 11.8125 -3.75 11.75 -3.28125 Z M 11.75 -3.28125 "/></g></g></g><g fill="#ffffff" fill-opacity="1"><g transform="translate(149.409996, 127.616124)"><g><path d="M 5.5625 -11.21875 C 5.65625 -11.488281 5.753906 -11.820312 5.859375 -12.21875 L 6.09375 -13.234375 C 6.289062 -14.054688 6.5625 -14.695312 6.90625 -15.15625 L 6.953125 -15.21875 L 6.96875 -15.296875 C 7.050781 -16.066406 7.363281 -16.484375 7.90625 -16.546875 C 8.226562 -16.585938 8.597656 -16.453125 9.015625 -16.140625 C 9.410156 -15.828125 9.660156 -15.503906 9.765625 -15.171875 L 9.859375 -14.859375 L 9.953125 -14.5 C 10.003906 -14.238281 10.023438 -13.984375 10.015625 -13.734375 C 9.722656 -12.773438 9.078125 -12.03125 8.078125 -11.5 C 7.785156 -11.34375 7.4375 -11.222656 7.03125 -11.140625 L 6.46875 -11.015625 L 5.890625 -10.921875 C 5.742188 -10.898438 5.644531 -10.90625 5.59375 -10.9375 C 5.507812 -10.96875 5.5 -11.0625 5.5625 -11.21875 Z M 14.625 -8.140625 C 14.46875 -8.253906 14.328125 -8.257812 14.203125 -8.15625 L 14.046875 -8 L 13.90625 -7.84375 L 13.265625 -7.125 L 12.640625 -6.390625 C 12.140625 -5.847656 11.660156 -5.441406 11.203125 -5.171875 L 10.671875 -4.859375 L 10.125 -4.5625 C 9.6875 -4.363281 9.289062 -4.316406 8.9375 -4.421875 C 8.007812 -4.691406 7.1875 -5.300781 6.46875 -6.25 C 5.769531 -7.175781 5.394531 -8.140625 5.34375 -9.140625 C 5.3125 -9.796875 5.5625 -10.132812 6.09375 -10.15625 C 7.988281 -10.226562 9.644531 -10.890625 11.0625 -12.140625 C 11.59375 -12.617188 11.929688 -13.210938 12.078125 -13.921875 C 12.222656 -14.617188 12.128906 -15.195312 11.796875 -15.65625 C 10.710938 -17.09375 9.410156 -17.851562 7.890625 -17.9375 L 7.703125 -17.96875 L 7.5625 -18 L 7.3125 -18.03125 L 6.6875 -18.078125 L 6.046875 -18.078125 C 5.578125 -18.054688 5.191406 -17.90625 4.890625 -17.625 C 4.296875 -17.050781 3.6875 -16.300781 3.0625 -15.375 C 1.019531 -12.332031 0.160156 -9.628906 0.484375 -7.265625 C 0.878906 -4.367188 1.945312 -2.296875 3.6875 -1.046875 C 4.726562 -0.285156 5.875 0.0546875 7.125 -0.015625 C 8.34375 -0.078125 9.335938 -0.515625 10.109375 -1.328125 C 11.929688 -3.265625 13.390625 -5.300781 14.484375 -7.4375 L 14.609375 -7.578125 L 14.75 -7.75 C 14.832031 -7.875 14.789062 -8.003906 14.625 -8.140625 Z M 14.625 -8.140625 "/></g></g></g></svg>