<svg xmlns="http://www.w3.org/2000/svg" xmlns:xlink="http://www.w3.org/1999/xlink" width="200" zoomAndPan="magnify" viewBox="0 0 150 149.999998" height="200" preserveAspectRatio="xMidYMid meet" version="1.0"><defs><filter x="0%" y="0%" width="100%" height="100%" id="id1"><feColorMatrix values="0 0 0 0 1 0 0 0 0 1 0 0 0 0 1 0 0 0 1 0" color-interpolation-filters="sRGB"/></filter><clipPath id="id2"><path d="M 38 39.542969 L 139.300781 39.542969 L 139.300781 140 L 38 140 Z M 38 39.542969 " clip-rule="nonzero"/></clipPath><mask id="id3"><g filter="url(#id1)"><rect x="-15" width="180" fill="#000000" y="-15" height="179.999997" fill-opacity="0.698"/></g></mask><clipPath id="id4"><path d="M 1 0.542969 L 101.300781 0.542969 L 101.300781 100.679688 L 1 100.679688 Z M 1 0.542969 " clip-rule="nonzero"/></clipPath><clipPath id="id5"><rect x="0" width="102" y="0" height="101"/></clipPath><clipPath id="id6"><path d="M 11.050781 39.542969 L 112 39.542969 L 112 140 L 11.050781 140 Z M 11.050781 39.542969 " clip-rule="nonzero"/></clipPath><mask id="id7"><g filter="url(#id1)"><rect x="-15" width="180" fill="#000000" y="-15" height="179.999997" fill-opacity="0.698"/></g></mask><clipPath id="id8"><path d="M 0.0507812 0.542969 L 100.359375 0.542969 L 100.359375 100.921875 L 0.0507812 100.921875 Z M 0.0507812 0.542969 " clip-rule="nonzero"/></clipPath><clipPath id="id9"><rect x="0" width="101" y="0" height="101"/></clipPath><clipPath id="id10"><path d="M 10.6875 10 L 112 10 L 112 110.449219 L 10.6875 110.449219 Z M 10.6875 10 " clip-rule="nonzero"/></clipPath><mask id="id11"><g filter="url(#id1)"><rect x="-15" width="180" fill="#000000" y="-15" height="179.999997" fill-opacity="0.698"/></g></mask><clipPath id="id12"><path d="M 0.6875 0.320312 L 101 0.320312 L 101 100.449219 L 0.6875 100.449219 Z M 0.6875 0.320312 " clip-rule="nonzero"/></clipPath><clipPath id="id13"><rect x="0" width="102" y="0" height="101"/></clipPath><clipPath id="id14"><path d="M 38 10 L 138.9375 10 L 138.9375 110.449219 L 38 110.449219 Z M 38 10 " clip-rule="nonzero"/></clipPath><mask id="id15"><g filter="url(#id1)"><rect x="-15" width="180" fill="#000000" y="-15" height="179.999997" fill-opacity="0.698"/></g></mask><clipPath id="id16"><path d="M 0.640625 0.078125 L 100.9375 0.078125 L 100.9375 100.449219 L 0.640625 100.449219 Z M 0.640625 0.078125 " clip-rule="nonzero"/></clipPath><clipPath id="id17"><rect x="0" width="101" y="0" height="101"/></clipPath></defs><g clip-path="url(#id2)"><g mask="url(#id3)"><g transform="matrix(1, 0, 0, 1, 38, 39)"><g clip-path="url(#id5)"><g clip-path="url(#id4)"><path fill="#79a1b8" d="M 1.230469 36.550781 C 1.230469 26.925781 4.980469 17.878906 11.789062 11.074219 C 18.8125 4.050781 28.042969 0.539062 37.273438 0.539062 C 46.503906 0.539062 55.734375 4.050781 62.757812 11.074219 L 90.734375 39.039062 C 97.542969 45.84375 101.292969 54.894531 101.292969 64.515625 C 101.292969 74.140625 97.542969 83.1875 90.734375 89.996094 C 76.683594 104.042969 53.816406 104.042969 39.761719 89.996094 L 11.789062 62.027344 C 4.980469 55.222656 1.230469 46.175781 1.230469 36.550781 Z M 1.230469 36.550781 " fill-opacity="1" fill-rule="nonzero"/></g></g></g></g></g><g clip-path="url(#id6)"><g mask="url(#id7)"><g transform="matrix(1, 0, 0, 1, 11, 39)"><g clip-path="url(#id9)"><g clip-path="url(#id8)"><path fill="#333652" d="M 0.0585938 64.515625 C 0.0585938 54.894531 3.808594 45.84375 10.617188 39.039062 L 38.59375 11.074219 C 45.617188 4.050781 54.847656 0.539062 64.078125 0.539062 C 73.308594 0.539062 82.539062 4.050781 89.5625 11.074219 C 96.371094 17.878906 100.121094 26.925781 100.121094 36.550781 C 100.121094 46.175781 96.371094 55.222656 89.5625 62.027344 L 61.589844 89.996094 C 47.535156 104.042969 24.667969 104.042969 10.617188 89.996094 C 3.808594 83.191406 0.0585938 74.140625 0.0585938 64.515625 Z M 0.0585938 64.515625 " fill-opacity="1" fill-rule="nonzero"/></g></g></g></g></g><g clip-path="url(#id10)"><g mask="url(#id11)"><g transform="matrix(1, 0, 0, 1, 10, 10)"><g clip-path="url(#id13)"><g clip-path="url(#id12)"><path fill="#79a1b8" d="M 100.757812 64.441406 C 100.757812 74.066406 97.007812 83.113281 90.199219 89.917969 C 83.175781 96.945312 73.945312 100.457031 64.714844 100.457031 C 55.484375 100.457031 46.253906 96.945312 39.230469 89.917969 L 11.253906 61.953125 C 4.445312 55.148438 0.695312 46.097656 0.695312 36.476562 C 0.695312 26.851562 4.445312 17.804688 11.253906 11 C 25.304688 -3.050781 48.171875 -3.050781 62.226562 11 L 90.199219 38.964844 C 97.007812 45.769531 100.757812 54.816406 100.757812 64.441406 Z M 100.757812 64.441406 " fill-opacity="1" fill-rule="nonzero"/></g></g></g></g></g><g clip-path="url(#id14)"><g mask="url(#id15)"><g transform="matrix(1, 0, 0, 1, 38, 10)"><g clip-path="url(#id17)"><g clip-path="url(#id16)"><path fill="#333652" d="M 100.929688 36.476562 C 100.929688 46.101562 97.179688 55.148438 90.371094 61.953125 L 62.394531 89.917969 C 55.371094 96.945312 46.140625 100.457031 36.910156 100.457031 C 27.679688 100.457031 18.449219 96.945312 11.425781 89.917969 C 4.617188 83.113281 0.867188 74.066406 0.867188 64.441406 C 0.867188 54.816406 4.617188 45.769531 11.425781 38.964844 L 39.398438 10.996094 C 53.453125 -3.050781 76.320312 -3.050781 90.371094 10.996094 C 97.179688 17.804688 100.929688 26.851562 100.929688 36.476562 Z M 100.929688 36.476562 " fill-opacity="1" fill-rule="nonzero"/></g></g></g></g></g></svg>