<svg xmlns="http://www.w3.org/2000/svg" xmlns:xlink="http://www.w3.org/1999/xlink" width="220" zoomAndPan="magnify" viewBox="0 0 165 37.5" height="50" preserveAspectRatio="xMidYMid meet" version="1.0"><defs><filter x="0%" y="0%" width="100%" height="100%" id="id1"><feColorMatrix values="0 0 0 0 1 0 0 0 0 1 0 0 0 0 1 0 0 0 1 0" color-interpolation-filters="sRGB"/></filter><g/><clipPath id="id2"><path d="M 1.085938 0 L 163.914062 0 L 163.914062 37.007812 L 1.085938 37.007812 Z M 1.085938 0 " clip-rule="nonzero"/></clipPath><clipPath id="id3"><path d="M 14 4.085938 L 42.152344 4.085938 L 42.152344 32 L 14 32 Z M 14 4.085938 " clip-rule="nonzero"/></clipPath><mask id="id4"><g filter="url(#id1)"><rect x="-16.5" width="198" fill="#000000" y="-3.75" height="45" fill-opacity="0.698"/></g></mask><clipPath id="id5"><path d="M 1 0.0859375 L 28.152344 0.0859375 L 28.152344 27.261719 L 1 27.261719 Z M 1 0.0859375 " clip-rule="nonzero"/></clipPath><clipPath id="id6"><rect x="0" width="29" y="0" height="28"/></clipPath><clipPath id="id7"><path d="M 7.367188 4.085938 L 35 4.085938 L 35 32 L 7.367188 32 Z M 7.367188 4.085938 " clip-rule="nonzero"/></clipPath><mask id="id8"><g filter="url(#id1)"><rect x="-16.5" width="198" fill="#000000" y="-3.75" height="45" fill-opacity="0.698"/></g></mask><clipPath id="id9"><path d="M 0.367188 0.0859375 L 27.71875 0.0859375 L 27.71875 27.5 L 0.367188 27.5 Z M 0.367188 0.0859375 " clip-rule="nonzero"/></clipPath><clipPath id="id10"><rect x="0" width="28" y="0" height="28"/></clipPath></defs><g clip-path="url(#id2)"><path fill="#ffffff" d="M 1.085938 0 L 163.914062 0 L 163.914062 44.40625 L 1.085938 44.40625 Z M 1.085938 0 " fill-opacity="1" fill-rule="nonzero"/><path fill="#ffffff" d="M 1.085938 0 L 163.914062 0 L 163.914062 37.007812 L 1.085938 37.007812 Z M 1.085938 0 " fill-opacity="1" fill-rule="nonzero"/><path fill="#ffffff" d="M 1.085938 0 L 163.914062 0 L 163.914062 37.007812 L 1.085938 37.007812 Z M 1.085938 0 " fill-opacity="1" fill-rule="nonzero"/><path fill="#ffffff" d="M 1.085938 0 L 163.914062 0 L 163.914062 37.007812 L 1.085938 37.007812 Z M 1.085938 0 " fill-opacity="1" fill-rule="nonzero"/><rect x="-16.5" width="198" fill="#f9f9f9" y="-3.75" height="45" fill-opacity="1"/></g><g clip-path="url(#id3)"><g mask="url(#id4)"><g transform="matrix(1, 0, 0, 1, 14, 4)"><g clip-path="url(#id6)"><g clip-path="url(#id5)"><path fill="#79a1b8" d="M 1.007812 9.871094 C 1.007812 7.257812 2.027344 4.800781 3.871094 2.949219 C 5.777344 1.042969 8.28125 0.0859375 10.785156 0.0859375 C 13.289062 0.0859375 15.792969 1.042969 17.699219 2.949219 L 25.289062 10.546875 C 27.136719 12.398438 28.152344 14.855469 28.152344 17.46875 C 28.152344 20.085938 27.136719 22.542969 25.289062 24.394531 C 21.476562 28.210938 15.273438 28.210938 11.460938 24.394531 L 3.871094 16.792969 C 2.027344 14.945312 1.007812 12.488281 1.007812 9.871094 Z M 1.007812 9.871094 " fill-opacity="1" fill-rule="nonzero"/></g></g></g></g></g><g clip-path="url(#id7)"><g mask="url(#id8)"><g transform="matrix(1, 0, 0, 1, 7, 4)"><g clip-path="url(#id10)"><g clip-path="url(#id9)"><path fill="#333652" d="M 0.367188 17.46875 C 0.367188 14.855469 1.382812 12.398438 3.230469 10.546875 L 10.820312 2.949219 C 12.726562 1.042969 15.230469 0.0859375 17.734375 0.0859375 C 20.238281 0.0859375 22.742188 1.042969 24.648438 2.949219 C 26.492188 4.800781 27.511719 7.257812 27.511719 9.871094 C 27.511719 12.488281 26.492188 14.945312 24.648438 16.792969 L 17.058594 24.394531 C 13.246094 28.210938 7.042969 28.210938 3.230469 24.394531 C 1.382812 22.542969 0.367188 20.085938 0.367188 17.46875 Z M 0.367188 17.46875 " fill-opacity="1" fill-rule="nonzero"/></g></g></g></g></g><g fill="#1e2c35" fill-opacity="1"><g transform="translate(46.888632, 26.241398)"><g><path d="M 13.582031 0 L 18.328125 0 L 13.109375 -15.707031 L 5.808594 -15.707031 L 0.589844 0 L 5.335938 0 L 6.234375 -2.691406 L 12.683594 -2.691406 Z M 7.417969 -6.234375 L 9.445312 -12.375 L 11.503906 -6.234375 Z M 7.417969 -6.234375 "/></g></g></g><g fill="#1e2c35" fill-opacity="1"><g transform="translate(65.332104, 26.241398)"><g><path d="M -0.0703125 0 L 5.007812 0 L 6.660156 -2.859375 L 8.382812 0 L 13.769531 0 L 9.445312 -5.90625 L 13.558594 -11.808594 L 8.667969 -11.808594 L 6.992188 -8.761719 L 5.148438 -11.808594 L -0.234375 -11.808594 L 4.132812 -5.621094 Z M -0.0703125 0 "/></g></g></g><g fill="#1e2c35" fill-opacity="1"><g transform="translate(78.391291, 26.241398)"><g><path d="M 1.0625 -13.132812 L 5.691406 -13.132812 L 5.691406 -15.707031 L 1.0625 -15.707031 Z M 1.0625 0 L 5.691406 0 L 5.691406 -11.808594 L 1.0625 -11.808594 Z M 1.0625 0 "/></g></g></g><g fill="#1e2c35" fill-opacity="1"><g transform="translate(84.672895, 26.241398)"><g><path d="M 7.652344 0.378906 C 12.964844 0.378906 14.644531 -2.835938 14.644531 -5.90625 C 14.644531 -8.976562 12.964844 -12.1875 7.652344 -12.1875 C 2.339844 -12.1875 0.660156 -8.976562 0.660156 -5.90625 C 0.660156 -2.808594 2.339844 0.378906 7.652344 0.378906 Z M 5.289062 -5.90625 C 5.289062 -8.007812 5.929688 -8.597656 7.652344 -8.597656 C 9.375 -8.597656 10.015625 -8.007812 10.015625 -5.90625 C 10.015625 -3.800781 9.375 -3.210938 7.652344 -3.210938 C 5.929688 -3.210938 5.289062 -3.800781 5.289062 -5.90625 Z M 5.289062 -5.90625 "/></g></g></g><g fill="#1e2c35" fill-opacity="1"><g transform="translate(99.503229, 26.241398)"><g><path d="M 17.691406 -12.1875 C 15.585938 -12.1875 14.3125 -11.21875 13.558594 -9.683594 C 12.917969 -11.265625 11.597656 -12.1875 9.636719 -12.1875 C 7.675781 -12.1875 6.425781 -11.359375 5.691406 -9.992188 L 5.691406 -11.808594 L 1.0625 -11.808594 L 1.0625 0 L 5.691406 0 L 5.691406 -5.738281 C 5.691406 -7.582031 6.28125 -8.457031 7.675781 -8.457031 C 8.953125 -8.457031 9.421875 -7.628906 9.421875 -6.351562 L 9.421875 0 L 13.980469 0 L 13.980469 -5.738281 C 13.980469 -7.582031 14.574219 -8.457031 15.964844 -8.457031 C 17.242188 -8.457031 17.714844 -7.628906 17.714844 -6.351562 L 17.714844 0 L 22.34375 0 L 22.34375 -7.109375 C 22.34375 -10.203125 20.878906 -12.1875 17.691406 -12.1875 Z M 17.691406 -12.1875 "/></g></g></g><g fill="#1e2c35" fill-opacity="1"><g transform="translate(122.362757, 26.241398)"><g><path d="M 9.421875 0.378906 C 15.847656 0.378906 18.019531 -3.777344 18.019531 -7.816406 C 18.019531 -11.785156 15.847656 -16.082031 9.421875 -16.082031 C 3.023438 -16.082031 0.828125 -11.808594 0.828125 -7.816406 C 0.828125 -3.753906 3.023438 0.378906 9.421875 0.378906 Z M 5.761719 -7.816406 C 5.761719 -10.605469 6.375 -12.234375 9.421875 -12.234375 C 12.492188 -12.234375 13.085938 -10.605469 13.085938 -7.816406 C 13.085938 -5.101562 12.492188 -3.472656 9.421875 -3.472656 C 6.375 -3.472656 5.761719 -5.101562 5.761719 -7.816406 Z M 5.761719 -7.816406 "/></g></g></g><g fill="#1e2c35" fill-opacity="1"><g transform="translate(140.735382, 26.241398)"><g><path d="M 0.707031 -5.054688 C 0.945312 -2.289062 2.738281 0.402344 7.9375 0.402344 C 13.25 0.402344 15.1875 -1.769531 15.1875 -4.867188 C 15.1875 -7.769531 13.652344 -9.519531 9.992188 -9.824219 L 7.273438 -10.0625 C 6.140625 -10.15625 5.714844 -10.675781 5.714844 -11.359375 C 5.714844 -12.210938 6.613281 -12.683594 7.910156 -12.683594 C 9.375 -12.683594 10.226562 -12.023438 10.367188 -10.980469 L 15.042969 -10.980469 C 14.855469 -13.746094 12.871094 -16.082031 7.886719 -16.082031 C 3.257812 -16.082031 0.945312 -14.050781 0.945312 -11.007812 C 0.945312 -8.265625 2.644531 -6.589844 5.550781 -6.28125 L 8.878906 -5.929688 C 9.871094 -5.808594 10.414062 -5.386719 10.414062 -4.488281 C 10.414062 -3.566406 9.636719 -3 8.03125 -3 C 6.140625 -3 5.457031 -4.109375 5.3125 -5.054688 Z M 0.707031 -5.054688 "/></g></g></g></svg>