<svg xmlns="http://www.w3.org/2000/svg" xmlns:xlink="http://www.w3.org/1999/xlink" width="160" zoomAndPan="magnify" viewBox="0 0 120 119.999999" height="160" preserveAspectRatio="xMidYMid meet" version="1.0"><defs><filter x="0%" y="0%" width="100%" height="100%" id="id1"><feColorMatrix values="0 0 0 0 1 0 0 0 0 1 0 0 0 0 1 0 0 0 1 0" color-interpolation-filters="sRGB"/></filter><clipPath id="id2"><path d="M 29 16.582031 L 114.363281 16.582031 L 114.363281 101 L 29 101 Z M 29 16.582031 " clip-rule="nonzero"/></clipPath><mask id="id3"><g filter="url(#id1)"><rect x="-12" width="144" fill="#000000" y="-12" height="143.999998" fill-opacity="0.698"/></g></mask><clipPath id="id4"><path d="M 1 0.582031 L 85.363281 0.582031 L 85.363281 84.800781 L 1 84.800781 Z M 1 0.582031 " clip-rule="nonzero"/></clipPath><clipPath id="id5"><rect x="0" width="86" y="0" height="85"/></clipPath><clipPath id="id6"><path d="M 6.363281 16.582031 L 91 16.582031 L 91 102 L 6.363281 102 Z M 6.363281 16.582031 " clip-rule="nonzero"/></clipPath><mask id="id7"><g filter="url(#id1)"><rect x="-12" width="144" fill="#000000" y="-12" height="143.999998" fill-opacity="0.698"/></g></mask><clipPath id="id8"><path d="M 0.363281 0.582031 L 84.960938 0.582031 L 84.960938 85 L 0.363281 85 Z M 0.363281 0.582031 " clip-rule="nonzero"/></clipPath><clipPath id="id9"><rect x="0" width="85" y="0" height="86"/></clipPath></defs><rect x="-12" width="144" fill="#ffffff" y="-12" height="143.999998" fill-opacity="1"/><rect x="-12" width="144" fill="#ffffff" y="-12" height="143.999998" fill-opacity="1"/><rect x="-12" width="144" fill="#ffffff" y="-12" height="143.999998" fill-opacity="1"/><rect x="-12" width="144" fill="#ffffff" y="-12" height="143.999998" fill-opacity="1"/><rect x="-12" width="144" fill="#f9f9f9" y="-12" height="143.999998" fill-opacity="1"/><g clip-path="url(#id2)"><g mask="url(#id3)"><g transform="matrix(1, 0, 0, 1, 29, 16)"><g clip-path="url(#id5)"><g clip-path="url(#id4)"><path fill="#79a1b8" d="M 1.097656 30.851562 C 1.097656 22.761719 4.257812 15.15625 9.988281 9.433594 C 15.902344 3.53125 23.675781 0.578125 31.445312 0.578125 C 39.21875 0.578125 46.988281 3.53125 52.90625 9.433594 L 76.460938 32.941406 C 82.195312 38.664062 85.351562 46.269531 85.351562 54.359375 C 85.351562 62.449219 82.195312 70.054688 76.460938 75.773438 C 64.628906 87.582031 45.375 87.582031 33.542969 75.773438 L 9.988281 52.265625 C 4.253906 46.546875 1.097656 38.941406 1.097656 30.851562 Z M 1.097656 30.851562 " fill-opacity="1" fill-rule="nonzero"/></g></g></g></g></g><g clip-path="url(#id6)"><g mask="url(#id7)"><g transform="matrix(1, 0, 0, 1, 6, 16)"><g clip-path="url(#id9)"><g clip-path="url(#id8)"><path fill="#333652" d="M 0.378906 54.359375 C 0.378906 46.269531 3.535156 38.664062 9.269531 32.941406 L 32.824219 9.433594 C 38.738281 3.53125 46.511719 0.578125 54.28125 0.578125 C 62.054688 0.578125 69.824219 3.53125 75.742188 9.433594 C 81.472656 15.15625 84.628906 22.761719 84.628906 30.851562 C 84.628906 38.941406 81.472656 46.546875 75.742188 52.265625 L 52.1875 75.773438 C 40.355469 87.582031 21.101562 87.582031 9.269531 75.773438 C 3.535156 70.054688 0.378906 62.449219 0.378906 54.359375 Z M 0.378906 54.359375 " fill-opacity="1" fill-rule="nonzero"/></g></g></g></g></g></svg>